solid Happy_bees_yeni_altlık_kanalli
facet normal -0.8608569934191266 -0.5088469680379178 0.0
  outer loop
    vertex -59.334180034145646 389.5082393092737 6.0
    vertex -58.39270690889261 387.9154741462712 -0.30000000000000016
    vertex -58.39270690889261 387.9154741462712 6.0
  endloop
endfacet
facet normal -0.8608569934191266 -0.5088469680379178 0.0
  outer loop
    vertex -58.39270690889261 387.9154741462712 -0.30000000000000016
    vertex -59.334180034145646 389.5082393092737 6.0
    vertex -59.334180034145646 389.5082393092737 -0.30000000000000016
  endloop
endfacet
facet normal 0.0 0.0 -1.0
  outer loop
    vertex -59.38975932754654 394.93249222551657 -0.30000000000000016
    vertex -59.8313352820238 391.29040349069896 -0.30000000000000016
    vertex -59.850292343971994 393.14051514674844 -0.30000000000000016
  endloop
endfacet
facet normal 0.0 0.0 -1.0
  outer loop
    vertex -59.8313352820238 391.29040349069896 -0.30000000000000016
    vertex -59.38975932754654 394.93249222551657 -0.30000000000000016
    vertex -59.334180034145646 389.5082393092737 -0.30000000000000016
  endloop
endfacet
facet normal 0.0 0.0 -1.0
  outer loop
    vertex -59.334180034145646 389.5082393092737 -0.30000000000000016
    vertex -59.38975932754654 394.93249222551657 -0.30000000000000016
    vertex -58.48112079675005 396.5442144504672 -0.30000000000000016
  endloop
endfacet
facet normal 0.0 0.0 -1.0
  outer loop
    vertex -59.334180034145646 389.5082393092737 -0.30000000000000016
    vertex -58.48112079675005 396.5442144504672 -0.30000000000000016
    vertex -58.39270690889261 387.9154741462712 -0.30000000000000016
  endloop
endfacet
facet normal 0.0 0.0 -1.0
  outer loop
    vertex -58.39270690889261 387.9154741462712 -0.30000000000000016
    vertex -58.48112079675005 396.5442144504672 -0.30000000000000016
    vertex -57.186298965860125 397.8658456154671 -0.30000000000000016
  endloop
endfacet
facet normal 0.0 0.0 -1.0
  outer loop
    vertex -58.39270690889261 387.9154741462712 -0.30000000000000016
    vertex -57.186298965860125 397.8658456154671 -0.30000000000000016
    vertex -57.071075743892784 386.6206523153812 -0.30000000000000016
  endloop
endfacet
facet normal 0.0 0.0 -1.0
  outer loop
    vertex -57.071075743892784 386.6206523153812 -0.30000000000000016
    vertex -57.186298965860125 397.8658456154671 -0.30000000000000016
    vertex -55.59353380285762 398.8073187407201 -0.30000000000000016
  endloop
endfacet
facet normal 0.0 0.0 -1.0
  outer loop
    vertex -57.071075743892784 386.6206523153812 -0.30000000000000016
    vertex -55.59353380285762 398.8073187407201 -0.30000000000000016
    vertex -55.45935351894209 385.71201378458477 -0.30000000000000016
  endloop
endfacet
facet normal 0.0 0.0 -1.0
  outer loop
    vertex -55.45935351894209 385.71201378458477 -0.30000000000000016
    vertex -55.59353380285762 398.8073187407201 -0.30000000000000016
    vertex -53.81136962143234 399.30447398859826 -0.30000000000000016
  endloop
endfacet
facet normal 0.0 0.0 -1.0
  outer loop
    vertex -55.45935351894209 385.71201378458477 -0.30000000000000016
    vertex -53.81136962143234 399.30447398859826 -0.30000000000000016
    vertex -53.66737644017404 385.2514807681593 -0.30000000000000016
  endloop
endfacet
facet normal 0.0 0.0 -1.0
  outer loop
    vertex -53.66737644017404 385.2514807681593 -0.30000000000000016
    vertex -53.81136962143234 399.30447398859826 -0.30000000000000016
    vertex -51.961257965382785 399.32343105054645 -0.30000000000000016
  endloop
endfacet
facet normal 0.0 0.0 -1.0
  outer loop
    vertex -53.66737644017404 385.2514807681593 -0.30000000000000016
    vertex -51.961257965382785 399.32343105054645 -0.30000000000000016
    vertex -51.81726478412452 385.2704378301075 -0.30000000000000016
  endloop
endfacet
facet normal 0.0 0.0 -1.0
  outer loop
    vertex -51.81726478412452 385.2704378301075 -0.30000000000000016
    vertex -51.961257965382785 399.32343105054645 -0.30000000000000016
    vertex -50.169280886614736 398.86289803412103 -0.30000000000000016
  endloop
endfacet
facet normal 0.0 0.0 -1.0
  outer loop
    vertex -51.81726478412452 385.2704378301075 -0.30000000000000016
    vertex -50.169280886614736 398.86289803412103 -0.30000000000000016
    vertex -50.03510060269921 385.7675930779856 -0.30000000000000016
  endloop
endfacet
facet normal 0.0 0.0 -1.0
  outer loop
    vertex -50.03510060269921 385.7675930779856 -0.30000000000000016
    vertex -50.169280886614736 398.86289803412103 -0.30000000000000016
    vertex -48.55755866166404 397.9542595033245 -0.30000000000000016
  endloop
endfacet
facet normal 0.0 0.0 -1.0
  outer loop
    vertex -50.03510060269921 385.7675930779856 -0.30000000000000016
    vertex -48.55755866166404 397.9542595033245 -0.30000000000000016
    vertex -48.44233543969671 386.70906620323865 -0.30000000000000016
  endloop
endfacet
facet normal 0.0 0.0 -1.0
  outer loop
    vertex -48.44233543969671 386.70906620323865 -0.30000000000000016
    vertex -48.55755866166404 397.9542595033245 -0.30000000000000016
    vertex -47.23592749666421 396.6594376724346 -0.30000000000000016
  endloop
endfacet
facet normal 0.0 0.0 -1.0
  outer loop
    vertex -48.44233543969671 386.70906620323865 -0.30000000000000016
    vertex -47.23592749666421 396.6594376724346 -0.30000000000000016
    vertex -47.14751360880678 388.0306973682385 -0.30000000000000016
  endloop
endfacet
facet normal 0.0 0.0 -1.0
  outer loop
    vertex -47.14751360880678 388.0306973682385 -0.30000000000000016
    vertex -47.23592749666421 396.6594376724346 -0.30000000000000016
    vertex -46.29445437141118 395.06667250943207 -0.30000000000000016
  endloop
endfacet
facet normal 0.0 0.0 -1.0
  outer loop
    vertex -47.14751360880678 388.0306973682385 -0.30000000000000016
    vertex -46.29445437141118 395.06667250943207 -0.30000000000000016
    vertex -46.238875078010295 389.6424195931892 -0.30000000000000016
  endloop
endfacet
facet normal 0.0 0.0 -1.0
  outer loop
    vertex -46.238875078010295 389.6424195931892 -0.30000000000000016
    vertex -46.29445437141118 395.06667250943207 -0.30000000000000016
    vertex -45.79729912353303 393.2845083280068 -0.30000000000000016
  endloop
endfacet
facet normal 0.0 0.0 -1.0
  outer loop
    vertex -46.238875078010295 389.6424195931892 -0.30000000000000016
    vertex -45.79729912353303 393.2845083280068 -0.30000000000000016
    vertex -45.77834206158483 391.4343966719573 -0.30000000000000016
  endloop
endfacet
facet normal -0.9632232890559806 -0.2687022430501442 0.0
  outer loop
    vertex -59.8313352820238 391.29040349069896 6.0
    vertex -59.334180034145646 389.5082393092737 -0.30000000000000016
    vertex -59.334180034145646 389.5082393092737 6.0
  endloop
endfacet
facet normal -0.9632232890559806 -0.2687022430501442 0.0
  outer loop
    vertex -59.334180034145646 389.5082393092737 -0.30000000000000016
    vertex -59.8313352820238 391.29040349069896 6.0
    vertex -59.8313352820238 391.29040349069896 -0.30000000000000016
  endloop
endfacet
facet normal 0.24890867599270114 0.9685269593643536 0.0
  outer loop
    vertex -51.961257965382785 399.32343105054645 6.0
    vertex -50.169280886614736 398.86289803412103 -0.30000000000000016
    vertex -51.961257965382785 399.32343105054645 -0.30000000000000016
  endloop
endfacet
facet normal 0.24890867599270114 0.9685269593643536 0.0
  outer loop
    vertex -50.169280886614736 398.86289803412103 -0.30000000000000016
    vertex -51.961257965382785 399.32343105054645 6.0
    vertex -50.169280886614736 398.86289803412103 6.0
  endloop
endfacet
facet normal -0.26870224305014484 0.9632232890559804 0.0
  outer loop
    vertex -55.59353380285762 398.8073187407201 6.0
    vertex -53.81136962143234 399.30447398859826 -0.30000000000000016
    vertex -55.59353380285762 398.8073187407201 -0.30000000000000016
  endloop
endfacet
facet normal -0.26870224305014484 0.9632232890559804 0.0
  outer loop
    vertex -53.81136962143234 399.30447398859826 -0.30000000000000016
    vertex -55.59353380285762 398.8073187407201 6.0
    vertex -53.81136962143234 399.30447398859826 6.0
  endloop
endfacet
facet normal -0.24890867599270114 -0.9685269593643536 0.0
  outer loop
    vertex -53.66737644017404 385.2514807681593 6.0
    vertex -55.45935351894209 385.71201378458477 -0.30000000000000016
    vertex -53.66737644017404 385.2514807681593 -0.30000000000000016
  endloop
endfacet
facet normal -0.24890867599270114 -0.9685269593643536 0.0
  outer loop
    vertex -55.45935351894209 385.71201378458477 -0.30000000000000016
    vertex -53.66737644017404 385.2514807681593 6.0
    vertex -55.45935351894209 385.71201378458477 6.0
  endloop
endfacet
facet normal -0.508846968037918 0.8608569934191265 0.0
  outer loop
    vertex -57.186298965860125 397.8658456154671 6.0
    vertex -55.59353380285762 398.8073187407201 -0.30000000000000016
    vertex -57.186298965860125 397.8658456154671 -0.30000000000000016
  endloop
endfacet
facet normal -0.508846968037918 0.8608569934191265 0.0
  outer loop
    vertex -55.59353380285762 398.8073187407201 -0.30000000000000016
    vertex -57.186298965860125 397.8658456154671 6.0
    vertex -55.59353380285762 398.8073187407201 6.0
  endloop
endfacet
facet normal -0.4911005413074971 -0.8711028976690891 0.0
  outer loop
    vertex -49.034613099749045 397.3191814790135 6.0
    vertex -50.46570980108906 398.1259889946033 0.7499999999999999
    vertex -49.034613099749045 397.3191814790135 0.7499999999999999
  endloop
endfacet
facet normal -0.4911005413074971 -0.8711028976690891 0.0
  outer loop
    vertex -50.46570980108906 398.1259889946033 0.7499999999999999
    vertex -49.034613099749045 397.3191814790135 6.0
    vertex -50.46570980108906 398.1259889946033 6.0
  endloop
endfacet
facet normal 0.8608569934191279 0.5088469680379157 0.0
  outer loop
    vertex -47.23592749666421 396.6594376724346 -0.30000000000000016
    vertex -46.29445437141118 395.06667250943207 6.0
    vertex -46.29445437141118 395.06667250943207 -0.30000000000000016
  endloop
endfacet
facet normal 0.8608569934191279 0.5088469680379157 0.0
  outer loop
    vertex -46.29445437141118 395.06667250943207 6.0
    vertex -47.23592749666421 396.6594376724346 -0.30000000000000016
    vertex -47.23592749666421 396.6594376724346 6.0
  endloop
endfacet
facet normal -0.010245904249963652 0.9999475093454158 0.0
  outer loop
    vertex -53.57177418995985 386.0400016896404 6.0
    vertex -51.929004333532355 386.0568342358454 0.7499999999999999
    vertex -53.57177418995985 386.0400016896404 0.7499999999999999
  endloop
endfacet
facet normal -0.010245904249963652 0.9999475093454158 0.0
  outer loop
    vertex -51.929004333532355 386.0568342358454 0.7499999999999999
    vertex -53.57177418995985 386.0400016896404 6.0
    vertex -51.929004333532355 386.0568342358454 6.0
  endloop
endfacet
facet normal 0.8711028976690877 -0.4911005413074993 0.0
  outer loop
    vertex -46.238875078010295 389.6424195931892 -0.30000000000000016
    vertex -47.14751360880678 388.0306973682385 6.0
    vertex -47.14751360880678 388.0306973682385 -0.30000000000000016
  endloop
endfacet
facet normal 0.8711028976690877 -0.4911005413074993 0.0
  outer loop
    vertex -47.14751360880678 388.0306973682385 6.0
    vertex -46.238875078010295 389.6424195931892 -0.30000000000000016
    vertex -46.238875078010295 389.6424195931892 6.0
  endloop
endfacet
facet normal -0.2687022430501513 0.9632232890559788 0.0
  outer loop
    vertex -51.929004333532355 386.0568342358454 6.0
    vertex -50.346567086095305 386.49827335251086 0.7499999999999999
    vertex -51.929004333532355 386.0568342358454 0.7499999999999999
  endloop
endfacet
facet normal -0.2687022430501513 0.9632232890559788 0.0
  outer loop
    vertex -50.346567086095305 386.49827335251086 0.7499999999999999
    vertex -51.929004333532355 386.0568342358454 6.0
    vertex -50.346567086095305 386.49827335251086 6.0
  endloop
endfacet
facet normal 0.0 0.0 1.0
  outer loop
    vertex -59.334180034145646 389.5082393092737 6.0
    vertex -59.04493887628587 391.4021430401068 6.0
    vertex -59.06177142249089 393.0449128965343 6.0
  endloop
endfacet
facet normal 0.0 0.0 1.0
  outer loop
    vertex -59.04493887628587 391.4021430401068 6.0
    vertex -59.334180034145646 389.5082393092737 6.0
    vertex -58.39270690889261 387.9154741462712 6.0
  endloop
endfacet
facet normal 0.0 0.0 1.0
  outer loop
    vertex -59.04493887628587 391.4021430401068 6.0
    vertex -58.39270690889261 387.9154741462712 6.0
    vertex -58.60349975962044 389.81970579266977 6.0
  endloop
endfacet
facet normal 0.0 0.0 1.0
  outer loop
    vertex -58.60349975962044 389.81970579266977 6.0
    vertex -58.39270690889261 387.9154741462712 6.0
    vertex -57.767537418782766 388.4054416375348 6.0
  endloop
endfacet
facet normal 0.0 0.0 1.0
  outer loop
    vertex -57.767537418782766 388.4054416375348 6.0
    vertex -58.39270690889261 387.9154741462712 6.0
    vertex -57.071075743892784 386.6206523153812 6.0
  endloop
endfacet
facet normal 0.0 0.0 1.0
  outer loop
    vertex -57.767537418782766 388.4054416375348 6.0
    vertex -57.071075743892784 386.6206523153812 6.0
    vertex -56.594021305807786 387.25573033969226 6.0
  endloop
endfacet
facet normal 0.0 0.0 1.0
  outer loop
    vertex -56.594021305807786 387.25573033969226 6.0
    vertex -57.071075743892784 386.6206523153812 6.0
    vertex -55.45935351894209 385.71201378458477 6.0
  endloop
endfacet
facet normal 0.0 0.0 1.0
  outer loop
    vertex -56.594021305807786 387.25573033969226 6.0
    vertex -55.45935351894209 385.71201378458477 6.0
    vertex -55.16292460446776 386.4489228241025 6.0
  endloop
endfacet
facet normal 0.0 0.0 1.0
  outer loop
    vertex -55.16292460446776 386.4489228241025 6.0
    vertex -55.45935351894209 385.71201378458477 6.0
    vertex -53.66737644017404 385.2514807681593 6.0
  endloop
endfacet
facet normal 0.0 0.0 1.0
  outer loop
    vertex -55.16292460446776 386.4489228241025 6.0
    vertex -53.66737644017404 385.2514807681593 6.0
    vertex -53.57177418995985 386.0400016896404 6.0
  endloop
endfacet
facet normal 0.0 0.0 1.0
  outer loop
    vertex -53.57177418995985 386.0400016896404 6.0
    vertex -53.66737644017404 385.2514807681593 6.0
    vertex -51.81726478412452 385.2704378301075 6.0
  endloop
endfacet
facet normal 0.0 0.0 1.0
  outer loop
    vertex -53.57177418995985 386.0400016896404 6.0
    vertex -51.81726478412452 385.2704378301075 6.0
    vertex -51.929004333532355 386.0568342358454 6.0
  endloop
endfacet
facet normal 0.0 0.0 1.0
  outer loop
    vertex -51.929004333532355 386.0568342358454 6.0
    vertex -51.81726478412452 385.2704378301075 6.0
    vertex -50.346567086095305 386.49827335251086 6.0
  endloop
endfacet
facet normal 0.0 0.0 1.0
  outer loop
    vertex -50.346567086095305 386.49827335251086 6.0
    vertex -51.81726478412452 385.2704378301075 6.0
    vertex -50.03510060269921 385.7675930779856 6.0
  endloop
endfacet
facet normal 0.0 0.0 1.0
  outer loop
    vertex -50.346567086095305 386.49827335251086 6.0
    vertex -50.03510060269921 385.7675930779856 6.0
    vertex -48.93230293096031 387.33423569334855 6.0
  endloop
endfacet
facet normal 0.0 0.0 1.0
  outer loop
    vertex -48.93230293096031 387.33423569334855 6.0
    vertex -50.03510060269921 385.7675930779856 6.0
    vertex -48.44233543969671 386.70906620323865 6.0
  endloop
endfacet
facet normal 0.0 0.0 1.0
  outer loop
    vertex -48.93230293096031 387.33423569334855 6.0
    vertex -48.44233543969671 386.70906620323865 6.0
    vertex -47.78259163311782 388.5077518063235 6.0
  endloop
endfacet
facet normal 0.0 0.0 1.0
  outer loop
    vertex -47.78259163311782 388.5077518063235 6.0
    vertex -48.44233543969671 386.70906620323865 6.0
    vertex -47.14751360880678 388.0306973682385 6.0
  endloop
endfacet
facet normal 0.0 0.0 1.0
  outer loop
    vertex -47.78259163311782 388.5077518063235 6.0
    vertex -47.14751360880678 388.0306973682385 6.0
    vertex -46.97578411752802 389.9388485076635 6.0
  endloop
endfacet
facet normal 0.0 0.0 1.0
  outer loop
    vertex -46.97578411752802 389.9388485076635 6.0
    vertex -47.14751360880678 388.0306973682385 6.0
    vertex -46.238875078010295 389.6424195931892 6.0
  endloop
endfacet
facet normal 0.0 0.0 1.0
  outer loop
    vertex -46.97578411752802 389.9388485076635 6.0
    vertex -46.238875078010295 389.6424195931892 6.0
    vertex -46.56686298306593 391.52999892217144 6.0
  endloop
endfacet
facet normal 0.0 0.0 1.0
  outer loop
    vertex -46.56686298306593 391.52999892217144 6.0
    vertex -46.238875078010295 389.6424195931892 6.0
    vertex -46.29445437141118 395.06667250943207 6.0
  endloop
endfacet
facet normal 0.0 0.0 1.0
  outer loop
    vertex -46.29445437141118 395.06667250943207 6.0
    vertex -46.238875078010295 389.6424195931892 6.0
    vertex -45.79729912353303 393.2845083280068 6.0
  endloop
endfacet
facet normal 0.0 0.0 1.0
  outer loop
    vertex -45.79729912353303 393.2845083280068 6.0
    vertex -46.238875078010295 389.6424195931892 6.0
    vertex -45.77834206158483 391.4343966719573 6.0
  endloop
endfacet
facet normal 0.0 0.0 1.0
  outer loop
    vertex -59.8313352820238 391.29040349069896 6.0
    vertex -59.38975932754654 394.93249222551657 6.0
    vertex -59.850292343971994 393.14051514674844 6.0
  endloop
endfacet
facet normal 0.0 0.0 1.0
  outer loop
    vertex -59.38975932754654 394.93249222551657 6.0
    vertex -59.8313352820238 391.29040349069896 6.0
    vertex -59.334180034145646 389.5082393092737 6.0
  endloop
endfacet
facet normal 0.0 0.0 1.0
  outer loop
    vertex -59.38975932754654 394.93249222551657 6.0
    vertex -59.334180034145646 389.5082393092737 6.0
    vertex -59.06177142249089 393.0449128965343 6.0
  endloop
endfacet
facet normal 0.0 0.0 1.0
  outer loop
    vertex -59.38975932754654 394.93249222551657 6.0
    vertex -59.06177142249089 393.0449128965343 6.0
    vertex -58.48112079675005 396.5442144504672 6.0
  endloop
endfacet
facet normal 0.0 0.0 1.0
  outer loop
    vertex -58.48112079675005 396.5442144504672 6.0
    vertex -59.06177142249089 393.0449128965343 6.0
    vertex -58.6528502880288 394.6360633110422 6.0
  endloop
endfacet
facet normal 0.0 0.0 1.0
  outer loop
    vertex -58.48112079675005 396.5442144504672 6.0
    vertex -58.6528502880288 394.6360633110422 6.0
    vertex -57.846042772439006 396.06716001238226 6.0
  endloop
endfacet
facet normal 0.0 0.0 1.0
  outer loop
    vertex -58.48112079675005 396.5442144504672 6.0
    vertex -57.846042772439006 396.06716001238226 6.0
    vertex -57.186298965860125 397.8658456154671 6.0
  endloop
endfacet
facet normal 0.0 0.0 1.0
  outer loop
    vertex -57.186298965860125 397.8658456154671 6.0
    vertex -57.846042772439006 396.06716001238226 6.0
    vertex -56.69633147459652 397.2406761253572 6.0
  endloop
endfacet
facet normal 0.0 0.0 1.0
  outer loop
    vertex -57.186298965860125 397.8658456154671 6.0
    vertex -56.69633147459652 397.2406761253572 6.0
    vertex -55.59353380285762 398.8073187407201 6.0
  endloop
endfacet
facet normal 0.0 0.0 1.0
  outer loop
    vertex -55.59353380285762 398.8073187407201 6.0
    vertex -56.69633147459652 397.2406761253572 6.0
    vertex -55.28206731946153 398.07663846619494 6.0
  endloop
endfacet
facet normal 0.0 0.0 1.0
  outer loop
    vertex -55.59353380285762 398.8073187407201 6.0
    vertex -55.28206731946153 398.07663846619494 6.0
    vertex -53.81136962143234 399.30447398859826 6.0
  endloop
endfacet
facet normal 0.0 0.0 1.0
  outer loop
    vertex -53.81136962143234 399.30447398859826 6.0
    vertex -55.28206731946153 398.07663846619494 6.0
    vertex -53.699630072024455 398.5180775828603 6.0
  endloop
endfacet
facet normal 0.0 0.0 1.0
  outer loop
    vertex -53.81136962143234 399.30447398859826 6.0
    vertex -53.699630072024455 398.5180775828603 6.0
    vertex -51.961257965382785 399.32343105054645 6.0
  endloop
endfacet
facet normal 0.0 0.0 1.0
  outer loop
    vertex -51.961257965382785 399.32343105054645 6.0
    vertex -53.699630072024455 398.5180775828603 6.0
    vertex -52.05686021559698 398.53491012906534 6.0
  endloop
endfacet
facet normal 0.0 0.0 1.0
  outer loop
    vertex -51.961257965382785 399.32343105054645 6.0
    vertex -52.05686021559698 398.53491012906534 6.0
    vertex -50.46570980108906 398.1259889946033 6.0
  endloop
endfacet
facet normal 0.0 0.0 1.0
  outer loop
    vertex -51.961257965382785 399.32343105054645 6.0
    vertex -50.46570980108906 398.1259889946033 6.0
    vertex -50.169280886614736 398.86289803412103 6.0
  endloop
endfacet
facet normal 0.0 0.0 1.0
  outer loop
    vertex -50.169280886614736 398.86289803412103 6.0
    vertex -50.46570980108906 398.1259889946033 6.0
    vertex -49.034613099749045 397.3191814790135 6.0
  endloop
endfacet
facet normal 0.0 0.0 1.0
  outer loop
    vertex -50.169280886614736 398.86289803412103 6.0
    vertex -49.034613099749045 397.3191814790135 6.0
    vertex -48.55755866166404 397.9542595033245 6.0
  endloop
endfacet
facet normal 0.0 0.0 1.0
  outer loop
    vertex -48.55755866166404 397.9542595033245 6.0
    vertex -49.034613099749045 397.3191814790135 6.0
    vertex -47.86109698677407 396.169470181171 6.0
  endloop
endfacet
facet normal 0.0 0.0 1.0
  outer loop
    vertex -48.55755866166404 397.9542595033245 6.0
    vertex -47.86109698677407 396.169470181171 6.0
    vertex -47.23592749666421 396.6594376724346 6.0
  endloop
endfacet
facet normal 0.0 0.0 1.0
  outer loop
    vertex -47.23592749666421 396.6594376724346 6.0
    vertex -47.86109698677407 396.169470181171 6.0
    vertex -47.02513464593638 394.755206026036 6.0
  endloop
endfacet
facet normal 0.0 0.0 1.0
  outer loop
    vertex -47.23592749666421 396.6594376724346 6.0
    vertex -47.02513464593638 394.755206026036 6.0
    vertex -46.29445437141118 395.06667250943207 6.0
  endloop
endfacet
facet normal 0.0 0.0 1.0
  outer loop
    vertex -46.29445437141118 395.06667250943207 6.0
    vertex -47.02513464593638 394.755206026036 6.0
    vertex -46.583695529270955 393.1727687785989 6.0
  endloop
endfacet
facet normal 0.0 0.0 1.0
  outer loop
    vertex -46.29445437141118 395.06667250943207 6.0
    vertex -46.583695529270955 393.1727687785989 6.0
    vertex -46.56686298306593 391.52999892217144 6.0
  endloop
endfacet
facet normal 0.0 0.0 1.0
  outer loop
    vertex -59.04493887628587 391.4021430401068 0.7499999999999999
    vertex -58.6528502880288 394.6360633110422 0.7499999999999999
    vertex -59.06177142249089 393.0449128965343 0.7499999999999999
  endloop
endfacet
facet normal 0.0 0.0 1.0
  outer loop
    vertex -58.6528502880288 394.6360633110422 0.7499999999999999
    vertex -59.04493887628587 391.4021430401068 0.7499999999999999
    vertex -58.60349975962044 389.81970579266977 0.7499999999999999
  endloop
endfacet
facet normal 0.0 0.0 1.0
  outer loop
    vertex -58.6528502880288 394.6360633110422 0.7499999999999999
    vertex -58.60349975962044 389.81970579266977 0.7499999999999999
    vertex -57.846042772439006 396.06716001238226 0.7499999999999999
  endloop
endfacet
facet normal 0.0 0.0 1.0
  outer loop
    vertex -57.846042772439006 396.06716001238226 0.7499999999999999
    vertex -58.60349975962044 389.81970579266977 0.7499999999999999
    vertex -57.767537418782766 388.4054416375348 0.7499999999999999
  endloop
endfacet
facet normal 0.0 0.0 1.0
  outer loop
    vertex -57.846042772439006 396.06716001238226 0.7499999999999999
    vertex -57.767537418782766 388.4054416375348 0.7499999999999999
    vertex -56.69633147459652 397.2406761253572 0.7499999999999999
  endloop
endfacet
facet normal 0.0 0.0 1.0
  outer loop
    vertex -56.69633147459652 397.2406761253572 0.7499999999999999
    vertex -57.767537418782766 388.4054416375348 0.7499999999999999
    vertex -56.594021305807786 387.25573033969226 0.7499999999999999
  endloop
endfacet
facet normal 0.0 0.0 1.0
  outer loop
    vertex -56.69633147459652 397.2406761253572 0.7499999999999999
    vertex -56.594021305807786 387.25573033969226 0.7499999999999999
    vertex -55.28206731946153 398.07663846619494 0.7499999999999999
  endloop
endfacet
facet normal 0.0 0.0 1.0
  outer loop
    vertex -55.28206731946153 398.07663846619494 0.7499999999999999
    vertex -56.594021305807786 387.25573033969226 0.7499999999999999
    vertex -55.16292460446776 386.4489228241025 0.7499999999999999
  endloop
endfacet
facet normal 0.0 0.0 1.0
  outer loop
    vertex -55.28206731946153 398.07663846619494 0.7499999999999999
    vertex -55.16292460446776 386.4489228241025 0.7499999999999999
    vertex -53.699630072024455 398.5180775828603 0.7499999999999999
  endloop
endfacet
facet normal 0.0 0.0 1.0
  outer loop
    vertex -53.699630072024455 398.5180775828603 0.7499999999999999
    vertex -55.16292460446776 386.4489228241025 0.7499999999999999
    vertex -53.57177418995985 386.0400016896404 0.7499999999999999
  endloop
endfacet
facet normal 0.0 0.0 1.0
  outer loop
    vertex -53.699630072024455 398.5180775828603 0.7499999999999999
    vertex -53.57177418995985 386.0400016896404 0.7499999999999999
    vertex -52.05686021559698 398.53491012906534 0.7499999999999999
  endloop
endfacet
facet normal 0.0 0.0 1.0
  outer loop
    vertex -52.05686021559698 398.53491012906534 0.7499999999999999
    vertex -53.57177418995985 386.0400016896404 0.7499999999999999
    vertex -51.929004333532355 386.0568342358454 0.7499999999999999
  endloop
endfacet
facet normal 0.0 0.0 1.0
  outer loop
    vertex -52.05686021559698 398.53491012906534 0.7499999999999999
    vertex -51.929004333532355 386.0568342358454 0.7499999999999999
    vertex -50.46570980108906 398.1259889946033 0.7499999999999999
  endloop
endfacet
facet normal 0.0 0.0 1.0
  outer loop
    vertex -50.46570980108906 398.1259889946033 0.7499999999999999
    vertex -51.929004333532355 386.0568342358454 0.7499999999999999
    vertex -50.346567086095305 386.49827335251086 0.7499999999999999
  endloop
endfacet
facet normal 0.0 0.0 1.0
  outer loop
    vertex -50.46570980108906 398.1259889946033 0.7499999999999999
    vertex -50.346567086095305 386.49827335251086 0.7499999999999999
    vertex -49.034613099749045 397.3191814790135 0.7499999999999999
  endloop
endfacet
facet normal 0.0 0.0 1.0
  outer loop
    vertex -49.034613099749045 397.3191814790135 0.7499999999999999
    vertex -50.346567086095305 386.49827335251086 0.7499999999999999
    vertex -48.93230293096031 387.33423569334855 0.7499999999999999
  endloop
endfacet
facet normal 0.0 0.0 1.0
  outer loop
    vertex -49.034613099749045 397.3191814790135 0.7499999999999999
    vertex -48.93230293096031 387.33423569334855 0.7499999999999999
    vertex -47.86109698677407 396.169470181171 0.7499999999999999
  endloop
endfacet
facet normal 0.0 0.0 1.0
  outer loop
    vertex -47.86109698677407 396.169470181171 0.7499999999999999
    vertex -48.93230293096031 387.33423569334855 0.7499999999999999
    vertex -47.78259163311782 388.5077518063235 0.7499999999999999
  endloop
endfacet
facet normal 0.0 0.0 1.0
  outer loop
    vertex -47.86109698677407 396.169470181171 0.7499999999999999
    vertex -47.78259163311782 388.5077518063235 0.7499999999999999
    vertex -47.02513464593638 394.755206026036 0.7499999999999999
  endloop
endfacet
facet normal 0.0 0.0 1.0
  outer loop
    vertex -47.02513464593638 394.755206026036 0.7499999999999999
    vertex -47.78259163311782 388.5077518063235 0.7499999999999999
    vertex -46.97578411752802 389.9388485076635 0.7499999999999999
  endloop
endfacet
facet normal 0.0 0.0 1.0
  outer loop
    vertex -47.02513464593638 394.755206026036 0.7499999999999999
    vertex -46.97578411752802 389.9388485076635 0.7499999999999999
    vertex -46.583695529270955 393.1727687785989 0.7499999999999999
  endloop
endfacet
facet normal 0.0 0.0 1.0
  outer loop
    vertex -46.583695529270955 393.1727687785989 0.7499999999999999
    vertex -46.97578411752802 389.9388485076635 0.7499999999999999
    vertex -46.56686298306593 391.52999892217144 0.7499999999999999
  endloop
endfacet
facet normal 0.24890867599270508 0.9685269593643526 0.0
  outer loop
    vertex -55.16292460446776 386.4489228241025 6.0
    vertex -53.57177418995985 386.0400016896404 0.7499999999999999
    vertex -55.16292460446776 386.4489228241025 0.7499999999999999
  endloop
endfacet
facet normal 0.24890867599270508 0.9685269593643526 0.0
  outer loop
    vertex -53.57177418995985 386.0400016896404 0.7499999999999999
    vertex -55.16292460446776 386.4489228241025 6.0
    vertex -53.57177418995985 386.0400016896404 6.0
  endloop
endfacet
facet normal 0.5088469680379151 -0.8608569934191281 0.0
  outer loop
    vertex -48.44233543969671 386.70906620323865 6.0
    vertex -50.03510060269921 385.7675930779856 -0.30000000000000016
    vertex -48.44233543969671 386.70906620323865 -0.30000000000000016
  endloop
endfacet
facet normal 0.5088469680379151 -0.8608569934191281 0.0
  outer loop
    vertex -50.03510060269921 385.7675930779856 -0.30000000000000016
    vertex -48.44233543969671 386.70906620323865 6.0
    vertex -50.03510060269921 385.7675930779856 6.0
  endloop
endfacet
facet normal -0.9632232890559798 -0.2687022430501474 0.0
  outer loop
    vertex -47.02513464593638 394.755206026036 6.0
    vertex -46.583695529270955 393.1727687785989 0.7499999999999999
    vertex -46.583695529270955 393.1727687785989 6.0
  endloop
endfacet
facet normal -0.9632232890559798 -0.2687022430501474 0.0
  outer loop
    vertex -46.583695529270955 393.1727687785989 0.7499999999999999
    vertex -47.02513464593638 394.755206026036 6.0
    vertex -47.02513464593638 394.755206026036 0.7499999999999999
  endloop
endfacet
facet normal 0.9999475093454158 0.010245904249958708 0.0
  outer loop
    vertex -45.79729912353303 393.2845083280068 -0.30000000000000016
    vertex -45.77834206158483 391.4343966719573 6.0
    vertex -45.77834206158483 391.4343966719573 -0.30000000000000016
  endloop
endfacet
facet normal 0.9999475093454158 0.010245904249958708 0.0
  outer loop
    vertex -45.77834206158483 391.4343966719573 6.0
    vertex -45.79729912353303 393.2845083280068 -0.30000000000000016
    vertex -45.79729912353303 393.2845083280068 6.0
  endloop
endfacet
facet normal -0.8608569934191282 -0.5088469680379151 0.0
  outer loop
    vertex -47.86109698677407 396.169470181171 6.0
    vertex -47.02513464593638 394.755206026036 0.7499999999999999
    vertex -47.02513464593638 394.755206026036 6.0
  endloop
endfacet
facet normal -0.8608569934191282 -0.5088469680379151 0.0
  outer loop
    vertex -47.02513464593638 394.755206026036 0.7499999999999999
    vertex -47.86109698677407 396.169470181171 6.0
    vertex -47.86109698677407 396.169470181171 0.7499999999999999
  endloop
endfacet
facet normal 0.9685269593643527 -0.2489086759927044 0.0
  outer loop
    vertex -58.6528502880288 394.6360633110422 0.7499999999999999
    vertex -59.06177142249089 393.0449128965343 6.0
    vertex -59.06177142249089 393.0449128965343 0.7499999999999999
  endloop
endfacet
facet normal 0.9685269593643527 -0.2489086759927044 0.0
  outer loop
    vertex -59.06177142249089 393.0449128965343 6.0
    vertex -58.6528502880288 394.6360633110422 0.7499999999999999
    vertex -58.6528502880288 394.6360633110422 6.0
  endloop
endfacet
facet normal -0.8711028976690876 0.4911005413074993 0.0
  outer loop
    vertex -46.97578411752802 389.9388485076635 6.0
    vertex -47.78259163311782 388.5077518063235 0.7499999999999999
    vertex -47.78259163311782 388.5077518063235 6.0
  endloop
endfacet
facet normal -0.8711028976690876 0.4911005413074993 0.0
  outer loop
    vertex -47.78259163311782 388.5077518063235 0.7499999999999999
    vertex -46.97578411752802 389.9388485076635 6.0
    vertex -46.97578411752802 389.9388485076635 0.7499999999999999
  endloop
endfacet
facet normal -0.9685269593643536 0.24890867599270103 0.0
  outer loop
    vertex -59.38975932754654 394.93249222551657 6.0
    vertex -59.850292343971994 393.14051514674844 -0.30000000000000016
    vertex -59.850292343971994 393.14051514674844 6.0
  endloop
endfacet
facet normal -0.9685269593643536 0.24890867599270103 0.0
  outer loop
    vertex -59.850292343971994 393.14051514674844 -0.30000000000000016
    vertex -59.38975932754654 394.93249222551657 6.0
    vertex -59.38975932754654 394.93249222551657 -0.30000000000000016
  endloop
endfacet
facet normal 0.7143146130632766 -0.6998247163142076 0.0
  outer loop
    vertex -56.69633147459652 397.2406761253572 0.7499999999999999
    vertex -57.846042772439006 396.06716001238226 6.0
    vertex -57.846042772439006 396.06716001238226 0.7499999999999999
  endloop
endfacet
facet normal 0.7143146130632766 -0.6998247163142076 0.0
  outer loop
    vertex -57.846042772439006 396.06716001238226 6.0
    vertex -56.69633147459652 397.2406761253572 0.7499999999999999
    vertex -56.69633147459652 397.2406761253572 6.0
  endloop
endfacet
facet normal 0.9685269593643532 -0.24890867599270272 0.0
  outer loop
    vertex -45.77834206158483 391.4343966719573 -0.30000000000000016
    vertex -46.238875078010295 389.6424195931892 6.0
    vertex -46.238875078010295 389.6424195931892 -0.30000000000000016
  endloop
endfacet
facet normal 0.9685269593643532 -0.24890867599270272 0.0
  outer loop
    vertex -46.238875078010295 389.6424195931892 6.0
    vertex -45.77834206158483 391.4343966719573 -0.30000000000000016
    vertex -45.77834206158483 391.4343966719573 6.0
  endloop
endfacet
facet normal 0.9632232890559798 0.2687022430501478 0.0
  outer loop
    vertex -46.29445437141118 395.06667250943207 -0.30000000000000016
    vertex -45.79729912353303 393.2845083280068 6.0
    vertex -45.79729912353303 393.2845083280068 -0.30000000000000016
  endloop
endfacet
facet normal 0.9632232890559798 0.2687022430501478 0.0
  outer loop
    vertex -45.79729912353303 393.2845083280068 6.0
    vertex -46.29445437141118 395.06667250943207 -0.30000000000000016
    vertex -46.29445437141118 395.06667250943207 6.0
  endloop
endfacet
facet normal 0.9999475093454158 0.01024590424996368 0.0
  outer loop
    vertex -59.06177142249089 393.0449128965343 0.7499999999999999
    vertex -59.04493887628587 391.4021430401068 6.0
    vertex -59.04493887628587 391.4021430401068 0.7499999999999999
  endloop
endfacet
facet normal 0.9999475093454158 0.01024590424996368 0.0
  outer loop
    vertex -59.04493887628587 391.4021430401068 6.0
    vertex -59.06177142249089 393.0449128965343 0.7499999999999999
    vertex -59.06177142249089 393.0449128965343 6.0
  endloop
endfacet
facet normal 0.010245904249958688 -0.9999475093454158 0.0
  outer loop
    vertex -51.81726478412452 385.2704378301075 6.0
    vertex -53.66737644017404 385.2514807681593 -0.30000000000000016
    vertex -51.81726478412452 385.2704378301075 -0.30000000000000016
  endloop
endfacet
facet normal 0.010245904249958688 -0.9999475093454158 0.0
  outer loop
    vertex -53.66737644017404 385.2514807681593 -0.30000000000000016
    vertex -51.81726478412452 385.2704378301075 6.0
    vertex -53.66737644017404 385.2514807681593 6.0
  endloop
endfacet
facet normal -0.6998247163142076 -0.7143146130632766 0.0
  outer loop
    vertex -47.86109698677407 396.169470181171 6.0
    vertex -49.034613099749045 397.3191814790135 0.7499999999999999
    vertex -47.86109698677407 396.169470181171 0.7499999999999999
  endloop
endfacet
facet normal -0.6998247163142076 -0.7143146130632766 0.0
  outer loop
    vertex -49.034613099749045 397.3191814790135 0.7499999999999999
    vertex -47.86109698677407 396.169470181171 6.0
    vertex -49.034613099749045 397.3191814790135 6.0
  endloop
endfacet
facet normal -0.2489086759927007 -0.9685269593643538 0.0
  outer loop
    vertex -50.46570980108906 398.1259889946033 6.0
    vertex -52.05686021559698 398.53491012906534 0.7499999999999999
    vertex -50.46570980108906 398.1259889946033 0.7499999999999999
  endloop
endfacet
facet normal -0.2489086759927007 -0.9685269593643538 0.0
  outer loop
    vertex -52.05686021559698 398.53491012906534 0.7499999999999999
    vertex -50.46570980108906 398.1259889946033 6.0
    vertex -52.05686021559698 398.53491012906534 6.0
  endloop
endfacet
facet normal 0.6998247163142081 0.7143146130632763 0.0
  outer loop
    vertex -48.55755866166404 397.9542595033245 6.0
    vertex -47.23592749666421 396.6594376724346 -0.30000000000000016
    vertex -48.55755866166404 397.9542595033245 -0.30000000000000016
  endloop
endfacet
facet normal 0.6998247163142081 0.7143146130632763 0.0
  outer loop
    vertex -47.23592749666421 396.6594376724346 -0.30000000000000016
    vertex -48.55755866166404 397.9542595033245 6.0
    vertex -47.23592749666421 396.6594376724346 6.0
  endloop
endfacet
facet normal -0.9685269593643541 0.24890867599270006 0.0
  outer loop
    vertex -46.56686298306593 391.52999892217144 6.0
    vertex -46.97578411752802 389.9388485076635 0.7499999999999999
    vertex -46.97578411752802 389.9388485076635 6.0
  endloop
endfacet
facet normal -0.9685269593643541 0.24890867599270006 0.0
  outer loop
    vertex -46.97578411752802 389.9388485076635 0.7499999999999999
    vertex -46.56686298306593 391.52999892217144 6.0
    vertex -46.56686298306593 391.52999892217144 0.7499999999999999
  endloop
endfacet
facet normal -0.6998247163142081 -0.7143146130632763 0.0
  outer loop
    vertex -57.071075743892784 386.6206523153812 6.0
    vertex -58.39270690889261 387.9154741462712 -0.30000000000000016
    vertex -57.071075743892784 386.6206523153812 -0.30000000000000016
  endloop
endfacet
facet normal -0.6998247163142081 -0.7143146130632763 0.0
  outer loop
    vertex -58.39270690889261 387.9154741462712 -0.30000000000000016
    vertex -57.071075743892784 386.6206523153812 6.0
    vertex -58.39270690889261 387.9154741462712 6.0
  endloop
endfacet
facet normal 0.7143146130632775 -0.699824716314207 0.0
  outer loop
    vertex -47.14751360880678 388.0306973682385 -0.30000000000000016
    vertex -48.44233543969671 386.70906620323865 6.0
    vertex -48.44233543969671 386.70906620323865 -0.30000000000000016
  endloop
endfacet
facet normal 0.7143146130632775 -0.699824716314207 0.0
  outer loop
    vertex -48.44233543969671 386.70906620323865 6.0
    vertex -47.14751360880678 388.0306973682385 -0.30000000000000016
    vertex -47.14751360880678 388.0306973682385 6.0
  endloop
endfacet
facet normal 0.2687022430501474 -0.9632232890559798 0.0
  outer loop
    vertex -53.699630072024455 398.5180775828603 6.0
    vertex -55.28206731946153 398.07663846619494 0.7499999999999999
    vertex -53.699630072024455 398.5180775828603 0.7499999999999999
  endloop
endfacet
facet normal 0.2687022430501474 -0.9632232890559798 0.0
  outer loop
    vertex -55.28206731946153 398.07663846619494 0.7499999999999999
    vertex -53.699630072024455 398.5180775828603 6.0
    vertex -55.28206731946153 398.07663846619494 6.0
  endloop
endfacet
facet normal 0.010245904249958276 -0.9999475093454158 0.0
  outer loop
    vertex -52.05686021559698 398.53491012906534 6.0
    vertex -53.699630072024455 398.5180775828603 0.7499999999999999
    vertex -52.05686021559698 398.53491012906534 0.7499999999999999
  endloop
endfacet
facet normal 0.010245904249958276 -0.9999475093454158 0.0
  outer loop
    vertex -53.699630072024455 398.5180775828603 0.7499999999999999
    vertex -52.05686021559698 398.53491012906534 6.0
    vertex -53.699630072024455 398.5180775828603 6.0
  endloop
endfacet
facet normal 0.9632232890559798 0.2687022430501474 0.0
  outer loop
    vertex -59.04493887628587 391.4021430401068 0.7499999999999999
    vertex -58.60349975962044 389.81970579266977 6.0
    vertex -58.60349975962044 389.81970579266977 0.7499999999999999
  endloop
endfacet
facet normal 0.9632232890559798 0.2687022430501474 0.0
  outer loop
    vertex -58.60349975962044 389.81970579266977 6.0
    vertex -59.04493887628587 391.4021430401068 0.7499999999999999
    vertex -59.04493887628587 391.4021430401068 6.0
  endloop
endfacet
facet normal 0.4911005413074993 0.8711028976690878 0.0
  outer loop
    vertex -50.169280886614736 398.86289803412103 6.0
    vertex -48.55755866166404 397.9542595033245 -0.30000000000000016
    vertex -50.169280886614736 398.86289803412103 -0.30000000000000016
  endloop
endfacet
facet normal 0.4911005413074993 0.8711028976690878 0.0
  outer loop
    vertex -48.55755866166404 397.9542595033245 -0.30000000000000016
    vertex -50.169280886614736 398.86289803412103 6.0
    vertex -48.55755866166404 397.9542595033245 6.0
  endloop
endfacet
facet normal -0.8711028976690883 0.49110054130749836 0.0
  outer loop
    vertex -58.48112079675005 396.5442144504672 6.0
    vertex -59.38975932754654 394.93249222551657 -0.30000000000000016
    vertex -59.38975932754654 394.93249222551657 6.0
  endloop
endfacet
facet normal -0.8711028976690883 0.49110054130749836 0.0
  outer loop
    vertex -59.38975932754654 394.93249222551657 -0.30000000000000016
    vertex -58.48112079675005 396.5442144504672 6.0
    vertex -58.48112079675005 396.5442144504672 -0.30000000000000016
  endloop
endfacet
facet normal -0.9999475093454158 -0.0102459042499583 0.0
  outer loop
    vertex -46.583695529270955 393.1727687785989 6.0
    vertex -46.56686298306593 391.52999892217144 0.7499999999999999
    vertex -46.56686298306593 391.52999892217144 6.0
  endloop
endfacet
facet normal -0.9999475093454158 -0.0102459042499583 0.0
  outer loop
    vertex -46.56686298306593 391.52999892217144 0.7499999999999999
    vertex -46.583695529270955 393.1727687785989 6.0
    vertex -46.583695529270955 393.1727687785989 0.7499999999999999
  endloop
endfacet
facet normal -0.7143146130632766 0.6998247163142076 0.0
  outer loop
    vertex -47.78259163311782 388.5077518063235 6.0
    vertex -48.93230293096031 387.33423569334855 0.7499999999999999
    vertex -48.93230293096031 387.33423569334855 6.0
  endloop
endfacet
facet normal -0.7143146130632766 0.6998247163142076 0.0
  outer loop
    vertex -48.93230293096031 387.33423569334855 0.7499999999999999
    vertex -47.78259163311782 388.5077518063235 6.0
    vertex -47.78259163311782 388.5077518063235 0.7499999999999999
  endloop
endfacet
facet normal -0.5088469680379171 0.8608569934191269 0.0
  outer loop
    vertex -50.346567086095305 386.49827335251086 6.0
    vertex -48.93230293096031 387.33423569334855 0.7499999999999999
    vertex -50.346567086095305 386.49827335251086 0.7499999999999999
  endloop
endfacet
facet normal -0.5088469680379171 0.8608569934191269 0.0
  outer loop
    vertex -48.93230293096031 387.33423569334855 0.7499999999999999
    vertex -50.346567086095305 386.49827335251086 6.0
    vertex -48.93230293096031 387.33423569334855 6.0
  endloop
endfacet
facet normal 0.6998247163142051 0.7143146130632794 0.0
  outer loop
    vertex -57.767537418782766 388.4054416375348 6.0
    vertex -56.594021305807786 387.25573033969226 0.7499999999999999
    vertex -57.767537418782766 388.4054416375348 0.7499999999999999
  endloop
endfacet
facet normal 0.6998247163142051 0.7143146130632794 0.0
  outer loop
    vertex -56.594021305807786 387.25573033969226 0.7499999999999999
    vertex -57.767537418782766 388.4054416375348 6.0
    vertex -56.594021305807786 387.25573033969226 6.0
  endloop
endfacet
facet normal -0.4911005413075012 -0.8711028976690867 0.0
  outer loop
    vertex -55.45935351894209 385.71201378458477 6.0
    vertex -57.071075743892784 386.6206523153812 -0.30000000000000016
    vertex -55.45935351894209 385.71201378458477 -0.30000000000000016
  endloop
endfacet
facet normal -0.4911005413075012 -0.8711028976690867 0.0
  outer loop
    vertex -57.071075743892784 386.6206523153812 -0.30000000000000016
    vertex -55.45935351894209 385.71201378458477 6.0
    vertex -57.071075743892784 386.6206523153812 6.0
  endloop
endfacet
facet normal -0.714314613063275 0.6998247163142092 0.0
  outer loop
    vertex -57.186298965860125 397.8658456154671 6.0
    vertex -58.48112079675005 396.5442144504672 -0.30000000000000016
    vertex -58.48112079675005 396.5442144504672 6.0
  endloop
endfacet
facet normal -0.714314613063275 0.6998247163142092 0.0
  outer loop
    vertex -58.48112079675005 396.5442144504672 -0.30000000000000016
    vertex -57.186298965860125 397.8658456154671 6.0
    vertex -57.186298965860125 397.8658456154671 -0.30000000000000016
  endloop
endfacet
facet normal 0.5088469680379184 -0.8608569934191262 0.0
  outer loop
    vertex -55.28206731946153 398.07663846619494 6.0
    vertex -56.69633147459652 397.2406761253572 0.7499999999999999
    vertex -55.28206731946153 398.07663846619494 0.7499999999999999
  endloop
endfacet
facet normal 0.5088469680379184 -0.8608569934191262 0.0
  outer loop
    vertex -56.69633147459652 397.2406761253572 0.7499999999999999
    vertex -55.28206731946153 398.07663846619494 6.0
    vertex -56.69633147459652 397.2406761253572 6.0
  endloop
endfacet
facet normal 0.4911005413074971 0.8711028976690891 0.0
  outer loop
    vertex -56.594021305807786 387.25573033969226 6.0
    vertex -55.16292460446776 386.4489228241025 0.7499999999999999
    vertex -56.594021305807786 387.25573033969226 0.7499999999999999
  endloop
endfacet
facet normal 0.4911005413074971 0.8711028976690891 0.0
  outer loop
    vertex -55.16292460446776 386.4489228241025 0.7499999999999999
    vertex -56.594021305807786 387.25573033969226 6.0
    vertex -55.16292460446776 386.4489228241025 6.0
  endloop
endfacet
facet normal -0.9999475093454158 -0.01024590424996111 0.0
  outer loop
    vertex -59.850292343971994 393.14051514674844 6.0
    vertex -59.8313352820238 391.29040349069896 -0.30000000000000016
    vertex -59.8313352820238 391.29040349069896 6.0
  endloop
endfacet
facet normal -0.9999475093454158 -0.01024590424996111 0.0
  outer loop
    vertex -59.8313352820238 391.29040349069896 -0.30000000000000016
    vertex -59.850292343971994 393.14051514674844 6.0
    vertex -59.850292343971994 393.14051514674844 -0.30000000000000016
  endloop
endfacet
facet normal 0.8711028976690876 -0.4911005413074993 0.0
  outer loop
    vertex -57.846042772439006 396.06716001238226 0.7499999999999999
    vertex -58.6528502880288 394.6360633110422 6.0
    vertex -58.6528502880288 394.6360633110422 0.7499999999999999
  endloop
endfacet
facet normal 0.8711028976690876 -0.4911005413074993 0.0
  outer loop
    vertex -58.6528502880288 394.6360633110422 6.0
    vertex -57.846042772439006 396.06716001238226 0.7499999999999999
    vertex -57.846042772439006 396.06716001238226 6.0
  endloop
endfacet
facet normal -0.010245904249961088 0.9999475093454158 0.0
  outer loop
    vertex -53.81136962143234 399.30447398859826 6.0
    vertex -51.961257965382785 399.32343105054645 -0.30000000000000016
    vertex -53.81136962143234 399.30447398859826 -0.30000000000000016
  endloop
endfacet
facet normal -0.010245904249961088 0.9999475093454158 0.0
  outer loop
    vertex -51.961257965382785 399.32343105054645 -0.30000000000000016
    vertex -53.81136962143234 399.30447398859826 6.0
    vertex -51.961257965382785 399.32343105054645 6.0
  endloop
endfacet
facet normal 0.2687022430501471 -0.9632232890559798 0.0
  outer loop
    vertex -50.03510060269921 385.7675930779856 6.0
    vertex -51.81726478412452 385.2704378301075 -0.30000000000000016
    vertex -50.03510060269921 385.7675930779856 -0.30000000000000016
  endloop
endfacet
facet normal 0.2687022430501471 -0.9632232890559798 0.0
  outer loop
    vertex -51.81726478412452 385.2704378301075 -0.30000000000000016
    vertex -50.03510060269921 385.7675930779856 6.0
    vertex -51.81726478412452 385.2704378301075 6.0
  endloop
endfacet
facet normal 0.8608569934191277 0.5088469680379161 0.0
  outer loop
    vertex -58.60349975962044 389.81970579266977 0.7499999999999999
    vertex -57.767537418782766 388.4054416375348 6.0
    vertex -57.767537418782766 388.4054416375348 0.7499999999999999
  endloop
endfacet
facet normal 0.8608569934191277 0.5088469680379161 0.0
  outer loop
    vertex -57.767537418782766 388.4054416375348 6.0
    vertex -58.60349975962044 389.81970579266977 0.7499999999999999
    vertex -58.60349975962044 389.81970579266977 6.0
  endloop
endfacet
endsolid Happy_bees_yeni_altlık_kanalli
