solid Happy_bees_Hx711_kapakli
facet normal 0.8373602150431896 0.5466515071440153 0.0
  outer loop
    vertex 102.47001641197673 90.58326565320625 2.1
    vertex 103.33101528417619 89.26438846846462 7.090059
    vertex 103.33101528417619 89.26438846846462 2.1
  endloop
endfacet
facet normal 0.8373602150431896 0.5466515071440153 0.0
  outer loop
    vertex 103.33101528417619 89.26438846846462 7.090059
    vertex 102.47001641197673 90.58326565320625 2.1
    vertex 102.47001641197673 90.58326565320625 7.090059
  endloop
endfacet
facet normal 0.9786440740002637 -0.2055620987053955 0.0
  outer loop
    vertex 103.9075341012607 86.19492744552456 2.1
    vertex 103.88605041288321 86.09264748024543 7.090059
    vertex 103.88605041288321 86.09264748024543 2.1
  endloop
endfacet
facet normal 0.9786440740002637 -0.2055620987053955 0.0
  outer loop
    vertex 103.88605041288321 86.09264748024543 7.090059
    vertex 103.9075341012607 86.19492744552456 2.1
    vertex 103.9075341012607 86.19492744552456 7.090059
  endloop
endfacet
facet normal 0.9503116787000532 0.3113000374659264 0.0
  outer loop
    vertex 103.33101528417619 89.26438846846462 2.1
    vertex 103.82132579767705 87.76760802808225 7.090059
    vertex 103.82132579767705 87.76760802808225 2.1
  endloop
endfacet
facet normal 0.9503116787000532 0.3113000374659264 0.0
  outer loop
    vertex 103.82132579767705 87.76760802808225 7.090059
    vertex 103.33101528417619 89.26438846846462 2.1
    vertex 103.33101528417619 89.26438846846462 7.090059
  endloop
endfacet
facet normal 0.45184946477379184 0.8920941997253642 0.0
  outer loop
    vertex 99.89191934302592 92.34604199207283 7.090059
    vertex 101.2970048313512 91.63436028171459 2.1
    vertex 99.89191934302592 92.34604199207283 2.1
  endloop
endfacet
facet normal 0.45184946477379184 0.8920941997253642 0.0
  outer loop
    vertex 101.2970048313512 91.63436028171459 2.1
    vertex 99.89191934302592 92.34604199207283 7.090059
    vertex 101.2970048313512 91.63436028171459 7.090059
  endloop
endfacet
facet normal 0.9985009719178106 0.054733984682163866 0.0
  outer loop
    vertex 103.82132579767705 87.76760802808225 2.1
    vertex 103.9075341012607 86.19492744552456 7.090059
    vertex 103.9075341012607 86.19492744552456 2.1
  endloop
endfacet
facet normal 0.9985009719178106 0.054733984682163866 0.0
  outer loop
    vertex 103.9075341012607 86.19492744552456 7.090059
    vertex 103.82132579767705 87.76760802808225 2.1
    vertex 103.82132579767705 87.76760802808225 7.090059
  endloop
endfacet
facet normal 0.54665150714401 -0.8373602150431929 0.0
  outer loop
    vertex 101.82098890263727 82.07542523456452 7.090059
    vertex 100.50211171789563 81.21442636236507 2.1
    vertex 101.82098890263727 82.07542523456452 2.1
  endloop
endfacet
facet normal 0.54665150714401 -0.8373602150431929 0.0
  outer loop
    vertex 100.50211171789563 81.21442636236507 2.1
    vertex 101.82098890263727 82.07542523456452 7.090059
    vertex 100.50211171789563 81.21442636236507 7.090059
  endloop
endfacet
facet normal 0.9786440740002424 -0.20556209870549583 0.0
  outer loop
    vertex 103.88605041288321 86.09264748024543 2.1
    vertex 103.58376524150385 84.65352230351532 7.090059
    vertex 103.58376524150385 84.65352230351532 2.1
  endloop
endfacet
facet normal 0.9786440740002424 -0.20556209870549583 0.0
  outer loop
    vertex 103.58376524150385 84.65352230351532 7.090059
    vertex 103.88605041288321 86.09264748024543 2.1
    vertex 103.88605041288321 86.09264748024543 7.090059
  endloop
endfacet
facet normal 0.6673440365343161 0.744749579994568 0.0
  outer loop
    vertex 101.2970048313512 91.63436028171459 7.090059
    vertex 102.47001641197673 90.58326565320625 2.1
    vertex 101.2970048313512 91.63436028171459 2.1
  endloop
endfacet
facet normal 0.6673440365343161 0.744749579994568 0.0
  outer loop
    vertex 102.47001641197673 90.58326565320625 2.1
    vertex 101.2970048313512 91.63436028171459 7.090059
    vertex 102.47001641197673 90.58326565320625 7.090059
  endloop
endfacet
facet normal 0.744749579994568 -0.6673440365343161 0.0
  outer loop
    vertex 102.87208353114562 83.24843681519003 2.1
    vertex 101.82098890263727 82.07542523456452 7.090059
    vertex 101.82098890263727 82.07542523456452 2.1
  endloop
endfacet
facet normal 0.744749579994568 -0.6673440365343161 0.0
  outer loop
    vertex 101.82098890263727 82.07542523456452 7.090059
    vertex 102.87208353114562 83.24843681519003 2.1
    vertex 102.87208353114562 83.24843681519003 7.090059
  endloop
endfacet
facet normal 0.8920941997253642 -0.45184946477379184 0.0
  outer loop
    vertex 103.58376524150385 84.65352230351532 2.1
    vertex 102.87208353114562 83.24843681519003 7.090059
    vertex 102.87208353114562 83.24843681519003 2.1
  endloop
endfacet
facet normal 0.8920941997253642 -0.45184946477379184 0.0
  outer loop
    vertex 102.87208353114562 83.24843681519003 7.090059
    vertex 103.58376524150385 84.65352230351532 2.1
    vertex 103.58376524150385 84.65352230351532 7.090059
  endloop
endfacet
facet normal -0.9786440740002588 0.2055620987054183 0.0
  outer loop
    vertex 91.89711448308908 87.21507091686478 7.090059
    vertex 91.87563079471158 87.11279095158565 2.1
    vertex 91.87563079471158 87.11279095158565 7.090059
  endloop
endfacet
facet normal -0.9786440740002588 0.2055620987054183 0.0
  outer loop
    vertex 91.87563079471158 87.11279095158565 2.1
    vertex 91.89711448308908 87.21507091686478 7.090059
    vertex 91.89711448308908 87.21507091686478 2.1
  endloop
endfacet
facet normal -0.8373602150431896 -0.5466515071440153 0.0
  outer loop
    vertex 92.4521496117961 84.04332992864563 7.090059
    vertex 93.31314848399555 82.72445274390398 2.1
    vertex 93.31314848399555 82.72445274390398 7.090059
  endloop
endfacet
facet normal -0.8373602150431896 -0.5466515071440153 0.0
  outer loop
    vertex 93.31314848399555 82.72445274390398 2.1
    vertex 92.4521496117961 84.04332992864563 7.090059
    vertex 92.4521496117961 84.04332992864563 2.1
  endloop
endfacet
facet normal -0.6673440365343161 -0.744749579994568 0.0
  outer loop
    vertex 94.48616006462107 81.67335811539562 7.090059
    vertex 93.31314848399555 82.72445274390398 2.1
    vertex 94.48616006462107 81.67335811539562 2.1
  endloop
endfacet
facet normal -0.6673440365343161 -0.744749579994568 0.0
  outer loop
    vertex 93.31314848399555 82.72445274390398 2.1
    vertex 94.48616006462107 81.67335811539562 7.090059
    vertex 93.31314848399555 82.72445274390398 7.090059
  endloop
endfacet
facet normal -0.9503116787000532 -0.3113000374659264 0.0
  outer loop
    vertex 91.96183909829521 85.540110369028 7.090059
    vertex 92.4521496117961 84.04332992864563 2.1
    vertex 92.4521496117961 84.04332992864563 7.090059
  endloop
endfacet
facet normal -0.9503116787000532 -0.3113000374659264 0.0
  outer loop
    vertex 92.4521496117961 84.04332992864563 2.1
    vertex 91.96183909829521 85.540110369028 7.090059
    vertex 91.96183909829521 85.540110369028 2.1
  endloop
endfacet
facet normal -0.9786440740002429 0.20556209870549427 0.0
  outer loop
    vertex 92.19939965446844 88.6541960935949 7.090059
    vertex 91.89711448308908 87.21507091686478 2.1
    vertex 91.89711448308908 87.21507091686478 7.090059
  endloop
endfacet
facet normal -0.9786440740002429 0.20556209870549427 0.0
  outer loop
    vertex 91.89711448308908 87.21507091686478 2.1
    vertex 92.19939965446844 88.6541960935949 7.090059
    vertex 92.19939965446844 88.6541960935949 2.1
  endloop
endfacet
facet normal -0.20556209870548045 -0.9786440740002456 0.0
  outer loop
    vertex 97.33037072967646 80.65939123365806 7.090059
    vertex 95.89124555294634 80.9616764050374 2.1
    vertex 97.33037072967646 80.65939123365806 2.1
  endloop
endfacet
facet normal -0.20556209870548045 -0.9786440740002456 0.0
  outer loop
    vertex 95.89124555294634 80.9616764050374 2.1
    vertex 97.33037072967646 80.65939123365806 7.090059
    vertex 95.89124555294634 80.9616764050374 7.090059
  endloop
endfacet
facet normal 0.054733984682170535 -0.9985009719178105 0.0
  outer loop
    vertex 99.00533127751328 80.7241158488642 7.090059
    vertex 97.43265069495557 80.63790754528054 2.1
    vertex 99.00533127751328 80.7241158488642 2.1
  endloop
endfacet
facet normal 0.054733984682170535 -0.9985009719178105 0.0
  outer loop
    vertex 97.43265069495557 80.63790754528054 2.1
    vertex 99.00533127751328 80.7241158488642 7.090059
    vertex 97.43265069495557 80.63790754528054 7.090059
  endloop
endfacet
facet normal -0.9985009719178106 -0.054733984682163866 0.0
  outer loop
    vertex 91.87563079471158 87.11279095158565 7.090059
    vertex 91.96183909829521 85.540110369028 2.1
    vertex 91.96183909829521 85.540110369028 7.090059
  endloop
endfacet
facet normal -0.9985009719178106 -0.054733984682163866 0.0
  outer loop
    vertex 91.96183909829521 85.540110369028 2.1
    vertex 91.87563079471158 87.11279095158565 7.090059
    vertex 91.87563079471158 87.11279095158565 2.1
  endloop
endfacet
facet normal -0.20556209870552677 -0.9786440740002359 0.0
  outer loop
    vertex 97.43265069495557 80.63790754528054 7.090059
    vertex 97.33037072967646 80.65939123365806 2.1
    vertex 97.43265069495557 80.63790754528054 2.1
  endloop
endfacet
facet normal -0.20556209870552677 -0.9786440740002359 0.0
  outer loop
    vertex 97.33037072967646 80.65939123365806 2.1
    vertex 97.43265069495557 80.63790754528054 7.090059
    vertex 97.33037072967646 80.65939123365806 7.090059
  endloop
endfacet
facet normal -0.45184946477379767 -0.8920941997253612 0.0
  outer loop
    vertex 95.89124555294634 80.9616764050374 7.090059
    vertex 94.48616006462107 81.67335811539562 2.1
    vertex 95.89124555294634 80.9616764050374 2.1
  endloop
endfacet
facet normal -0.45184946477379767 -0.8920941997253612 0.0
  outer loop
    vertex 94.48616006462107 81.67335811539562 2.1
    vertex 95.89124555294634 80.9616764050374 7.090059
    vertex 94.48616006462107 81.67335811539562 7.090059
  endloop
endfacet
facet normal 0.31130003746592844 -0.9503116787000523 0.0
  outer loop
    vertex 100.50211171789563 81.21442636236507 7.090059
    vertex 99.00533127751328 80.7241158488642 2.1
    vertex 100.50211171789563 81.21442636236507 2.1
  endloop
endfacet
facet normal 0.31130003746592844 -0.9503116787000523 0.0
  outer loop
    vertex 99.00533127751328 80.7241158488642 2.1
    vertex 100.50211171789563 81.21442636236507 7.090059
    vertex 99.00533127751328 80.7241158488642 7.090059
  endloop
endfacet
facet normal 0.20556209870552677 0.9786440740002359 0.0
  outer loop
    vertex 98.3505142010167 92.66981085182967 7.090059
    vertex 98.45279416629582 92.64832716345218 2.1
    vertex 98.3505142010167 92.66981085182967 2.1
  endloop
endfacet
facet normal 0.20556209870552677 0.9786440740002359 0.0
  outer loop
    vertex 98.45279416629582 92.64832716345218 2.1
    vertex 98.3505142010167 92.66981085182967 7.090059
    vertex 98.45279416629582 92.64832716345218 7.090059
  endloop
endfacet
facet normal -0.31130003746592405 0.9503116787000538 0.0
  outer loop
    vertex 95.28105317807666 92.09329203474516 7.090059
    vertex 96.77783361845904 92.583602548246 2.1
    vertex 95.28105317807666 92.09329203474516 2.1
  endloop
endfacet
facet normal -0.31130003746592405 0.9503116787000538 0.0
  outer loop
    vertex 96.77783361845904 92.583602548246 2.1
    vertex 95.28105317807666 92.09329203474516 7.090059
    vertex 96.77783361845904 92.583602548246 7.090059
  endloop
endfacet
facet normal -0.05473398468217137 0.9985009719178105 0.0
  outer loop
    vertex 96.77783361845904 92.583602548246 7.090059
    vertex 98.3505142010167 92.66981085182967 2.1
    vertex 96.77783361845904 92.583602548246 2.1
  endloop
endfacet
facet normal -0.05473398468217137 0.9985009719178105 0.0
  outer loop
    vertex 98.3505142010167 92.66981085182967 2.1
    vertex 96.77783361845904 92.583602548246 7.090059
    vertex 98.3505142010167 92.66981085182967 7.090059
  endloop
endfacet
facet normal -0.8920941997253642 0.45184946477379184 0.0
  outer loop
    vertex 92.91108136482664 90.05928158192017 7.090059
    vertex 92.19939965446844 88.6541960935949 2.1
    vertex 92.19939965446844 88.6541960935949 7.090059
  endloop
endfacet
facet normal -0.8920941997253642 0.45184946477379184 0.0
  outer loop
    vertex 92.19939965446844 88.6541960935949 2.1
    vertex 92.91108136482664 90.05928158192017 7.090059
    vertex 92.91108136482664 90.05928158192017 2.1
  endloop
endfacet
facet normal -0.5466515071440153 0.8373602150431896 0.0
  outer loop
    vertex 93.96217599333501 91.23229316254572 7.090059
    vertex 95.28105317807666 92.09329203474516 2.1
    vertex 93.96217599333501 91.23229316254572 2.1
  endloop
endfacet
facet normal -0.5466515071440153 0.8373602150431896 0.0
  outer loop
    vertex 95.28105317807666 92.09329203474516 2.1
    vertex 93.96217599333501 91.23229316254572 7.090059
    vertex 95.28105317807666 92.09329203474516 7.090059
  endloop
endfacet
facet normal 0.20556209870548814 0.9786440740002441 0.0
  outer loop
    vertex 98.45279416629582 92.64832716345218 7.090059
    vertex 99.89191934302592 92.34604199207283 2.1
    vertex 98.45279416629582 92.64832716345218 2.1
  endloop
endfacet
facet normal 0.20556209870548814 0.9786440740002441 0.0
  outer loop
    vertex 99.89191934302592 92.34604199207283 2.1
    vertex 98.45279416629582 92.64832716345218 7.090059
    vertex 99.89191934302592 92.34604199207283 7.090059
  endloop
endfacet
facet normal -0.7447495799945646 0.6673440365343197 0.0
  outer loop
    vertex 93.96217599333501 91.23229316254572 7.090059
    vertex 92.91108136482664 90.05928158192017 2.1
    vertex 92.91108136482664 90.05928158192017 7.090059
  endloop
endfacet
facet normal -0.7447495799945646 0.6673440365343197 0.0
  outer loop
    vertex 92.91108136482664 90.05928158192017 2.1
    vertex 93.96217599333501 91.23229316254572 7.090059
    vertex 93.96217599333501 91.23229316254572 2.1
  endloop
endfacet
facet normal 0.0 0.0 1.0
  outer loop
    vertex 91.96183909829521 85.540110369028 7.090059
    vertex 91.89711448308908 87.21507091686478 7.090059
    vertex 91.87563079471158 87.11279095158565 7.090059
  endloop
endfacet
facet normal 0.0 0.0 1.0
  outer loop
    vertex 91.89711448308908 87.21507091686478 7.090059
    vertex 91.96183909829521 85.540110369028 7.090059
    vertex 92.19939965446844 88.6541960935949 7.090059
  endloop
endfacet
facet normal 0.0 0.0 1.0
  outer loop
    vertex 92.19939965446844 88.6541960935949 7.090059
    vertex 91.96183909829521 85.540110369028 7.090059
    vertex 92.4521496117961 84.04332992864563 7.090059
  endloop
endfacet
facet normal 0.0 0.0 1.0
  outer loop
    vertex 92.19939965446844 88.6541960935949 7.090059
    vertex 92.4521496117961 84.04332992864563 7.090059
    vertex 92.91108136482664 90.05928158192017 7.090059
  endloop
endfacet
facet normal 0.0 0.0 1.0
  outer loop
    vertex 92.91108136482664 90.05928158192017 7.090059
    vertex 92.4521496117961 84.04332992864563 7.090059
    vertex 93.31314848399555 82.72445274390398 7.090059
  endloop
endfacet
facet normal 0.0 0.0 1.0
  outer loop
    vertex 92.91108136482664 90.05928158192017 7.090059
    vertex 93.31314848399555 82.72445274390398 7.090059
    vertex 93.96217599333501 91.23229316254572 7.090059
  endloop
endfacet
facet normal 0.0 0.0 1.0
  outer loop
    vertex 93.96217599333501 91.23229316254572 7.090059
    vertex 93.31314848399555 82.72445274390398 7.090059
    vertex 94.48616006462107 81.67335811539562 7.090059
  endloop
endfacet
facet normal 0.0 0.0 1.0
  outer loop
    vertex 93.96217599333501 91.23229316254572 7.090059
    vertex 94.48616006462107 81.67335811539562 7.090059
    vertex 95.28105317807666 92.09329203474516 7.090059
  endloop
endfacet
facet normal 0.0 0.0 1.0
  outer loop
    vertex 95.28105317807666 92.09329203474516 7.090059
    vertex 94.48616006462107 81.67335811539562 7.090059
    vertex 95.89124555294634 80.9616764050374 7.090059
  endloop
endfacet
facet normal 0.0 0.0 1.0
  outer loop
    vertex 95.28105317807666 92.09329203474516 7.090059
    vertex 95.89124555294634 80.9616764050374 7.090059
    vertex 96.77783361845904 92.583602548246 7.090059
  endloop
endfacet
facet normal 0.0 0.0 1.0
  outer loop
    vertex 96.77783361845904 92.583602548246 7.090059
    vertex 95.89124555294634 80.9616764050374 7.090059
    vertex 97.33037072967646 80.65939123365806 7.090059
  endloop
endfacet
facet normal 0.0 0.0 1.0
  outer loop
    vertex 96.77783361845904 92.583602548246 7.090059
    vertex 97.33037072967646 80.65939123365806 7.090059
    vertex 98.3505142010167 92.66981085182967 7.090059
  endloop
endfacet
facet normal 0.0 0.0 1.0
  outer loop
    vertex 98.3505142010167 92.66981085182967 7.090059
    vertex 97.33037072967646 80.65939123365806 7.090059
    vertex 97.43265069495557 80.63790754528054 7.090059
  endloop
endfacet
facet normal 0.0 0.0 1.0
  outer loop
    vertex 98.3505142010167 92.66981085182967 7.090059
    vertex 97.43265069495557 80.63790754528054 7.090059
    vertex 99.00533127751328 80.7241158488642 7.090059
  endloop
endfacet
facet normal 0.0 0.0 1.0
  outer loop
    vertex 98.3505142010167 92.66981085182967 7.090059
    vertex 99.00533127751328 80.7241158488642 7.090059
    vertex 98.45279416629582 92.64832716345218 7.090059
  endloop
endfacet
facet normal 0.0 0.0 1.0
  outer loop
    vertex 98.45279416629582 92.64832716345218 7.090059
    vertex 99.00533127751328 80.7241158488642 7.090059
    vertex 99.89191934302592 92.34604199207283 7.090059
  endloop
endfacet
facet normal 0.0 0.0 1.0
  outer loop
    vertex 99.89191934302592 92.34604199207283 7.090059
    vertex 99.00533127751328 80.7241158488642 7.090059
    vertex 100.50211171789563 81.21442636236507 7.090059
  endloop
endfacet
facet normal 0.0 0.0 1.0
  outer loop
    vertex 99.89191934302592 92.34604199207283 7.090059
    vertex 100.50211171789563 81.21442636236507 7.090059
    vertex 101.2970048313512 91.63436028171459 7.090059
  endloop
endfacet
facet normal 0.0 0.0 1.0
  outer loop
    vertex 101.2970048313512 91.63436028171459 7.090059
    vertex 100.50211171789563 81.21442636236507 7.090059
    vertex 101.82098890263727 82.07542523456452 7.090059
  endloop
endfacet
facet normal 0.0 0.0 1.0
  outer loop
    vertex 101.2970048313512 91.63436028171459 7.090059
    vertex 101.82098890263727 82.07542523456452 7.090059
    vertex 102.47001641197673 90.58326565320625 7.090059
  endloop
endfacet
facet normal 0.0 0.0 1.0
  outer loop
    vertex 102.47001641197673 90.58326565320625 7.090059
    vertex 101.82098890263727 82.07542523456452 7.090059
    vertex 102.87208353114562 83.24843681519003 7.090059
  endloop
endfacet
facet normal 0.0 0.0 1.0
  outer loop
    vertex 102.47001641197673 90.58326565320625 7.090059
    vertex 102.87208353114562 83.24843681519003 7.090059
    vertex 103.33101528417619 89.26438846846462 7.090059
  endloop
endfacet
facet normal 0.0 0.0 1.0
  outer loop
    vertex 103.33101528417619 89.26438846846462 7.090059
    vertex 102.87208353114562 83.24843681519003 7.090059
    vertex 103.58376524150385 84.65352230351532 7.090059
  endloop
endfacet
facet normal 0.0 0.0 1.0
  outer loop
    vertex 103.33101528417619 89.26438846846462 7.090059
    vertex 103.58376524150385 84.65352230351532 7.090059
    vertex 103.82132579767705 87.76760802808225 7.090059
  endloop
endfacet
facet normal 0.0 0.0 1.0
  outer loop
    vertex 103.82132579767705 87.76760802808225 7.090059
    vertex 103.58376524150385 84.65352230351532 7.090059
    vertex 103.88605041288321 86.09264748024543 7.090059
  endloop
endfacet
facet normal 0.0 0.0 1.0
  outer loop
    vertex 103.82132579767705 87.76760802808225 7.090059
    vertex 103.88605041288321 86.09264748024543 7.090059
    vertex 103.9075341012607 86.19492744552456 7.090059
  endloop
endfacet
facet normal 0.9555285000635685 0.2948987717272945 0.0
  outer loop
    vertex 105.04886918220863 89.93850097569349 0.0
    vertex 105.65511839899058 87.97413740312467 2.1
    vertex 105.65511839899058 87.97413740312467 0.0
  endloop
endfacet
facet normal 0.9555285000635685 0.2948987717272945 0.0
  outer loop
    vertex 105.65511839899058 87.97413740312467 2.1
    vertex 105.04886918220863 89.93850097569349 0.0
    vertex 105.04886918220863 89.93850097569349 2.1
  endloop
endfacet
facet normal 0.9749613409587383 -0.222374422171118 0.0
  outer loop
    vertex 105.73229547056135 85.91979905277735 0.0
    vertex 105.27514090703457 83.91548568827305 2.1
    vertex 105.27514090703457 83.91548568827305 0.0
  endloop
endfacet
facet normal 0.9749613409587383 -0.222374422171118 0.0
  outer loop
    vertex 105.27514090703457 83.91548568827305 2.1
    vertex 105.73229547056135 85.91979905277735 0.0
    vertex 105.73229547056135 85.91979905277735 2.1
  endloop
endfacet
facet normal 0.0 0.0 -1.0
  outer loop
    vertex 90.50802398893771 89.3922327088372 0.0
    vertex 90.12804649698167 85.33358099398555 0.0
    vertex 90.05086942541091 87.38791934433287 0.0
  endloop
endfacet
facet normal 0.0 0.0 -1.0
  outer loop
    vertex 90.12804649698167 85.33358099398555 0.0
    vertex 90.50802398893771 89.3922327088372 0.0
    vertex 90.73429571376364 83.36921742141675 0.0
  endloop
endfacet
facet normal 0.0 0.0 -1.0
  outer loop
    vertex 90.73429571376364 83.36921742141675 0.0
    vertex 90.50802398893771 89.3922327088372 0.0
    vertex 91.4683558595414 91.20993044399198 0.0
  endloop
endfacet
facet normal 0.0 0.0 -1.0
  outer loop
    vertex 90.73429571376364 83.36921742141675 0.0
    vertex 91.4683558595414 91.20993044399198 0.0
    vertex 91.82830219350728 81.62869675783274 0.0
  endloop
endfacet
facet normal 0.0 0.0 -1.0
  outer loop
    vertex 91.82830219350728 81.62869675783274 0.0
    vertex 91.4683558595414 91.20993044399198 0.0
    vertex 92.86642000726378 92.71713945303398 0.0
  endloop
endfacet
facet normal 0.0 0.0 -1.0
  outer loop
    vertex 91.82830219350728 81.62869675783274 0.0
    vertex 92.86642000726378 92.71713945303398 0.0
    vertex 93.33551120254928 80.23063261011036 0.0
  endloop
endfacet
facet normal 0.0 0.0 -1.0
  outer loop
    vertex 93.33551120254928 80.23063261011036 0.0
    vertex 92.86642000726378 92.71713945303398 0.0
    vertex 94.60694067084778 93.81114593277759 0.0
  endloop
endfacet
facet normal 0.0 0.0 -1.0
  outer loop
    vertex 93.33551120254928 80.23063261011036 0.0
    vertex 94.60694067084778 93.81114593277759 0.0
    vertex 95.15320893770408 79.27030073950668 0.0
  endloop
endfacet
facet normal 0.0 0.0 -1.0
  outer loop
    vertex 95.15320893770408 79.27030073950668 0.0
    vertex 94.60694067084778 93.81114593277759 0.0
    vertex 96.57130424341658 94.41739514955957 0.0
  endloop
endfacet
facet normal 0.0 0.0 -1.0
  outer loop
    vertex 95.15320893770408 79.27030073950668 0.0
    vertex 96.57130424341658 94.41739514955957 0.0
    vertex 97.15752230220838 78.81314617597988 0.0
  endloop
endfacet
facet normal 0.0 0.0 -1.0
  outer loop
    vertex 97.15752230220838 78.81314617597988 0.0
    vertex 96.57130424341658 94.41739514955957 0.0
    vertex 98.6256425937639 94.49457222113033 0.0
  endloop
endfacet
facet normal 0.0 0.0 -1.0
  outer loop
    vertex 97.15752230220838 78.81314617597988 0.0
    vertex 98.6256425937639 94.49457222113033 0.0
    vertex 99.2118606525557 78.89032324755064 0.0
  endloop
endfacet
facet normal 0.0 0.0 -1.0
  outer loop
    vertex 99.2118606525557 78.89032324755064 0.0
    vertex 98.6256425937639 94.49457222113033 0.0
    vertex 100.6299559582682 94.03741765760353 0.0
  endloop
endfacet
facet normal 0.0 0.0 -1.0
  outer loop
    vertex 99.2118606525557 78.89032324755064 0.0
    vertex 100.6299559582682 94.03741765760353 0.0
    vertex 101.1762242251245 79.49657246433262 0.0
  endloop
endfacet
facet normal 0.0 0.0 -1.0
  outer loop
    vertex 101.1762242251245 79.49657246433262 0.0
    vertex 100.6299559582682 94.03741765760353 0.0
    vertex 102.44765369342302 93.07708578699983 0.0
  endloop
endfacet
facet normal 0.0 0.0 -1.0
  outer loop
    vertex 101.1762242251245 79.49657246433262 0.0
    vertex 102.44765369342302 93.07708578699983 0.0
    vertex 102.9167448887085 80.59057894407626 0.0
  endloop
endfacet
facet normal 0.0 0.0 -1.0
  outer loop
    vertex 102.9167448887085 80.59057894407626 0.0
    vertex 102.44765369342302 93.07708578699983 0.0
    vertex 103.954862702465 91.6790216392775 0.0
  endloop
endfacet
facet normal 0.0 0.0 -1.0
  outer loop
    vertex 102.9167448887085 80.59057894407626 0.0
    vertex 103.954862702465 91.6790216392775 0.0
    vertex 104.31480903643087 82.09778795311824 0.0
  endloop
endfacet
facet normal 0.0 0.0 -1.0
  outer loop
    vertex 104.31480903643087 82.09778795311824 0.0
    vertex 103.954862702465 91.6790216392775 0.0
    vertex 105.04886918220863 89.93850097569349 0.0
  endloop
endfacet
facet normal 0.0 0.0 -1.0
  outer loop
    vertex 104.31480903643087 82.09778795311824 0.0
    vertex 105.04886918220863 89.93850097569349 0.0
    vertex 105.27514090703457 83.91548568827305 0.0
  endloop
endfacet
facet normal 0.0 0.0 -1.0
  outer loop
    vertex 105.27514090703457 83.91548568827305 0.0
    vertex 105.04886918220863 89.93850097569349 0.0
    vertex 105.65511839899058 87.97413740312467 0.0
  endloop
endfacet
facet normal 0.0 0.0 -1.0
  outer loop
    vertex 105.27514090703457 83.91548568827305 0.0
    vertex 105.65511839899058 87.97413740312467 0.0
    vertex 105.73229547056135 85.91979905277735 0.0
  endloop
endfacet
facet normal 0.9992950744670214 0.03754136579761184 0.0
  outer loop
    vertex 105.65511839899058 87.97413740312467 0.0
    vertex 105.73229547056135 85.91979905277735 2.1
    vertex 105.73229547056135 85.91979905277735 0.0
  endloop
endfacet
facet normal 0.9992950744670214 0.03754136579761184 0.0
  outer loop
    vertex 105.73229547056135 85.91979905277735 2.1
    vertex 105.65511839899058 87.97413740312467 0.0
    vertex 105.65511839899058 87.97413740312467 2.1
  endloop
endfacet
facet normal -0.9992950744670214 -0.03754136579761205 0.0
  outer loop
    vertex 90.05086942541091 87.38791934433287 2.1
    vertex 90.12804649698167 85.33358099398555 0.0
    vertex 90.12804649698167 85.33358099398555 2.1
  endloop
endfacet
facet normal -0.9992950744670214 -0.03754136579761205 0.0
  outer loop
    vertex 90.12804649698167 85.33358099398555 0.0
    vertex 90.05086942541091 87.38791934433287 2.1
    vertex 90.05086942541091 87.38791934433287 0.0
  endloop
endfacet
facet normal 0.03754136579761758 -0.9992950744670211 0.0
  outer loop
    vertex 99.2118606525557 78.89032324755064 2.1
    vertex 97.15752230220838 78.81314617597988 0.0
    vertex 99.2118606525557 78.89032324755064 0.0
  endloop
endfacet
facet normal 0.03754136579761758 -0.9992950744670211 0.0
  outer loop
    vertex 97.15752230220838 78.81314617597988 0.0
    vertex 99.2118606525557 78.89032324755064 2.1
    vertex 97.15752230220838 78.81314617597988 2.1
  endloop
endfacet
facet normal 0.5321593137070133 -0.8466442374662928 0.0
  outer loop
    vertex 102.9167448887085 80.59057894407626 2.1
    vertex 101.1762242251245 79.49657246433262 0.0
    vertex 102.9167448887085 80.59057894407626 0.0
  endloop
endfacet
facet normal 0.5321593137070133 -0.8466442374662928 0.0
  outer loop
    vertex 101.1762242251245 79.49657246433262 0.0
    vertex 102.9167448887085 80.59057894407626 2.1
    vertex 101.1762242251245 79.49657246433262 2.1
  endloop
endfacet
facet normal -0.8466442374662945 -0.5321593137070108 0.0
  outer loop
    vertex 90.73429571376364 83.36921742141675 2.1
    vertex 91.82830219350728 81.62869675783274 0.0
    vertex 91.82830219350728 81.62869675783274 2.1
  endloop
endfacet
facet normal -0.8466442374662945 -0.5321593137070108 0.0
  outer loop
    vertex 91.82830219350728 81.62869675783274 0.0
    vertex 90.73429571376364 83.36921742141675 2.1
    vertex 90.73429571376364 83.36921742141675 0.0
  endloop
endfacet
facet normal 0.0 0.0 1.0
  outer loop
    vertex 91.82830219350728 81.62869675783274 2.1
    vertex 91.96183909829521 85.540110369028 2.1
    vertex 91.87563079471158 87.11279095158565 2.1
  endloop
endfacet
facet normal 0.0 0.0 1.0
  outer loop
    vertex 91.96183909829521 85.540110369028 2.1
    vertex 91.82830219350728 81.62869675783274 2.1
    vertex 93.33551120254928 80.23063261011036 2.1
  endloop
endfacet
facet normal 0.0 0.0 1.0
  outer loop
    vertex 91.96183909829521 85.540110369028 2.1
    vertex 93.33551120254928 80.23063261011036 2.1
    vertex 92.4521496117961 84.04332992864563 2.1
  endloop
endfacet
facet normal 0.0 0.0 1.0
  outer loop
    vertex 92.4521496117961 84.04332992864563 2.1
    vertex 93.33551120254928 80.23063261011036 2.1
    vertex 93.31314848399555 82.72445274390398 2.1
  endloop
endfacet
facet normal 0.0 0.0 1.0
  outer loop
    vertex 93.31314848399555 82.72445274390398 2.1
    vertex 93.33551120254928 80.23063261011036 2.1
    vertex 94.48616006462107 81.67335811539562 2.1
  endloop
endfacet
facet normal 0.0 0.0 1.0
  outer loop
    vertex 94.48616006462107 81.67335811539562 2.1
    vertex 93.33551120254928 80.23063261011036 2.1
    vertex 95.15320893770408 79.27030073950668 2.1
  endloop
endfacet
facet normal 0.0 0.0 1.0
  outer loop
    vertex 94.48616006462107 81.67335811539562 2.1
    vertex 95.15320893770408 79.27030073950668 2.1
    vertex 95.89124555294634 80.9616764050374 2.1
  endloop
endfacet
facet normal 0.0 0.0 1.0
  outer loop
    vertex 95.89124555294634 80.9616764050374 2.1
    vertex 95.15320893770408 79.27030073950668 2.1
    vertex 97.15752230220838 78.81314617597988 2.1
  endloop
endfacet
facet normal 0.0 0.0 1.0
  outer loop
    vertex 95.89124555294634 80.9616764050374 2.1
    vertex 97.15752230220838 78.81314617597988 2.1
    vertex 97.33037072967646 80.65939123365806 2.1
  endloop
endfacet
facet normal 0.0 0.0 1.0
  outer loop
    vertex 97.33037072967646 80.65939123365806 2.1
    vertex 97.15752230220838 78.81314617597988 2.1
    vertex 99.2118606525557 78.89032324755064 2.1
  endloop
endfacet
facet normal 0.0 0.0 1.0
  outer loop
    vertex 97.33037072967646 80.65939123365806 2.1
    vertex 99.2118606525557 78.89032324755064 2.1
    vertex 97.43265069495557 80.63790754528054 2.1
  endloop
endfacet
facet normal 0.0 0.0 1.0
  outer loop
    vertex 97.43265069495557 80.63790754528054 2.1
    vertex 99.2118606525557 78.89032324755064 2.1
    vertex 99.00533127751328 80.7241158488642 2.1
  endloop
endfacet
facet normal 0.0 0.0 1.0
  outer loop
    vertex 99.00533127751328 80.7241158488642 2.1
    vertex 99.2118606525557 78.89032324755064 2.1
    vertex 100.50211171789563 81.21442636236507 2.1
  endloop
endfacet
facet normal 0.0 0.0 1.0
  outer loop
    vertex 100.50211171789563 81.21442636236507 2.1
    vertex 99.2118606525557 78.89032324755064 2.1
    vertex 101.1762242251245 79.49657246433262 2.1
  endloop
endfacet
facet normal 0.0 0.0 1.0
  outer loop
    vertex 100.50211171789563 81.21442636236507 2.1
    vertex 101.1762242251245 79.49657246433262 2.1
    vertex 101.82098890263727 82.07542523456452 2.1
  endloop
endfacet
facet normal 0.0 0.0 1.0
  outer loop
    vertex 101.82098890263727 82.07542523456452 2.1
    vertex 101.1762242251245 79.49657246433262 2.1
    vertex 102.9167448887085 80.59057894407626 2.1
  endloop
endfacet
facet normal 0.0 0.0 1.0
  outer loop
    vertex 101.82098890263727 82.07542523456452 2.1
    vertex 102.9167448887085 80.59057894407626 2.1
    vertex 102.87208353114562 83.24843681519003 2.1
  endloop
endfacet
facet normal 0.0 0.0 1.0
  outer loop
    vertex 102.87208353114562 83.24843681519003 2.1
    vertex 102.9167448887085 80.59057894407626 2.1
    vertex 103.58376524150385 84.65352230351532 2.1
  endloop
endfacet
facet normal 0.0 0.0 1.0
  outer loop
    vertex 103.58376524150385 84.65352230351532 2.1
    vertex 102.9167448887085 80.59057894407626 2.1
    vertex 104.31480903643087 82.09778795311824 2.1
  endloop
endfacet
facet normal 0.0 0.0 1.0
  outer loop
    vertex 103.58376524150385 84.65352230351532 2.1
    vertex 104.31480903643087 82.09778795311824 2.1
    vertex 103.88605041288321 86.09264748024543 2.1
  endloop
endfacet
facet normal 0.0 0.0 1.0
  outer loop
    vertex 103.88605041288321 86.09264748024543 2.1
    vertex 104.31480903643087 82.09778795311824 2.1
    vertex 103.9075341012607 86.19492744552456 2.1
  endloop
endfacet
facet normal 0.0 0.0 1.0
  outer loop
    vertex 103.9075341012607 86.19492744552456 2.1
    vertex 104.31480903643087 82.09778795311824 2.1
    vertex 103.954862702465 91.6790216392775 2.1
  endloop
endfacet
facet normal 0.0 0.0 1.0
  outer loop
    vertex 103.954862702465 91.6790216392775 2.1
    vertex 104.31480903643087 82.09778795311824 2.1
    vertex 105.04886918220863 89.93850097569349 2.1
  endloop
endfacet
facet normal 0.0 0.0 1.0
  outer loop
    vertex 105.04886918220863 89.93850097569349 2.1
    vertex 104.31480903643087 82.09778795311824 2.1
    vertex 105.27514090703457 83.91548568827305 2.1
  endloop
endfacet
facet normal 0.0 0.0 1.0
  outer loop
    vertex 105.04886918220863 89.93850097569349 2.1
    vertex 105.27514090703457 83.91548568827305 2.1
    vertex 105.65511839899058 87.97413740312467 2.1
  endloop
endfacet
facet normal 0.0 0.0 1.0
  outer loop
    vertex 105.65511839899058 87.97413740312467 2.1
    vertex 105.27514090703457 83.91548568827305 2.1
    vertex 105.73229547056135 85.91979905277735 2.1
  endloop
endfacet
facet normal 0.0 0.0 1.0
  outer loop
    vertex 90.12804649698167 85.33358099398555 2.1
    vertex 90.50802398893771 89.3922327088372 2.1
    vertex 90.05086942541091 87.38791934433287 2.1
  endloop
endfacet
facet normal 0.0 0.0 1.0
  outer loop
    vertex 90.50802398893771 89.3922327088372 2.1
    vertex 90.12804649698167 85.33358099398555 2.1
    vertex 90.73429571376364 83.36921742141675 2.1
  endloop
endfacet
facet normal 0.0 0.0 1.0
  outer loop
    vertex 90.50802398893771 89.3922327088372 2.1
    vertex 90.73429571376364 83.36921742141675 2.1
    vertex 91.4683558595414 91.20993044399198 2.1
  endloop
endfacet
facet normal 0.0 0.0 1.0
  outer loop
    vertex 91.4683558595414 91.20993044399198 2.1
    vertex 90.73429571376364 83.36921742141675 2.1
    vertex 91.82830219350728 81.62869675783274 2.1
  endloop
endfacet
facet normal 0.0 0.0 1.0
  outer loop
    vertex 91.4683558595414 91.20993044399198 2.1
    vertex 91.82830219350728 81.62869675783274 2.1
    vertex 91.87563079471158 87.11279095158565 2.1
  endloop
endfacet
facet normal 0.0 0.0 1.0
  outer loop
    vertex 91.4683558595414 91.20993044399198 2.1
    vertex 91.87563079471158 87.11279095158565 2.1
    vertex 92.86642000726378 92.71713945303398 2.1
  endloop
endfacet
facet normal 0.0 0.0 1.0
  outer loop
    vertex 92.86642000726378 92.71713945303398 2.1
    vertex 91.87563079471158 87.11279095158565 2.1
    vertex 91.89711448308908 87.21507091686478 2.1
  endloop
endfacet
facet normal 0.0 0.0 1.0
  outer loop
    vertex 92.86642000726378 92.71713945303398 2.1
    vertex 91.89711448308908 87.21507091686478 2.1
    vertex 92.19939965446844 88.6541960935949 2.1
  endloop
endfacet
facet normal 0.0 0.0 1.0
  outer loop
    vertex 92.86642000726378 92.71713945303398 2.1
    vertex 92.19939965446844 88.6541960935949 2.1
    vertex 92.91108136482664 90.05928158192017 2.1
  endloop
endfacet
facet normal 0.0 0.0 1.0
  outer loop
    vertex 92.86642000726378 92.71713945303398 2.1
    vertex 92.91108136482664 90.05928158192017 2.1
    vertex 94.60694067084778 93.81114593277759 2.1
  endloop
endfacet
facet normal 0.0 0.0 1.0
  outer loop
    vertex 94.60694067084778 93.81114593277759 2.1
    vertex 92.91108136482664 90.05928158192017 2.1
    vertex 93.96217599333501 91.23229316254572 2.1
  endloop
endfacet
facet normal 0.0 0.0 1.0
  outer loop
    vertex 94.60694067084778 93.81114593277759 2.1
    vertex 93.96217599333501 91.23229316254572 2.1
    vertex 95.28105317807666 92.09329203474516 2.1
  endloop
endfacet
facet normal 0.0 0.0 1.0
  outer loop
    vertex 94.60694067084778 93.81114593277759 2.1
    vertex 95.28105317807666 92.09329203474516 2.1
    vertex 96.57130424341658 94.41739514955957 2.1
  endloop
endfacet
facet normal 0.0 0.0 1.0
  outer loop
    vertex 96.57130424341658 94.41739514955957 2.1
    vertex 95.28105317807666 92.09329203474516 2.1
    vertex 96.77783361845904 92.583602548246 2.1
  endloop
endfacet
facet normal 0.0 0.0 1.0
  outer loop
    vertex 96.57130424341658 94.41739514955957 2.1
    vertex 96.77783361845904 92.583602548246 2.1
    vertex 98.6256425937639 94.49457222113033 2.1
  endloop
endfacet
facet normal 0.0 0.0 1.0
  outer loop
    vertex 98.6256425937639 94.49457222113033 2.1
    vertex 96.77783361845904 92.583602548246 2.1
    vertex 98.3505142010167 92.66981085182967 2.1
  endloop
endfacet
facet normal 0.0 0.0 1.0
  outer loop
    vertex 98.6256425937639 94.49457222113033 2.1
    vertex 98.3505142010167 92.66981085182967 2.1
    vertex 98.45279416629582 92.64832716345218 2.1
  endloop
endfacet
facet normal 0.0 0.0 1.0
  outer loop
    vertex 98.6256425937639 94.49457222113033 2.1
    vertex 98.45279416629582 92.64832716345218 2.1
    vertex 99.89191934302592 92.34604199207283 2.1
  endloop
endfacet
facet normal 0.0 0.0 1.0
  outer loop
    vertex 98.6256425937639 94.49457222113033 2.1
    vertex 99.89191934302592 92.34604199207283 2.1
    vertex 100.6299559582682 94.03741765760353 2.1
  endloop
endfacet
facet normal 0.0 0.0 1.0
  outer loop
    vertex 100.6299559582682 94.03741765760353 2.1
    vertex 99.89191934302592 92.34604199207283 2.1
    vertex 101.2970048313512 91.63436028171459 2.1
  endloop
endfacet
facet normal 0.0 0.0 1.0
  outer loop
    vertex 100.6299559582682 94.03741765760353 2.1
    vertex 101.2970048313512 91.63436028171459 2.1
    vertex 102.44765369342302 93.07708578699983 2.1
  endloop
endfacet
facet normal 0.0 0.0 1.0
  outer loop
    vertex 102.44765369342302 93.07708578699983 2.1
    vertex 101.2970048313512 91.63436028171459 2.1
    vertex 102.47001641197673 90.58326565320625 2.1
  endloop
endfacet
facet normal 0.0 0.0 1.0
  outer loop
    vertex 102.44765369342302 93.07708578699983 2.1
    vertex 102.47001641197673 90.58326565320625 2.1
    vertex 103.954862702465 91.6790216392775 2.1
  endloop
endfacet
facet normal 0.0 0.0 1.0
  outer loop
    vertex 103.954862702465 91.6790216392775 2.1
    vertex 102.47001641197673 90.58326565320625 2.1
    vertex 103.33101528417619 89.26438846846462 2.1
  endloop
endfacet
facet normal 0.0 0.0 1.0
  outer loop
    vertex 103.954862702465 91.6790216392775 2.1
    vertex 103.33101528417619 89.26438846846462 2.1
    vertex 103.82132579767705 87.76760802808225 2.1
  endloop
endfacet
facet normal 0.0 0.0 1.0
  outer loop
    vertex 103.954862702465 91.6790216392775 2.1
    vertex 103.82132579767705 87.76760802808225 2.1
    vertex 103.9075341012607 86.19492744552456 2.1
  endloop
endfacet
facet normal -0.46713576076000823 -0.8841856032639123 0.0
  outer loop
    vertex 95.15320893770408 79.27030073950668 2.1
    vertex 93.33551120254928 80.23063261011036 0.0
    vertex 95.15320893770408 79.27030073950668 0.0
  endloop
endfacet
facet normal -0.46713576076000823 -0.8841856032639123 0.0
  outer loop
    vertex 93.33551120254928 80.23063261011036 0.0
    vertex 95.15320893770408 79.27030073950668 2.1
    vertex 93.33551120254928 80.23063261011036 2.1
  endloop
endfacet
facet normal 0.733154077892448 -0.6800625692314453 0.0
  outer loop
    vertex 104.31480903643087 82.09778795311824 0.0
    vertex 102.9167448887085 80.59057894407626 2.1
    vertex 102.9167448887085 80.59057894407626 0.0
  endloop
endfacet
facet normal 0.733154077892448 -0.6800625692314453 0.0
  outer loop
    vertex 102.9167448887085 80.59057894407626 2.1
    vertex 104.31480903643087 82.09778795311824 0.0
    vertex 104.31480903643087 82.09778795311824 2.1
  endloop
endfacet
facet normal -0.6800625692314424 -0.7331540778924507 0.0
  outer loop
    vertex 93.33551120254928 80.23063261011036 2.1
    vertex 91.82830219350728 81.62869675783274 0.0
    vertex 93.33551120254928 80.23063261011036 0.0
  endloop
endfacet
facet normal -0.6800625692314424 -0.7331540778924507 0.0
  outer loop
    vertex 91.82830219350728 81.62869675783274 0.0
    vertex 93.33551120254928 80.23063261011036 2.1
    vertex 91.82830219350728 81.62869675783274 2.1
  endloop
endfacet
facet normal -0.9555285000635685 -0.2948987717272945 0.0
  outer loop
    vertex 90.12804649698167 85.33358099398555 2.1
    vertex 90.73429571376364 83.36921742141675 0.0
    vertex 90.73429571376364 83.36921742141675 2.1
  endloop
endfacet
facet normal -0.9555285000635685 -0.2948987717272945 0.0
  outer loop
    vertex 90.73429571376364 83.36921742141675 0.0
    vertex 90.12804649698167 85.33358099398555 2.1
    vertex 90.12804649698167 85.33358099398555 0.0
  endloop
endfacet
facet normal 0.2948987717272945 -0.9555285000635685 0.0
  outer loop
    vertex 101.1762242251245 79.49657246433262 2.1
    vertex 99.2118606525557 78.89032324755064 0.0
    vertex 101.1762242251245 79.49657246433262 0.0
  endloop
endfacet
facet normal 0.2948987717272945 -0.9555285000635685 0.0
  outer loop
    vertex 99.2118606525557 78.89032324755064 0.0
    vertex 101.1762242251245 79.49657246433262 2.1
    vertex 99.2118606525557 78.89032324755064 2.1
  endloop
endfacet
facet normal 0.8841856032639098 -0.4671357607600127 0.0
  outer loop
    vertex 105.27514090703457 83.91548568827305 0.0
    vertex 104.31480903643087 82.09778795311824 2.1
    vertex 104.31480903643087 82.09778795311824 0.0
  endloop
endfacet
facet normal 0.8841856032639098 -0.4671357607600127 0.0
  outer loop
    vertex 104.31480903643087 82.09778795311824 2.1
    vertex 105.27514090703457 83.91548568827305 0.0
    vertex 105.27514090703457 83.91548568827305 2.1
  endloop
endfacet
facet normal -0.22237442217112474 -0.9749613409587369 0.0
  outer loop
    vertex 97.15752230220838 78.81314617597988 2.1
    vertex 95.15320893770408 79.27030073950668 0.0
    vertex 97.15752230220838 78.81314617597988 0.0
  endloop
endfacet
facet normal -0.22237442217112474 -0.9749613409587369 0.0
  outer loop
    vertex 95.15320893770408 79.27030073950668 0.0
    vertex 97.15752230220838 78.81314617597988 2.1
    vertex 95.15320893770408 79.27030073950668 2.1
  endloop
endfacet
facet normal -0.8841856032639098 0.4671357607600127 0.0
  outer loop
    vertex 91.4683558595414 91.20993044399198 2.1
    vertex 90.50802398893771 89.3922327088372 0.0
    vertex 90.50802398893771 89.3922327088372 2.1
  endloop
endfacet
facet normal -0.8841856032639098 0.4671357607600127 0.0
  outer loop
    vertex 90.50802398893771 89.3922327088372 0.0
    vertex 91.4683558595414 91.20993044399198 2.1
    vertex 91.4683558595414 91.20993044399198 0.0
  endloop
endfacet
facet normal -0.5321593137070133 0.8466442374662928 0.0
  outer loop
    vertex 92.86642000726378 92.71713945303398 2.1
    vertex 94.60694067084778 93.81114593277759 0.0
    vertex 92.86642000726378 92.71713945303398 0.0
  endloop
endfacet
facet normal -0.5321593137070133 0.8466442374662928 0.0
  outer loop
    vertex 94.60694067084778 93.81114593277759 0.0
    vertex 92.86642000726378 92.71713945303398 2.1
    vertex 94.60694067084778 93.81114593277759 2.1
  endloop
endfacet
facet normal 0.2223744221711193 0.9749613409587381 0.0
  outer loop
    vertex 98.6256425937639 94.49457222113033 2.1
    vertex 100.6299559582682 94.03741765760353 0.0
    vertex 98.6256425937639 94.49457222113033 0.0
  endloop
endfacet
facet normal 0.2223744221711193 0.9749613409587381 0.0
  outer loop
    vertex 100.6299559582682 94.03741765760353 0.0
    vertex 98.6256425937639 94.49457222113033 2.1
    vertex 100.6299559582682 94.03741765760353 2.1
  endloop
endfacet
facet normal 0.46713576076000796 0.8841856032639125 0.0
  outer loop
    vertex 100.6299559582682 94.03741765760353 2.1
    vertex 102.44765369342302 93.07708578699983 0.0
    vertex 100.6299559582682 94.03741765760353 0.0
  endloop
endfacet
facet normal 0.46713576076000796 0.8841856032639125 0.0
  outer loop
    vertex 102.44765369342302 93.07708578699983 0.0
    vertex 100.6299559582682 94.03741765760353 2.1
    vertex 102.44765369342302 93.07708578699983 2.1
  endloop
endfacet
facet normal -0.733154077892448 0.6800625692314453 0.0
  outer loop
    vertex 92.86642000726378 92.71713945303398 2.1
    vertex 91.4683558595414 91.20993044399198 0.0
    vertex 91.4683558595414 91.20993044399198 2.1
  endloop
endfacet
facet normal -0.733154077892448 0.6800625692314453 0.0
  outer loop
    vertex 91.4683558595414 91.20993044399198 0.0
    vertex 92.86642000726378 92.71713945303398 2.1
    vertex 92.86642000726378 92.71713945303398 0.0
  endloop
endfacet
facet normal -0.2948987717272945 0.9555285000635685 0.0
  outer loop
    vertex 94.60694067084778 93.81114593277759 2.1
    vertex 96.57130424341658 94.41739514955957 0.0
    vertex 94.60694067084778 93.81114593277759 0.0
  endloop
endfacet
facet normal -0.2948987717272945 0.9555285000635685 0.0
  outer loop
    vertex 96.57130424341658 94.41739514955957 0.0
    vertex 94.60694067084778 93.81114593277759 2.1
    vertex 96.57130424341658 94.41739514955957 2.1
  endloop
endfacet
facet normal -0.03754136579761184 0.9992950744670214 0.0
  outer loop
    vertex 96.57130424341658 94.41739514955957 2.1
    vertex 98.6256425937639 94.49457222113033 0.0
    vertex 96.57130424341658 94.41739514955957 0.0
  endloop
endfacet
facet normal -0.03754136579761184 0.9992950744670214 0.0
  outer loop
    vertex 98.6256425937639 94.49457222113033 0.0
    vertex 96.57130424341658 94.41739514955957 2.1
    vertex 98.6256425937639 94.49457222113033 2.1
  endloop
endfacet
facet normal 0.6800625692314481 0.7331540778924456 0.0
  outer loop
    vertex 102.44765369342302 93.07708578699983 2.1
    vertex 103.954862702465 91.6790216392775 0.0
    vertex 102.44765369342302 93.07708578699983 0.0
  endloop
endfacet
facet normal 0.6800625692314481 0.7331540778924456 0.0
  outer loop
    vertex 103.954862702465 91.6790216392775 0.0
    vertex 102.44765369342302 93.07708578699983 2.1
    vertex 103.954862702465 91.6790216392775 2.1
  endloop
endfacet
facet normal 0.8466442374662928 0.5321593137070133 0.0
  outer loop
    vertex 103.954862702465 91.6790216392775 0.0
    vertex 105.04886918220863 89.93850097569349 2.1
    vertex 105.04886918220863 89.93850097569349 0.0
  endloop
endfacet
facet normal 0.8466442374662928 0.5321593137070133 0.0
  outer loop
    vertex 105.04886918220863 89.93850097569349 2.1
    vertex 103.954862702465 91.6790216392775 0.0
    vertex 103.954862702465 91.6790216392775 2.1
  endloop
endfacet
facet normal -0.9749613409587388 0.22237442217111683 0.0
  outer loop
    vertex 90.50802398893771 89.3922327088372 2.1
    vertex 90.05086942541091 87.38791934433287 0.0
    vertex 90.05086942541091 87.38791934433287 2.1
  endloop
endfacet
facet normal -0.9749613409587388 0.22237442217111683 0.0
  outer loop
    vertex 90.05086942541091 87.38791934433287 0.0
    vertex 90.50802398893771 89.3922327088372 2.1
    vertex 90.50802398893771 89.3922327088372 0.0
  endloop
endfacet
endsolid Happy_bees_Hx711_kapakli
