solid kutu_katmanı3
facet normal 0.0 0.0 1.0
  outer loop
    vertex 366.19536290516953 159.0429597405333 0.0
    vertex 366.19536290516953 162.14878828176356 0.0
    vertex 365.990917862904 160.5958740111484 0.0
  endloop
endfacet
facet normal 0.0 0.0 1.0
  outer loop
    vertex 366.19536290516953 162.14878828176356 0.0
    vertex 366.19536290516953 159.0429597405333 0.0
    vertex 366.7947654401973 157.59587401114842 0.0
  endloop
endfacet
facet normal 0.0 0.0 1.0
  outer loop
    vertex 366.19536290516953 162.14878828176356 0.0
    vertex 366.7947654401973 157.59587401114842 0.0
    vertex 366.7947654401973 163.5958740111484 0.0
  endloop
endfacet
facet normal 0.0 0.0 1.0
  outer loop
    vertex 366.7947654401973 163.5958740111484 0.0
    vertex 366.7947654401973 157.59587401114842 0.0
    vertex 367.74827717578466 156.3532333240291 0.0
  endloop
endfacet
facet normal 0.0 0.0 1.0
  outer loop
    vertex 366.7947654401973 163.5958740111484 0.0
    vertex 367.74827717578466 156.3532333240291 0.0
    vertex 367.74827717578466 164.83851469826772 0.0
  endloop
endfacet
facet normal 0.0 0.0 1.0
  outer loop
    vertex 367.74827717578466 164.83851469826772 0.0
    vertex 367.74827717578466 156.3532333240291 0.0
    vertex 368.990917862904 155.3997215884418 0.0
  endloop
endfacet
facet normal 0.0 0.0 1.0
  outer loop
    vertex 367.74827717578466 164.83851469826772 0.0
    vertex 368.990917862904 155.3997215884418 0.0
    vertex 368.990917862904 165.79202643385503 0.0
  endloop
endfacet
facet normal 0.0 0.0 1.0
  outer loop
    vertex 368.990917862904 165.79202643385503 0.0
    vertex 368.990917862904 155.3997215884418 0.0
    vertex 370.43800359228885 154.800319053414 0.0
  endloop
endfacet
facet normal 0.0 0.0 1.0
  outer loop
    vertex 368.990917862904 165.79202643385503 0.0
    vertex 370.43800359228885 154.800319053414 0.0
    vertex 370.43800359228885 166.39142896888282 0.0
  endloop
endfacet
facet normal 0.0 0.0 1.0
  outer loop
    vertex 370.43800359228885 166.39142896888282 0.0
    vertex 370.43800359228885 154.800319053414 0.0
    vertex 371.990917862904 154.59587401114842 0.0
  endloop
endfacet
facet normal 0.0 0.0 1.0
  outer loop
    vertex 370.43800359228885 166.39142896888282 0.0
    vertex 371.990917862904 154.59587401114842 0.0
    vertex 371.990917862904 166.5958740111484 0.0
  endloop
endfacet
facet normal 0.0 0.0 1.0
  outer loop
    vertex 371.990917862904 166.5958740111484 0.0
    vertex 371.990917862904 154.59587401114842 0.0
    vertex 373.54383213351906 154.800319053414 0.0
  endloop
endfacet
facet normal 0.0 0.0 1.0
  outer loop
    vertex 371.990917862904 166.5958740111484 0.0
    vertex 373.54383213351906 154.800319053414 0.0
    vertex 373.54383213351906 166.39142896888282 0.0
  endloop
endfacet
facet normal 0.0 0.0 1.0
  outer loop
    vertex 373.54383213351906 166.39142896888282 0.0
    vertex 373.54383213351906 154.800319053414 0.0
    vertex 374.990917862904 155.3997215884418 0.0
  endloop
endfacet
facet normal 0.0 0.0 1.0
  outer loop
    vertex 373.54383213351906 166.39142896888282 0.0
    vertex 374.990917862904 155.3997215884418 0.0
    vertex 374.990917862904 165.79202643385503 0.0
  endloop
endfacet
facet normal 0.0 0.0 1.0
  outer loop
    vertex 374.990917862904 165.79202643385503 0.0
    vertex 374.990917862904 155.3997215884418 0.0
    vertex 376.23355855002325 156.3532333240291 0.0
  endloop
endfacet
facet normal 0.0 0.0 1.0
  outer loop
    vertex 374.990917862904 165.79202643385503 0.0
    vertex 376.23355855002325 156.3532333240291 0.0
    vertex 376.23355855002325 164.83851469826772 0.0
  endloop
endfacet
facet normal 0.0 0.0 1.0
  outer loop
    vertex 376.23355855002325 164.83851469826772 0.0
    vertex 376.23355855002325 156.3532333240291 0.0
    vertex 377.1870702856106 157.59587401114842 0.0
  endloop
endfacet
facet normal 0.0 0.0 1.0
  outer loop
    vertex 376.23355855002325 164.83851469826772 0.0
    vertex 377.1870702856106 157.59587401114842 0.0
    vertex 377.1870702856106 163.5958740111484 0.0
  endloop
endfacet
facet normal 0.0 0.0 1.0
  outer loop
    vertex 377.1870702856106 163.5958740111484 0.0
    vertex 377.1870702856106 157.59587401114842 0.0
    vertex 377.7864728206384 159.04295974053326 0.0
  endloop
endfacet
facet normal 0.0 0.0 1.0
  outer loop
    vertex 377.1870702856106 163.5958740111484 0.0
    vertex 377.7864728206384 159.04295974053326 0.0
    vertex 377.7864728206384 162.14878828176353 0.0
  endloop
endfacet
facet normal 0.0 0.0 1.0
  outer loop
    vertex 377.7864728206384 162.14878828176353 0.0
    vertex 377.7864728206384 159.04295974053326 0.0
    vertex 377.990917862904 160.5958740111484 0.0
  endloop
endfacet
facet normal 0.0 0.0 -1.0
  outer loop
    vertex 366.19536290516953 162.14878828176356 -1.9999999999999998
    vertex 366.19536290516953 159.0429597405333 -1.9999999999999998
    vertex 365.990917862904 160.5958740111484 -1.9999999999999998
  endloop
endfacet
facet normal 0.0 0.0 -1.0
  outer loop
    vertex 366.19536290516953 159.0429597405333 -1.9999999999999998
    vertex 366.19536290516953 162.14878828176356 -1.9999999999999998
    vertex 366.7947654401973 163.5958740111484 -1.9999999999999998
  endloop
endfacet
facet normal 0.0 0.0 -1.0
  outer loop
    vertex 366.19536290516953 159.0429597405333 -1.9999999999999998
    vertex 366.7947654401973 163.5958740111484 -1.9999999999999998
    vertex 366.7947654401973 157.59587401114842 -1.9999999999999998
  endloop
endfacet
facet normal 0.0 0.0 -1.0
  outer loop
    vertex 366.7947654401973 157.59587401114842 -1.9999999999999998
    vertex 366.7947654401973 163.5958740111484 -1.9999999999999998
    vertex 366.99954682348414 160.5958740111484 -1.9999999999999998
  endloop
endfacet
facet normal 0.0 0.0 -1.0
  outer loop
    vertex 366.99954682348414 160.5958740111484 -1.9999999999999998
    vertex 366.7947654401973 163.5958740111484 -1.9999999999999998
    vertex 367.1696236673371 161.88773589732344 -1.9999999999999998
  endloop
endfacet
facet normal 0.0 0.0 -1.0
  outer loop
    vertex 367.1696236673371 161.88773589732344 -1.9999999999999998
    vertex 366.7947654401973 163.5958740111484 -1.9999999999999998
    vertex 367.74827717578466 164.83851469826772 -1.9999999999999998
  endloop
endfacet
facet normal 0.0 0.0 -1.0
  outer loop
    vertex 367.1696236673371 161.88773589732344 -1.9999999999999998
    vertex 367.74827717578466 164.83851469826772 -1.9999999999999998
    vertex 367.6682637430525 163.09155953085832 -1.9999999999999998
  endloop
endfacet
facet normal 0.0 0.0 -1.0
  outer loop
    vertex 367.6682637430525 163.09155953085832 -1.9999999999999998
    vertex 367.74827717578466 164.83851469826772 -1.9999999999999998
    vertex 368.46148555351203 164.12530632054032 -1.9999999999999998
  endloop
endfacet
facet normal 0.0 0.0 -1.0
  outer loop
    vertex 368.46148555351203 164.12530632054032 -1.9999999999999998
    vertex 367.74827717578466 164.83851469826772 -1.9999999999999998
    vertex 368.990917862904 165.79202643385503 -1.9999999999999998
  endloop
endfacet
facet normal 0.0 0.0 -1.0
  outer loop
    vertex 368.46148555351203 164.12530632054032 -1.9999999999999998
    vertex 368.990917862904 165.79202643385503 -1.9999999999999998
    vertex 369.495232343194 164.91852813099993 -1.9999999999999998
  endloop
endfacet
facet normal 0.0 0.0 -1.0
  outer loop
    vertex 369.495232343194 164.91852813099993 -1.9999999999999998
    vertex 368.990917862904 165.79202643385503 -1.9999999999999998
    vertex 370.43800359228885 166.39142896888282 -1.9999999999999998
  endloop
endfacet
facet normal 0.0 0.0 -1.0
  outer loop
    vertex 369.495232343194 164.91852813099993 -1.9999999999999998
    vertex 370.43800359228885 166.39142896888282 -1.9999999999999998
    vertex 370.69905597672897 165.41716820671533 -1.9999999999999998
  endloop
endfacet
facet normal 0.0 0.0 -1.0
  outer loop
    vertex 370.69905597672897 165.41716820671533 -1.9999999999999998
    vertex 370.43800359228885 166.39142896888282 -1.9999999999999998
    vertex 371.990917862904 166.5958740111484 -1.9999999999999998
  endloop
endfacet
facet normal 0.0 0.0 -1.0
  outer loop
    vertex 370.69905597672897 165.41716820671533 -1.9999999999999998
    vertex 371.990917862904 166.5958740111484 -1.9999999999999998
    vertex 371.990917862904 165.58724505056824 -1.9999999999999998
  endloop
endfacet
facet normal 0.0 0.0 -1.0
  outer loop
    vertex 371.990917862904 165.58724505056824 -1.9999999999999998
    vertex 371.990917862904 166.5958740111484 -1.9999999999999998
    vertex 373.54383213351906 166.39142896888282 -1.9999999999999998
  endloop
endfacet
facet normal 0.0 0.0 -1.0
  outer loop
    vertex 371.990917862904 165.58724505056824 -1.9999999999999998
    vertex 373.54383213351906 166.39142896888282 -1.9999999999999998
    vertex 373.282779749079 165.41716820671533 -1.9999999999999998
  endloop
endfacet
facet normal 0.0 0.0 -1.0
  outer loop
    vertex 373.282779749079 165.41716820671533 -1.9999999999999998
    vertex 373.54383213351906 166.39142896888282 -1.9999999999999998
    vertex 374.4866033826139 164.91852813099996 -1.9999999999999998
  endloop
endfacet
facet normal 0.0 0.0 -1.0
  outer loop
    vertex 374.4866033826139 164.91852813099996 -1.9999999999999998
    vertex 373.54383213351906 166.39142896888282 -1.9999999999999998
    vertex 374.990917862904 165.79202643385503 -1.9999999999999998
  endloop
endfacet
facet normal 0.0 0.0 -1.0
  outer loop
    vertex 374.4866033826139 164.91852813099996 -1.9999999999999998
    vertex 374.990917862904 165.79202643385503 -1.9999999999999998
    vertex 375.52035017229593 164.12530632054032 -1.9999999999999998
  endloop
endfacet
facet normal 0.0 0.0 -1.0
  outer loop
    vertex 375.52035017229593 164.12530632054032 -1.9999999999999998
    vertex 374.990917862904 165.79202643385503 -1.9999999999999998
    vertex 376.23355855002325 164.83851469826772 -1.9999999999999998
  endloop
endfacet
facet normal 0.0 0.0 -1.0
  outer loop
    vertex 375.52035017229593 164.12530632054032 -1.9999999999999998
    vertex 376.23355855002325 164.83851469826772 -1.9999999999999998
    vertex 376.3135719827555 163.09155953085832 -1.9999999999999998
  endloop
endfacet
facet normal 0.0 0.0 -1.0
  outer loop
    vertex 376.3135719827555 163.09155953085832 -1.9999999999999998
    vertex 376.23355855002325 164.83851469826772 -1.9999999999999998
    vertex 377.1870702856106 163.5958740111484 -1.9999999999999998
  endloop
endfacet
facet normal 0.0 0.0 -1.0
  outer loop
    vertex 376.3135719827555 163.09155953085832 -1.9999999999999998
    vertex 377.1870702856106 163.5958740111484 -1.9999999999999998
    vertex 376.8122120584709 161.88773589732344 -1.9999999999999998
  endloop
endfacet
facet normal 0.0 0.0 -1.0
  outer loop
    vertex 376.8122120584709 161.88773589732344 -1.9999999999999998
    vertex 377.1870702856106 163.5958740111484 -1.9999999999999998
    vertex 376.98228890232383 160.5958740111484 -1.9999999999999998
  endloop
endfacet
facet normal 0.0 0.0 -1.0
  outer loop
    vertex 366.7947654401973 157.59587401114842 -1.9999999999999998
    vertex 367.1696236673371 159.30401212497338 -1.9999999999999998
    vertex 367.74827717578466 156.3532333240291 -1.9999999999999998
  endloop
endfacet
facet normal 0.0 0.0 -1.0
  outer loop
    vertex 367.1696236673371 159.30401212497338 -1.9999999999999998
    vertex 366.7947654401973 157.59587401114842 -1.9999999999999998
    vertex 366.99954682348414 160.5958740111484 -1.9999999999999998
  endloop
endfacet
facet normal 0.0 0.0 -1.0
  outer loop
    vertex 367.74827717578466 156.3532333240291 -1.9999999999999998
    vertex 367.1696236673371 159.30401212497338 -1.9999999999999998
    vertex 367.6682637430524 158.10018849143847 -1.9999999999999998
  endloop
endfacet
facet normal 0.0 0.0 -1.0
  outer loop
    vertex 367.74827717578466 156.3532333240291 -1.9999999999999998
    vertex 367.6682637430524 158.10018849143847 -1.9999999999999998
    vertex 368.46148555351203 157.0664417017565 -1.9999999999999998
  endloop
endfacet
facet normal 0.0 0.0 -1.0
  outer loop
    vertex 367.74827717578466 156.3532333240291 -1.9999999999999998
    vertex 368.46148555351203 157.0664417017565 -1.9999999999999998
    vertex 368.990917862904 155.3997215884418 -1.9999999999999998
  endloop
endfacet
facet normal 0.0 0.0 -1.0
  outer loop
    vertex 368.990917862904 155.3997215884418 -1.9999999999999998
    vertex 368.46148555351203 157.0664417017565 -1.9999999999999998
    vertex 369.495232343194 156.2732198912969 -1.9999999999999998
  endloop
endfacet
facet normal 0.0 0.0 -1.0
  outer loop
    vertex 368.990917862904 155.3997215884418 -1.9999999999999998
    vertex 369.495232343194 156.2732198912969 -1.9999999999999998
    vertex 370.43800359228885 154.800319053414 -1.9999999999999998
  endloop
endfacet
facet normal 0.0 0.0 -1.0
  outer loop
    vertex 370.43800359228885 154.800319053414 -1.9999999999999998
    vertex 369.495232343194 156.2732198912969 -1.9999999999999998
    vertex 370.69905597672897 155.77457981558146 -1.9999999999999998
  endloop
endfacet
facet normal 0.0 0.0 -1.0
  outer loop
    vertex 370.43800359228885 154.800319053414 -1.9999999999999998
    vertex 370.69905597672897 155.77457981558146 -1.9999999999999998
    vertex 371.990917862904 154.59587401114842 -1.9999999999999998
  endloop
endfacet
facet normal 0.0 0.0 -1.0
  outer loop
    vertex 371.990917862904 154.59587401114842 -1.9999999999999998
    vertex 370.69905597672897 155.77457981558146 -1.9999999999999998
    vertex 371.990917862904 155.60450297172858 -1.9999999999999998
  endloop
endfacet
facet normal 0.0 0.0 -1.0
  outer loop
    vertex 371.990917862904 154.59587401114842 -1.9999999999999998
    vertex 371.990917862904 155.60450297172858 -1.9999999999999998
    vertex 373.282779749079 155.77457981558146 -1.9999999999999998
  endloop
endfacet
facet normal 0.0 0.0 -1.0
  outer loop
    vertex 371.990917862904 154.59587401114842 -1.9999999999999998
    vertex 373.282779749079 155.77457981558146 -1.9999999999999998
    vertex 373.54383213351906 154.800319053414 -1.9999999999999998
  endloop
endfacet
facet normal 0.0 0.0 -1.0
  outer loop
    vertex 373.54383213351906 154.800319053414 -1.9999999999999998
    vertex 373.282779749079 155.77457981558146 -1.9999999999999998
    vertex 374.4866033826139 156.2732198912969 -1.9999999999999998
  endloop
endfacet
facet normal 0.0 0.0 -1.0
  outer loop
    vertex 373.54383213351906 154.800319053414 -1.9999999999999998
    vertex 374.4866033826139 156.2732198912969 -1.9999999999999998
    vertex 374.990917862904 155.3997215884418 -1.9999999999999998
  endloop
endfacet
facet normal 0.0 0.0 -1.0
  outer loop
    vertex 374.990917862904 155.3997215884418 -1.9999999999999998
    vertex 374.4866033826139 156.2732198912969 -1.9999999999999998
    vertex 375.5203501722959 157.0664417017565 -1.9999999999999998
  endloop
endfacet
facet normal 0.0 0.0 -1.0
  outer loop
    vertex 374.990917862904 155.3997215884418 -1.9999999999999998
    vertex 375.5203501722959 157.0664417017565 -1.9999999999999998
    vertex 376.23355855002325 156.3532333240291 -1.9999999999999998
  endloop
endfacet
facet normal 0.0 0.0 -1.0
  outer loop
    vertex 376.23355855002325 156.3532333240291 -1.9999999999999998
    vertex 375.5203501722959 157.0664417017565 -1.9999999999999998
    vertex 376.3135719827555 158.10018849143847 -1.9999999999999998
  endloop
endfacet
facet normal 0.0 0.0 -1.0
  outer loop
    vertex 376.23355855002325 156.3532333240291 -1.9999999999999998
    vertex 376.3135719827555 158.10018849143847 -1.9999999999999998
    vertex 377.1870702856106 157.59587401114842 -1.9999999999999998
  endloop
endfacet
facet normal 0.0 0.0 -1.0
  outer loop
    vertex 377.1870702856106 157.59587401114842 -1.9999999999999998
    vertex 376.3135719827555 158.10018849143847 -1.9999999999999998
    vertex 376.8122120584709 159.30401212497338 -1.9999999999999998
  endloop
endfacet
facet normal 0.0 0.0 -1.0
  outer loop
    vertex 377.1870702856106 157.59587401114842 -1.9999999999999998
    vertex 376.8122120584709 159.30401212497338 -1.9999999999999998
    vertex 376.98228890232383 160.5958740111484 -1.9999999999999998
  endloop
endfacet
facet normal 0.0 0.0 -1.0
  outer loop
    vertex 377.1870702856106 157.59587401114842 -1.9999999999999998
    vertex 376.98228890232383 160.5958740111484 -1.9999999999999998
    vertex 377.1870702856106 163.5958740111484 -1.9999999999999998
  endloop
endfacet
facet normal 0.0 0.0 -1.0
  outer loop
    vertex 377.1870702856106 157.59587401114842 -1.9999999999999998
    vertex 377.1870702856106 163.5958740111484 -1.9999999999999998
    vertex 377.7864728206384 162.14878828176353 -1.9999999999999998
  endloop
endfacet
facet normal 0.0 0.0 -1.0
  outer loop
    vertex 377.1870702856106 157.59587401114842 -1.9999999999999998
    vertex 377.7864728206384 162.14878828176353 -1.9999999999999998
    vertex 377.7864728206384 159.04295974053326 -1.9999999999999998
  endloop
endfacet
facet normal 0.0 0.0 -1.0
  outer loop
    vertex 377.7864728206384 159.04295974053326 -1.9999999999999998
    vertex 377.7864728206384 162.14878828176353 -1.9999999999999998
    vertex 377.990917862904 160.5958740111484 -1.9999999999999998
  endloop
endfacet
facet normal -0.13052619222004555 -0.9914448613738113 -0.0
  outer loop
    vertex 371.990917862904 154.59587401114842 0.0
    vertex 370.43800359228885 154.800319053414 -1.9999999999999998
    vertex 371.990917862904 154.59587401114842 -1.9999999999999998
  endloop
endfacet
facet normal -0.13052619222004555 -0.9914448613738113 -0.0
  outer loop
    vertex 370.43800359228885 154.800319053414 -1.9999999999999998
    vertex 371.990917862904 154.59587401114842 0.0
    vertex 370.43800359228885 154.800319053414 0.0
  endloop
endfacet
facet normal -0.38268343236509317 -0.9238795325112855 -0.0
  outer loop
    vertex 370.43800359228885 154.800319053414 0.0
    vertex 368.990917862904 155.3997215884418 -1.9999999999999998
    vertex 370.43800359228885 154.800319053414 -1.9999999999999998
  endloop
endfacet
facet normal -0.38268343236509317 -0.9238795325112855 -0.0
  outer loop
    vertex 368.990917862904 155.3997215884418 -1.9999999999999998
    vertex 370.43800359228885 154.800319053414 0.0
    vertex 368.990917862904 155.3997215884418 0.0
  endloop
endfacet
facet normal -0.6087614290087081 -0.7933533402912447 -0.0
  outer loop
    vertex 368.990917862904 155.3997215884418 0.0
    vertex 367.74827717578466 156.3532333240291 -1.9999999999999998
    vertex 368.990917862904 155.3997215884418 -1.9999999999999998
  endloop
endfacet
facet normal -0.6087614290087081 -0.7933533402912447 -0.0
  outer loop
    vertex 367.74827717578466 156.3532333240291 -1.9999999999999998
    vertex 368.990917862904 155.3997215884418 0.0
    vertex 367.74827717578466 156.3532333240291 0.0
  endloop
endfacet
facet normal -0.7933533402912378 -0.6087614290087172 -0.0
  outer loop
    vertex 366.7947654401973 157.59587401114842 0.0
    vertex 367.74827717578466 156.3532333240291 -1.9999999999999998
    vertex 367.74827717578466 156.3532333240291 0.0
  endloop
endfacet
facet normal -0.7933533402912378 -0.6087614290087172 -0.0
  outer loop
    vertex 367.74827717578466 156.3532333240291 -1.9999999999999998
    vertex 366.7947654401973 157.59587401114842 0.0
    vertex 366.7947654401973 157.59587401114842 -1.9999999999999998
  endloop
endfacet
facet normal -0.9238795325112904 -0.38268343236508073 -0.0
  outer loop
    vertex 366.19536290516953 159.0429597405333 0.0
    vertex 366.7947654401973 157.59587401114842 -1.9999999999999998
    vertex 366.7947654401973 157.59587401114842 0.0
  endloop
endfacet
facet normal -0.9238795325112904 -0.38268343236508073 -0.0
  outer loop
    vertex 366.7947654401973 157.59587401114842 -1.9999999999999998
    vertex 366.19536290516953 159.0429597405333 0.0
    vertex 366.19536290516953 159.0429597405333 -1.9999999999999998
  endloop
endfacet
facet normal -0.9914448613738113 -0.13052619222004555 -0.0
  outer loop
    vertex 365.990917862904 160.5958740111484 0.0
    vertex 366.19536290516953 159.0429597405333 -1.9999999999999998
    vertex 366.19536290516953 159.0429597405333 0.0
  endloop
endfacet
facet normal -0.9914448613738113 -0.13052619222004555 -0.0
  outer loop
    vertex 366.19536290516953 159.0429597405333 -1.9999999999999998
    vertex 365.990917862904 160.5958740111484 0.0
    vertex 365.990917862904 160.5958740111484 -1.9999999999999998
  endloop
endfacet
facet normal -0.9914448613738116 0.1305261922200437 0.0
  outer loop
    vertex 366.19536290516953 162.14878828176356 0.0
    vertex 365.990917862904 160.5958740111484 -1.9999999999999998
    vertex 365.990917862904 160.5958740111484 0.0
  endloop
endfacet
facet normal -0.9914448613738116 0.1305261922200437 0.0
  outer loop
    vertex 365.990917862904 160.5958740111484 -1.9999999999999998
    vertex 366.19536290516953 162.14878828176356 0.0
    vertex 366.19536290516953 162.14878828176356 -1.9999999999999998
  endloop
endfacet
facet normal -0.9238795325112885 0.382683432365086 0.0
  outer loop
    vertex 366.7947654401973 163.5958740111484 0.0
    vertex 366.19536290516953 162.14878828176356 -1.9999999999999998
    vertex 366.19536290516953 162.14878828176356 0.0
  endloop
endfacet
facet normal -0.9238795325112885 0.382683432365086 0.0
  outer loop
    vertex 366.19536290516953 162.14878828176356 -1.9999999999999998
    vertex 366.7947654401973 163.5958740111484 0.0
    vertex 366.7947654401973 163.5958740111484 -1.9999999999999998
  endloop
endfacet
facet normal -0.7933533402912378 0.6087614290087172 0.0
  outer loop
    vertex 367.74827717578466 164.83851469826772 0.0
    vertex 366.7947654401973 163.5958740111484 -1.9999999999999998
    vertex 366.7947654401973 163.5958740111484 0.0
  endloop
endfacet
facet normal -0.7933533402912378 0.6087614290087172 0.0
  outer loop
    vertex 366.7947654401973 163.5958740111484 -1.9999999999999998
    vertex 367.74827717578466 164.83851469826772 0.0
    vertex 367.74827717578466 164.83851469826772 -1.9999999999999998
  endloop
endfacet
facet normal -0.6087614290087081 0.7933533402912447 0.0
  outer loop
    vertex 367.74827717578466 164.83851469826772 0.0
    vertex 368.990917862904 165.79202643385503 -1.9999999999999998
    vertex 367.74827717578466 164.83851469826772 -1.9999999999999998
  endloop
endfacet
facet normal -0.6087614290087081 0.7933533402912447 0.0
  outer loop
    vertex 368.990917862904 165.79202643385503 -1.9999999999999998
    vertex 367.74827717578466 164.83851469826772 0.0
    vertex 368.990917862904 165.79202643385503 0.0
  endloop
endfacet
facet normal -0.38268343236509317 0.9238795325112855 0.0
  outer loop
    vertex 368.990917862904 165.79202643385503 0.0
    vertex 370.43800359228885 166.39142896888282 -1.9999999999999998
    vertex 368.990917862904 165.79202643385503 -1.9999999999999998
  endloop
endfacet
facet normal -0.38268343236509317 0.9238795325112855 0.0
  outer loop
    vertex 370.43800359228885 166.39142896888282 -1.9999999999999998
    vertex 368.990917862904 165.79202643385503 0.0
    vertex 370.43800359228885 166.39142896888282 0.0
  endloop
endfacet
facet normal -0.13052619222004555 0.9914448613738113 0.0
  outer loop
    vertex 370.43800359228885 166.39142896888282 0.0
    vertex 371.990917862904 166.5958740111484 -1.9999999999999998
    vertex 370.43800359228885 166.39142896888282 -1.9999999999999998
  endloop
endfacet
facet normal -0.13052619222004555 0.9914448613738113 0.0
  outer loop
    vertex 371.990917862904 166.5958740111484 -1.9999999999999998
    vertex 370.43800359228885 166.39142896888282 0.0
    vertex 371.990917862904 166.5958740111484 0.0
  endloop
endfacet
facet normal 0.13052619222004555 0.9914448613738113 0.0
  outer loop
    vertex 371.990917862904 166.5958740111484 0.0
    vertex 373.54383213351906 166.39142896888282 -1.9999999999999998
    vertex 371.990917862904 166.5958740111484 -1.9999999999999998
  endloop
endfacet
facet normal 0.13052619222004555 0.9914448613738113 0.0
  outer loop
    vertex 373.54383213351906 166.39142896888282 -1.9999999999999998
    vertex 371.990917862904 166.5958740111484 0.0
    vertex 373.54383213351906 166.39142896888282 0.0
  endloop
endfacet
facet normal 0.38268343236509317 0.9238795325112855 0.0
  outer loop
    vertex 373.54383213351906 166.39142896888282 0.0
    vertex 374.990917862904 165.79202643385503 -1.9999999999999998
    vertex 373.54383213351906 166.39142896888282 -1.9999999999999998
  endloop
endfacet
facet normal 0.38268343236509317 0.9238795325112855 0.0
  outer loop
    vertex 374.990917862904 165.79202643385503 -1.9999999999999998
    vertex 373.54383213351906 166.39142896888282 0.0
    vertex 374.990917862904 165.79202643385503 0.0
  endloop
endfacet
facet normal 0.6087614290087081 0.7933533402912447 0.0
  outer loop
    vertex 374.990917862904 165.79202643385503 0.0
    vertex 376.23355855002325 164.83851469826772 -1.9999999999999998
    vertex 374.990917862904 165.79202643385503 -1.9999999999999998
  endloop
endfacet
facet normal 0.6087614290087081 0.7933533402912447 0.0
  outer loop
    vertex 376.23355855002325 164.83851469826772 -1.9999999999999998
    vertex 374.990917862904 165.79202643385503 0.0
    vertex 376.23355855002325 164.83851469826772 0.0
  endloop
endfacet
facet normal 0.7933533402912378 0.6087614290087172 0.0
  outer loop
    vertex 376.23355855002325 164.83851469826772 -1.9999999999999998
    vertex 377.1870702856106 163.5958740111484 0.0
    vertex 377.1870702856106 163.5958740111484 -1.9999999999999998
  endloop
endfacet
facet normal 0.7933533402912378 0.6087614290087172 0.0
  outer loop
    vertex 377.1870702856106 163.5958740111484 0.0
    vertex 376.23355855002325 164.83851469826772 -1.9999999999999998
    vertex 376.23355855002325 164.83851469826772 0.0
  endloop
endfacet
facet normal 0.9238795325112904 0.38268343236508073 0.0
  outer loop
    vertex 377.1870702856106 163.5958740111484 -1.9999999999999998
    vertex 377.7864728206384 162.14878828176353 0.0
    vertex 377.7864728206384 162.14878828176353 -1.9999999999999998
  endloop
endfacet
facet normal 0.9238795325112904 0.38268343236508073 0.0
  outer loop
    vertex 377.7864728206384 162.14878828176353 0.0
    vertex 377.1870702856106 163.5958740111484 -1.9999999999999998
    vertex 377.1870702856106 163.5958740111484 0.0
  endloop
endfacet
facet normal 0.9914448613738113 0.13052619222004555 0.0
  outer loop
    vertex 377.7864728206384 162.14878828176353 -1.9999999999999998
    vertex 377.990917862904 160.5958740111484 0.0
    vertex 377.990917862904 160.5958740111484 -1.9999999999999998
  endloop
endfacet
facet normal 0.9914448613738113 0.13052619222004555 0.0
  outer loop
    vertex 377.990917862904 160.5958740111484 0.0
    vertex 377.7864728206384 162.14878828176353 -1.9999999999999998
    vertex 377.7864728206384 162.14878828176353 0.0
  endloop
endfacet
facet normal 0.9914448613738116 -0.1305261922200437 0.0
  outer loop
    vertex 377.990917862904 160.5958740111484 -1.9999999999999998
    vertex 377.7864728206384 159.04295974053326 0.0
    vertex 377.7864728206384 159.04295974053326 -1.9999999999999998
  endloop
endfacet
facet normal 0.9914448613738116 -0.1305261922200437 0.0
  outer loop
    vertex 377.7864728206384 159.04295974053326 0.0
    vertex 377.990917862904 160.5958740111484 -1.9999999999999998
    vertex 377.990917862904 160.5958740111484 0.0
  endloop
endfacet
facet normal 0.9238795325112885 -0.382683432365086 0.0
  outer loop
    vertex 377.7864728206384 159.04295974053326 -1.9999999999999998
    vertex 377.1870702856106 157.59587401114842 0.0
    vertex 377.1870702856106 157.59587401114842 -1.9999999999999998
  endloop
endfacet
facet normal 0.9238795325112885 -0.382683432365086 0.0
  outer loop
    vertex 377.1870702856106 157.59587401114842 0.0
    vertex 377.7864728206384 159.04295974053326 -1.9999999999999998
    vertex 377.7864728206384 159.04295974053326 0.0
  endloop
endfacet
facet normal 0.7933533402912378 -0.6087614290087172 0.0
  outer loop
    vertex 377.1870702856106 157.59587401114842 -1.9999999999999998
    vertex 376.23355855002325 156.3532333240291 0.0
    vertex 376.23355855002325 156.3532333240291 -1.9999999999999998
  endloop
endfacet
facet normal 0.7933533402912378 -0.6087614290087172 0.0
  outer loop
    vertex 376.23355855002325 156.3532333240291 0.0
    vertex 377.1870702856106 157.59587401114842 -1.9999999999999998
    vertex 377.1870702856106 157.59587401114842 0.0
  endloop
endfacet
facet normal 0.6087614290087081 -0.7933533402912447 0.0
  outer loop
    vertex 376.23355855002325 156.3532333240291 0.0
    vertex 374.990917862904 155.3997215884418 -1.9999999999999998
    vertex 376.23355855002325 156.3532333240291 -1.9999999999999998
  endloop
endfacet
facet normal 0.6087614290087081 -0.7933533402912447 0.0
  outer loop
    vertex 374.990917862904 155.3997215884418 -1.9999999999999998
    vertex 376.23355855002325 156.3532333240291 0.0
    vertex 374.990917862904 155.3997215884418 0.0
  endloop
endfacet
facet normal 0.38268343236509317 -0.9238795325112855 0.0
  outer loop
    vertex 374.990917862904 155.3997215884418 0.0
    vertex 373.54383213351906 154.800319053414 -1.9999999999999998
    vertex 374.990917862904 155.3997215884418 -1.9999999999999998
  endloop
endfacet
facet normal 0.38268343236509317 -0.9238795325112855 0.0
  outer loop
    vertex 373.54383213351906 154.800319053414 -1.9999999999999998
    vertex 374.990917862904 155.3997215884418 0.0
    vertex 373.54383213351906 154.800319053414 0.0
  endloop
endfacet
facet normal 0.13052619222004555 -0.9914448613738113 0.0
  outer loop
    vertex 373.54383213351906 154.800319053414 0.0
    vertex 371.990917862904 154.59587401114842 -1.9999999999999998
    vertex 373.54383213351906 154.800319053414 -1.9999999999999998
  endloop
endfacet
facet normal 0.13052619222004555 -0.9914448613738113 0.0
  outer loop
    vertex 371.990917862904 154.59587401114842 -1.9999999999999998
    vertex 373.54383213351906 154.800319053414 0.0
    vertex 371.990917862904 154.59587401114842 0.0
  endloop
endfacet
facet normal 0.0 0.0 -1.0
  outer loop
    vertex 367.1696236673371 161.88773589732344 -3.9999999999999996
    vertex 367.1696236673371 159.30401212497338 -3.9999999999999996
    vertex 366.99954682348414 160.5958740111484 -3.9999999999999996
  endloop
endfacet
facet normal 0.0 0.0 -1.0
  outer loop
    vertex 367.1696236673371 159.30401212497338 -3.9999999999999996
    vertex 367.1696236673371 161.88773589732344 -3.9999999999999996
    vertex 367.6682637430525 163.09155953085832 -3.9999999999999996
  endloop
endfacet
facet normal 0.0 0.0 -1.0
  outer loop
    vertex 367.1696236673371 159.30401212497338 -3.9999999999999996
    vertex 367.6682637430525 163.09155953085832 -3.9999999999999996
    vertex 367.6682637430524 158.10018849143847 -3.9999999999999996
  endloop
endfacet
facet normal 0.0 0.0 -1.0
  outer loop
    vertex 367.6682637430524 158.10018849143847 -3.9999999999999996
    vertex 367.6682637430525 163.09155953085832 -3.9999999999999996
    vertex 368.46148555351203 157.0664417017565 -3.9999999999999996
  endloop
endfacet
facet normal 0.0 0.0 -1.0
  outer loop
    vertex 368.46148555351203 157.0664417017565 -3.9999999999999996
    vertex 367.6682637430525 163.09155953085832 -3.9999999999999996
    vertex 368.46148555351203 164.12530632054032 -3.9999999999999996
  endloop
endfacet
facet normal 0.0 0.0 -1.0
  outer loop
    vertex 368.46148555351203 157.0664417017565 -3.9999999999999996
    vertex 368.46148555351203 164.12530632054032 -3.9999999999999996
    vertex 369.495232343194 164.91852813099993 -3.9999999999999996
  endloop
endfacet
facet normal 0.0 0.0 -1.0
  outer loop
    vertex 368.46148555351203 157.0664417017565 -3.9999999999999996
    vertex 369.495232343194 164.91852813099993 -3.9999999999999996
    vertex 369.495232343194 156.2732198912969 -3.9999999999999996
  endloop
endfacet
facet normal 0.0 0.0 -1.0
  outer loop
    vertex 369.495232343194 156.2732198912969 -3.9999999999999996
    vertex 369.495232343194 164.91852813099993 -3.9999999999999996
    vertex 370.69905597672897 165.41716820671533 -3.9999999999999996
  endloop
endfacet
facet normal 0.0 0.0 -1.0
  outer loop
    vertex 369.495232343194 156.2732198912969 -3.9999999999999996
    vertex 370.69905597672897 165.41716820671533 -3.9999999999999996
    vertex 370.69905597672897 155.77457981558146 -3.9999999999999996
  endloop
endfacet
facet normal 0.0 0.0 -1.0
  outer loop
    vertex 370.69905597672897 155.77457981558146 -3.9999999999999996
    vertex 370.69905597672897 165.41716820671533 -3.9999999999999996
    vertex 371.990917862904 165.58724505056824 -3.9999999999999996
  endloop
endfacet
facet normal 0.0 0.0 -1.0
  outer loop
    vertex 370.69905597672897 155.77457981558146 -3.9999999999999996
    vertex 371.990917862904 165.58724505056824 -3.9999999999999996
    vertex 371.990917862904 155.60450297172858 -3.9999999999999996
  endloop
endfacet
facet normal 0.0 0.0 -1.0
  outer loop
    vertex 371.990917862904 155.60450297172858 -3.9999999999999996
    vertex 371.990917862904 165.58724505056824 -3.9999999999999996
    vertex 373.282779749079 165.41716820671533 -3.9999999999999996
  endloop
endfacet
facet normal 0.0 0.0 -1.0
  outer loop
    vertex 371.990917862904 155.60450297172858 -3.9999999999999996
    vertex 373.282779749079 165.41716820671533 -3.9999999999999996
    vertex 373.282779749079 155.77457981558146 -3.9999999999999996
  endloop
endfacet
facet normal 0.0 0.0 -1.0
  outer loop
    vertex 373.282779749079 155.77457981558146 -3.9999999999999996
    vertex 373.282779749079 165.41716820671533 -3.9999999999999996
    vertex 374.4866033826139 164.91852813099996 -3.9999999999999996
  endloop
endfacet
facet normal 0.0 0.0 -1.0
  outer loop
    vertex 373.282779749079 155.77457981558146 -3.9999999999999996
    vertex 374.4866033826139 164.91852813099996 -3.9999999999999996
    vertex 374.4866033826139 156.2732198912969 -3.9999999999999996
  endloop
endfacet
facet normal 0.0 0.0 -1.0
  outer loop
    vertex 374.4866033826139 156.2732198912969 -3.9999999999999996
    vertex 374.4866033826139 164.91852813099996 -3.9999999999999996
    vertex 375.52035017229593 164.12530632054032 -3.9999999999999996
  endloop
endfacet
facet normal 0.0 0.0 -1.0
  outer loop
    vertex 374.4866033826139 156.2732198912969 -3.9999999999999996
    vertex 375.52035017229593 164.12530632054032 -3.9999999999999996
    vertex 375.5203501722959 157.0664417017565 -3.9999999999999996
  endloop
endfacet
facet normal 0.0 0.0 -1.0
  outer loop
    vertex 375.5203501722959 157.0664417017565 -3.9999999999999996
    vertex 375.52035017229593 164.12530632054032 -3.9999999999999996
    vertex 376.3135719827555 158.10018849143847 -3.9999999999999996
  endloop
endfacet
facet normal 0.0 0.0 -1.0
  outer loop
    vertex 376.3135719827555 158.10018849143847 -3.9999999999999996
    vertex 375.52035017229593 164.12530632054032 -3.9999999999999996
    vertex 376.3135719827555 163.09155953085832 -3.9999999999999996
  endloop
endfacet
facet normal 0.0 0.0 -1.0
  outer loop
    vertex 376.3135719827555 158.10018849143847 -3.9999999999999996
    vertex 376.3135719827555 163.09155953085832 -3.9999999999999996
    vertex 376.8122120584709 159.30401212497338 -3.9999999999999996
  endloop
endfacet
facet normal 0.0 0.0 -1.0
  outer loop
    vertex 376.8122120584709 159.30401212497338 -3.9999999999999996
    vertex 376.3135719827555 163.09155953085832 -3.9999999999999996
    vertex 376.8122120584709 161.88773589732344 -3.9999999999999996
  endloop
endfacet
facet normal 0.0 0.0 -1.0
  outer loop
    vertex 376.8122120584709 159.30401212497338 -3.9999999999999996
    vertex 376.8122120584709 161.88773589732344 -3.9999999999999996
    vertex 376.98228890232383 160.5958740111484 -3.9999999999999996
  endloop
endfacet
facet normal 0.13052619222005188 -0.9914448613738104 0.0
  outer loop
    vertex 373.282779749079 155.77457981558146 -1.9999999999999998
    vertex 371.990917862904 155.60450297172858 -3.9999999999999996
    vertex 373.282779749079 155.77457981558146 -3.9999999999999996
  endloop
endfacet
facet normal 0.13052619222005188 -0.9914448613738104 0.0
  outer loop
    vertex 371.990917862904 155.60450297172858 -3.9999999999999996
    vertex 373.282779749079 155.77457981558146 -1.9999999999999998
    vertex 371.990917862904 155.60450297172858 -1.9999999999999998
  endloop
endfacet
facet normal -0.13052619222005188 -0.9914448613738104 -0.0
  outer loop
    vertex 371.990917862904 155.60450297172858 -1.9999999999999998
    vertex 370.69905597672897 155.77457981558146 -3.9999999999999996
    vertex 371.990917862904 155.60450297172858 -3.9999999999999996
  endloop
endfacet
facet normal -0.13052619222005188 -0.9914448613738104 -0.0
  outer loop
    vertex 370.69905597672897 155.77457981558146 -3.9999999999999996
    vertex 371.990917862904 155.60450297172858 -1.9999999999999998
    vertex 370.69905597672897 155.77457981558146 -1.9999999999999998
  endloop
endfacet
facet normal -0.38268343236508595 -0.9238795325112883 -0.0
  outer loop
    vertex 370.69905597672897 155.77457981558146 -1.9999999999999998
    vertex 369.495232343194 156.2732198912969 -3.9999999999999996
    vertex 370.69905597672897 155.77457981558146 -3.9999999999999996
  endloop
endfacet
facet normal -0.38268343236508595 -0.9238795325112883 -0.0
  outer loop
    vertex 369.495232343194 156.2732198912969 -3.9999999999999996
    vertex 370.69905597672897 155.77457981558146 -1.9999999999999998
    vertex 369.495232343194 156.2732198912969 -1.9999999999999998
  endloop
endfacet
facet normal -0.608761429008716 -0.7933533402912389 -0.0
  outer loop
    vertex 369.495232343194 156.2732198912969 -1.9999999999999998
    vertex 368.46148555351203 157.0664417017565 -3.9999999999999996
    vertex 369.495232343194 156.2732198912969 -3.9999999999999996
  endloop
endfacet
facet normal -0.608761429008716 -0.7933533402912389 -0.0
  outer loop
    vertex 368.46148555351203 157.0664417017565 -3.9999999999999996
    vertex 369.495232343194 156.2732198912969 -1.9999999999999998
    vertex 368.46148555351203 157.0664417017565 -1.9999999999999998
  endloop
endfacet
facet normal -0.7933533402912389 -0.608761429008716 -0.0
  outer loop
    vertex 367.6682637430524 158.10018849143847 -1.9999999999999998
    vertex 368.46148555351203 157.0664417017565 -3.9999999999999996
    vertex 368.46148555351203 157.0664417017565 -1.9999999999999998
  endloop
endfacet
facet normal -0.7933533402912389 -0.608761429008716 -0.0
  outer loop
    vertex 368.46148555351203 157.0664417017565 -3.9999999999999996
    vertex 367.6682637430524 158.10018849143847 -1.9999999999999998
    vertex 367.6682637430524 158.10018849143847 -3.9999999999999996
  endloop
endfacet
facet normal -0.9238795325112982 -0.3826834323650626 -0.0
  outer loop
    vertex 367.1696236673371 159.30401212497338 -1.9999999999999998
    vertex 367.6682637430524 158.10018849143847 -3.9999999999999996
    vertex 367.6682637430524 158.10018849143847 -1.9999999999999998
  endloop
endfacet
facet normal -0.9238795325112982 -0.3826834323650626 -0.0
  outer loop
    vertex 367.6682637430524 158.10018849143847 -3.9999999999999996
    vertex 367.1696236673371 159.30401212497338 -1.9999999999999998
    vertex 367.1696236673371 159.30401212497338 -3.9999999999999996
  endloop
endfacet
facet normal -0.9914448613738083 -0.13052619222006892 -0.0
  outer loop
    vertex 366.99954682348414 160.5958740111484 -1.9999999999999998
    vertex 367.1696236673371 159.30401212497338 -3.9999999999999996
    vertex 367.1696236673371 159.30401212497338 -1.9999999999999998
  endloop
endfacet
facet normal -0.9914448613738083 -0.13052619222006892 -0.0
  outer loop
    vertex 367.1696236673371 159.30401212497338 -3.9999999999999996
    vertex 366.99954682348414 160.5958740111484 -1.9999999999999998
    vertex 366.99954682348414 160.5958740111484 -3.9999999999999996
  endloop
endfacet
facet normal -0.9914448613738083 0.13052619222006892 0.0
  outer loop
    vertex 367.1696236673371 161.88773589732344 -1.9999999999999998
    vertex 366.99954682348414 160.5958740111484 -3.9999999999999996
    vertex 366.99954682348414 160.5958740111484 -1.9999999999999998
  endloop
endfacet
facet normal -0.9914448613738083 0.13052619222006892 0.0
  outer loop
    vertex 366.99954682348414 160.5958740111484 -3.9999999999999996
    vertex 367.1696236673371 161.88773589732344 -1.9999999999999998
    vertex 367.1696236673371 161.88773589732344 -3.9999999999999996
  endloop
endfacet
facet normal -0.9238795325112833 0.3826834323650982 0.0
  outer loop
    vertex 367.6682637430525 163.09155953085832 -1.9999999999999998
    vertex 367.1696236673371 161.88773589732344 -3.9999999999999996
    vertex 367.1696236673371 161.88773589732344 -1.9999999999999998
  endloop
endfacet
facet normal -0.9238795325112833 0.3826834323650982 0.0
  outer loop
    vertex 367.1696236673371 161.88773589732344 -3.9999999999999996
    vertex 367.6682637430525 163.09155953085832 -1.9999999999999998
    vertex 367.6682637430525 163.09155953085832 -3.9999999999999996
  endloop
endfacet
facet normal -0.7933533402912557 0.6087614290086942 0.0
  outer loop
    vertex 368.46148555351203 164.12530632054032 -1.9999999999999998
    vertex 367.6682637430525 163.09155953085832 -3.9999999999999996
    vertex 367.6682637430525 163.09155953085832 -1.9999999999999998
  endloop
endfacet
facet normal -0.7933533402912557 0.6087614290086942 0.0
  outer loop
    vertex 367.6682637430525 163.09155953085832 -3.9999999999999996
    vertex 368.46148555351203 164.12530632054032 -1.9999999999999998
    vertex 368.46148555351203 164.12530632054032 -3.9999999999999996
  endloop
endfacet
facet normal -0.6087614290087269 0.7933533402912305 0.0
  outer loop
    vertex 368.46148555351203 164.12530632054032 -1.9999999999999998
    vertex 369.495232343194 164.91852813099993 -3.9999999999999996
    vertex 368.46148555351203 164.12530632054032 -3.9999999999999996
  endloop
endfacet
facet normal -0.6087614290087269 0.7933533402912305 0.0
  outer loop
    vertex 369.495232343194 164.91852813099993 -3.9999999999999996
    vertex 368.46148555351203 164.12530632054032 -1.9999999999999998
    vertex 369.495232343194 164.91852813099993 -1.9999999999999998
  endloop
endfacet
facet normal -0.38268343236508595 0.9238795325112883 0.0
  outer loop
    vertex 369.495232343194 164.91852813099993 -1.9999999999999998
    vertex 370.69905597672897 165.41716820671533 -3.9999999999999996
    vertex 369.495232343194 164.91852813099993 -3.9999999999999996
  endloop
endfacet
facet normal -0.38268343236508595 0.9238795325112883 0.0
  outer loop
    vertex 370.69905597672897 165.41716820671533 -3.9999999999999996
    vertex 369.495232343194 164.91852813099993 -1.9999999999999998
    vertex 370.69905597672897 165.41716820671533 -1.9999999999999998
  endloop
endfacet
facet normal -0.13052619222005188 0.9914448613738104 0.0
  outer loop
    vertex 370.69905597672897 165.41716820671533 -1.9999999999999998
    vertex 371.990917862904 165.58724505056824 -3.9999999999999996
    vertex 370.69905597672897 165.41716820671533 -3.9999999999999996
  endloop
endfacet
facet normal -0.13052619222005188 0.9914448613738104 0.0
  outer loop
    vertex 371.990917862904 165.58724505056824 -3.9999999999999996
    vertex 370.69905597672897 165.41716820671533 -1.9999999999999998
    vertex 371.990917862904 165.58724505056824 -1.9999999999999998
  endloop
endfacet
facet normal 0.13052619222005188 0.9914448613738104 0.0
  outer loop
    vertex 371.990917862904 165.58724505056824 -1.9999999999999998
    vertex 373.282779749079 165.41716820671533 -3.9999999999999996
    vertex 371.990917862904 165.58724505056824 -3.9999999999999996
  endloop
endfacet
facet normal 0.13052619222005188 0.9914448613738104 0.0
  outer loop
    vertex 373.282779749079 165.41716820671533 -3.9999999999999996
    vertex 371.990917862904 165.58724505056824 -1.9999999999999998
    vertex 373.282779749079 165.41716820671533 -1.9999999999999998
  endloop
endfacet
facet normal 0.3826834323650712 0.9238795325112945 0.0
  outer loop
    vertex 373.282779749079 165.41716820671533 -1.9999999999999998
    vertex 374.4866033826139 164.91852813099996 -3.9999999999999996
    vertex 373.282779749079 165.41716820671533 -3.9999999999999996
  endloop
endfacet
facet normal 0.3826834323650712 0.9238795325112945 0.0
  outer loop
    vertex 374.4866033826139 164.91852813099996 -3.9999999999999996
    vertex 373.282779749079 165.41716820671533 -1.9999999999999998
    vertex 374.4866033826139 164.91852813099996 -1.9999999999999998
  endloop
endfacet
facet normal 0.6087614290087269 0.7933533402912305 0.0
  outer loop
    vertex 374.4866033826139 164.91852813099996 -1.9999999999999998
    vertex 375.52035017229593 164.12530632054032 -3.9999999999999996
    vertex 374.4866033826139 164.91852813099996 -3.9999999999999996
  endloop
endfacet
facet normal 0.6087614290087269 0.7933533402912305 0.0
  outer loop
    vertex 375.52035017229593 164.12530632054032 -3.9999999999999996
    vertex 374.4866033826139 164.91852813099996 -1.9999999999999998
    vertex 375.52035017229593 164.12530632054032 -1.9999999999999998
  endloop
endfacet
facet normal 0.7933533402912389 0.608761429008716 0.0
  outer loop
    vertex 375.52035017229593 164.12530632054032 -3.9999999999999996
    vertex 376.3135719827555 163.09155953085832 -1.9999999999999998
    vertex 376.3135719827555 163.09155953085832 -3.9999999999999996
  endloop
endfacet
facet normal 0.7933533402912389 0.608761429008716 0.0
  outer loop
    vertex 376.3135719827555 163.09155953085832 -1.9999999999999998
    vertex 375.52035017229593 164.12530632054032 -3.9999999999999996
    vertex 375.52035017229593 164.12530632054032 -1.9999999999999998
  endloop
endfacet
facet normal 0.9238795325112982 0.3826834323650626 0.0
  outer loop
    vertex 376.3135719827555 163.09155953085832 -3.9999999999999996
    vertex 376.8122120584709 161.88773589732344 -1.9999999999999998
    vertex 376.8122120584709 161.88773589732344 -3.9999999999999996
  endloop
endfacet
facet normal 0.9238795325112982 0.3826834323650626 0.0
  outer loop
    vertex 376.8122120584709 161.88773589732344 -1.9999999999999998
    vertex 376.3135719827555 163.09155953085832 -3.9999999999999996
    vertex 376.3135719827555 163.09155953085832 -1.9999999999999998
  endloop
endfacet
facet normal 0.9914448613738083 0.13052619222006892 0.0
  outer loop
    vertex 376.8122120584709 161.88773589732344 -3.9999999999999996
    vertex 376.98228890232383 160.5958740111484 -1.9999999999999998
    vertex 376.98228890232383 160.5958740111484 -3.9999999999999996
  endloop
endfacet
facet normal 0.9914448613738083 0.13052619222006892 0.0
  outer loop
    vertex 376.98228890232383 160.5958740111484 -1.9999999999999998
    vertex 376.8122120584709 161.88773589732344 -3.9999999999999996
    vertex 376.8122120584709 161.88773589732344 -1.9999999999999998
  endloop
endfacet
facet normal 0.9914448613738083 -0.13052619222006892 0.0
  outer loop
    vertex 376.98228890232383 160.5958740111484 -3.9999999999999996
    vertex 376.8122120584709 159.30401212497338 -1.9999999999999998
    vertex 376.8122120584709 159.30401212497338 -3.9999999999999996
  endloop
endfacet
facet normal 0.9914448613738083 -0.13052619222006892 0.0
  outer loop
    vertex 376.8122120584709 159.30401212497338 -1.9999999999999998
    vertex 376.98228890232383 160.5958740111484 -3.9999999999999996
    vertex 376.98228890232383 160.5958740111484 -1.9999999999999998
  endloop
endfacet
facet normal 0.9238795325112859 -0.38268343236509206 0.0
  outer loop
    vertex 376.8122120584709 159.30401212497338 -3.9999999999999996
    vertex 376.3135719827555 158.10018849143847 -1.9999999999999998
    vertex 376.3135719827555 158.10018849143847 -3.9999999999999996
  endloop
endfacet
facet normal 0.9238795325112859 -0.38268343236509206 0.0
  outer loop
    vertex 376.3135719827555 158.10018849143847 -1.9999999999999998
    vertex 376.8122120584709 159.30401212497338 -3.9999999999999996
    vertex 376.8122120584709 159.30401212497338 -1.9999999999999998
  endloop
endfacet
facet normal 0.7933533402912389 -0.608761429008716 0.0
  outer loop
    vertex 376.3135719827555 158.10018849143847 -3.9999999999999996
    vertex 375.5203501722959 157.0664417017565 -1.9999999999999998
    vertex 375.5203501722959 157.0664417017565 -3.9999999999999996
  endloop
endfacet
facet normal 0.7933533402912389 -0.608761429008716 0.0
  outer loop
    vertex 375.5203501722959 157.0664417017565 -1.9999999999999998
    vertex 376.3135719827555 158.10018849143847 -3.9999999999999996
    vertex 376.3135719827555 158.10018849143847 -1.9999999999999998
  endloop
endfacet
facet normal 0.6087614290087326 -0.793353340291226 0.0
  outer loop
    vertex 375.5203501722959 157.0664417017565 -1.9999999999999998
    vertex 374.4866033826139 156.2732198912969 -3.9999999999999996
    vertex 375.5203501722959 157.0664417017565 -3.9999999999999996
  endloop
endfacet
facet normal 0.6087614290087326 -0.793353340291226 0.0
  outer loop
    vertex 374.4866033826139 156.2732198912969 -3.9999999999999996
    vertex 375.5203501722959 157.0664417017565 -1.9999999999999998
    vertex 374.4866033826139 156.2732198912969 -1.9999999999999998
  endloop
endfacet
facet normal 0.38268343236508595 -0.9238795325112883 0.0
  outer loop
    vertex 374.4866033826139 156.2732198912969 -1.9999999999999998
    vertex 373.282779749079 155.77457981558146 -3.9999999999999996
    vertex 374.4866033826139 156.2732198912969 -3.9999999999999996
  endloop
endfacet
facet normal 0.38268343236508595 -0.9238795325112883 0.0
  outer loop
    vertex 373.282779749079 155.77457981558146 -3.9999999999999996
    vertex 374.4866033826139 156.2732198912969 -1.9999999999999998
    vertex 373.282779749079 155.77457981558146 -1.9999999999999998
  endloop
endfacet
facet normal 0.0 0.0 1.0
  outer loop
    vertex 344.67953517383313 156.78718048760078 0.0
    vertex 344.8575252613923 159.8879046701509 0.0
    vertex 344.56442117613153 158.34925899866232 0.0
  endloop
endfacet
facet normal 0.0 0.0 1.0
  outer loop
    vertex 344.8575252613923 159.8879046701509 0.0
    vertex 344.67953517383313 156.78718048760078 0.0
    vertex 345.1950224257886 155.30812220603835 0.0
  endloop
endfacet
facet normal 0.0 0.0 1.0
  outer loop
    vertex 344.8575252613923 159.8879046701509 0.0
    vertex 345.1950224257886 155.30812220603835 0.0
    vertex 345.5388728705823 161.29826134228676 0.0
  endloop
endfacet
facet normal 0.0 0.0 1.0
  outer loop
    vertex 345.5388728705823 161.29826134228676 0.0
    vertex 345.1950224257886 155.30812220603835 0.0
    vertex 346.07575332766015 154.01287953160409 0.0
  endloop
endfacet
facet normal 0.0 0.0 1.0
  outer loop
    vertex 345.5388728705823 161.29826134228676 0.0
    vertex 346.07575332766015 154.01287953160409 0.0
    vertex 346.5620312901154 162.48421553858847 0.0
  endloop
endfacet
facet normal 0.0 0.0 1.0
  outer loop
    vertex 346.5620312901154 162.48421553858847 0.0
    vertex 346.07575332766015 154.01287953160409 0.0
    vertex 347.26170752396183 152.98972111207098 0.0
  endloop
endfacet
facet normal 0.0 0.0 1.0
  outer loop
    vertex 346.5620312901154 162.48421553858847 0.0
    vertex 347.26170752396183 152.98972111207098 0.0
    vertex 347.8572739645496 163.36494644046002 0.0
  endloop
endfacet
facet normal 0.0 0.0 1.0
  outer loop
    vertex 347.8572739645496 163.36494644046002 0.0
    vertex 347.26170752396183 152.98972111207098 0.0
    vertex 348.6720641960977 152.30837350288098 0.0
  endloop
endfacet
facet normal 0.0 0.0 1.0
  outer loop
    vertex 347.8572739645496 163.36494644046002 0.0
    vertex 348.6720641960977 152.30837350288098 0.0
    vertex 349.3363322461121 163.8804336924155 0.0
  endloop
endfacet
facet normal 0.0 0.0 1.0
  outer loop
    vertex 349.3363322461121 163.8804336924155 0.0
    vertex 348.6720641960977 152.30837350288098 0.0
    vertex 350.2107098675863 152.01526941762023 0.0
  endloop
endfacet
facet normal 0.0 0.0 1.0
  outer loop
    vertex 349.3363322461121 163.8804336924155 0.0
    vertex 350.2107098675863 152.01526941762023 0.0
    vertex 350.8984107571736 163.9955476901171 0.0
  endloop
endfacet
facet normal 0.0 0.0 1.0
  outer loop
    vertex 350.8984107571736 163.9955476901171 0.0
    vertex 350.2107098675863 152.01526941762023 0.0
    vertex 351.7727883786478 152.13038341532183 0.0
  endloop
endfacet
facet normal 0.0 0.0 1.0
  outer loop
    vertex 350.8984107571736 163.9955476901171 0.0
    vertex 351.7727883786478 152.13038341532183 0.0
    vertex 352.43705642866223 163.7024436048563 0.0
  endloop
endfacet
facet normal 0.0 0.0 1.0
  outer loop
    vertex 352.43705642866223 163.7024436048563 0.0
    vertex 351.7727883786478 152.13038341532183 0.0
    vertex 353.2518466602103 152.6458706672773 0.0
  endloop
endfacet
facet normal 0.0 0.0 1.0
  outer loop
    vertex 352.43705642866223 163.7024436048563 0.0
    vertex 353.2518466602103 152.6458706672773 0.0
    vertex 353.8474131007981 163.02109599566634 0.0
  endloop
endfacet
facet normal 0.0 0.0 1.0
  outer loop
    vertex 353.8474131007981 163.02109599566634 0.0
    vertex 353.2518466602103 152.6458706672773 0.0
    vertex 354.5470893346445 153.52660156914882 0.0
  endloop
endfacet
facet normal 0.0 0.0 1.0
  outer loop
    vertex 353.8474131007981 163.02109599566634 0.0
    vertex 354.5470893346445 153.52660156914882 0.0
    vertex 355.03336729709974 161.99793757613324 0.0
  endloop
endfacet
facet normal 0.0 0.0 1.0
  outer loop
    vertex 355.03336729709974 161.99793757613324 0.0
    vertex 354.5470893346445 153.52660156914882 0.0
    vertex 355.5702477541776 154.71255576545053 0.0
  endloop
endfacet
facet normal 0.0 0.0 1.0
  outer loop
    vertex 355.03336729709974 161.99793757613324 0.0
    vertex 355.5702477541776 154.71255576545053 0.0
    vertex 355.9140981989713 160.70269490169898 0.0
  endloop
endfacet
facet normal 0.0 0.0 1.0
  outer loop
    vertex 355.9140981989713 160.70269490169898 0.0
    vertex 355.5702477541776 154.71255576545053 0.0
    vertex 356.25159536336764 156.1229124375864 0.0
  endloop
endfacet
facet normal 0.0 0.0 1.0
  outer loop
    vertex 355.9140981989713 160.70269490169898 0.0
    vertex 356.25159536336764 156.1229124375864 0.0
    vertex 356.42958545092677 159.22363662013652 0.0
  endloop
endfacet
facet normal 0.0 0.0 1.0
  outer loop
    vertex 356.42958545092677 159.22363662013652 0.0
    vertex 356.25159536336764 156.1229124375864 0.0
    vertex 356.5446994486284 157.66155810907497 0.0
  endloop
endfacet
facet normal 0.0 0.0 -1.0
  outer loop
    vertex 344.8575252613923 159.8879046701509 -1.54
    vertex 344.67953517383313 156.78718048760078 -1.54
    vertex 344.56442117613153 158.34925899866232 -1.54
  endloop
endfacet
facet normal 0.0 0.0 -1.0
  outer loop
    vertex 344.67953517383313 156.78718048760078 -1.54
    vertex 344.8575252613923 159.8879046701509 -1.54
    vertex 345.1950224257886 155.30812220603835 -1.54
  endloop
endfacet
facet normal 0.0 0.0 -1.0
  outer loop
    vertex 345.1950224257886 155.30812220603835 -1.54
    vertex 344.8575252613923 159.8879046701509 -1.54
    vertex 345.260435157636 158.30930588377146 -1.54
  endloop
endfacet
facet normal 0.0 0.0 -1.0
  outer loop
    vertex 345.260435157636 158.30930588377146 -1.54
    vertex 344.8575252613923 159.8879046701509 -1.54
    vertex 345.5388728705823 161.29826134228676 -1.54
  endloop
endfacet
facet normal 0.0 0.0 -1.0
  outer loop
    vertex 345.260435157636 158.30930588377146 -1.54
    vertex 345.5388728705823 161.29826134228676 -1.54
    vertex 345.5194825145408 159.6691712505661 -1.54
  endloop
endfacet
facet normal 0.0 0.0 -1.0
  outer loop
    vertex 345.5194825145408 159.6691712505661 -1.54
    vertex 345.5388728705823 161.29826134228676 -1.54
    vertex 346.1216621025088 160.91565393907874 -1.54
  endloop
endfacet
facet normal 0.0 0.0 -1.0
  outer loop
    vertex 346.1216621025088 160.91565393907874 -1.54
    vertex 345.5388728705823 161.29826134228676 -1.54
    vertex 346.5620312901154 162.48421553858847 -1.54
  endloop
endfacet
facet normal 0.0 0.0 -1.0
  outer loop
    vertex 346.1216621025088 160.91565393907874 -1.54
    vertex 346.5620312901154 162.48421553858847 -1.54
    vertex 347.02593637776897 161.96380821399714 -1.54
  endloop
endfacet
facet normal 0.0 0.0 -1.0
  outer loop
    vertex 347.02593637776897 161.96380821399714 -1.54
    vertex 346.5620312901154 162.48421553858847 -1.54
    vertex 347.8572739645496 163.36494644046002 -1.54
  endloop
endfacet
facet normal 0.0 0.0 -1.0
  outer loop
    vertex 347.02593637776897 161.96380821399714 -1.54
    vertex 347.8572739645496 163.36494644046002 -1.54
    vertex 348.17068054284607 162.74220409364256 -1.54
  endloop
endfacet
facet normal 0.0 0.0 -1.0
  outer loop
    vertex 348.17068054284607 162.74220409364256 -1.54
    vertex 347.8572739645496 163.36494644046002 -1.54
    vertex 349.3363322461121 163.8804336924155 -1.54
  endloop
endfacet
facet normal 0.0 0.0 -1.0
  outer loop
    vertex 348.17068054284607 162.74220409364256 -1.54
    vertex 349.3363322461121 163.8804336924155 -1.54
    vertex 349.4778821746693 163.1977951851771 -1.54
  endloop
endfacet
facet normal 0.0 0.0 -1.0
  outer loop
    vertex 349.4778821746693 163.1977951851771 -1.54
    vertex 349.3363322461121 163.8804336924155 -1.54
    vertex 350.8984107571736 163.9955476901171 -1.54
  endloop
endfacet
facet normal 0.0 0.0 -1.0
  outer loop
    vertex 349.4778821746693 163.1977951851771 -1.54
    vertex 350.8984107571736 163.9955476901171 -1.54
    vertex 350.85845764228276 163.2995337086126 -1.54
  endloop
endfacet
facet normal 0.0 0.0 -1.0
  outer loop
    vertex 350.85845764228276 163.2995337086126 -1.54
    vertex 350.8984107571736 163.9955476901171 -1.54
    vertex 352.21832300907744 163.0404863517078 -1.54
  endloop
endfacet
facet normal 0.0 0.0 -1.0
  outer loop
    vertex 352.21832300907744 163.0404863517078 -1.54
    vertex 350.8984107571736 163.9955476901171 -1.54
    vertex 352.43705642866223 163.7024436048563 -1.54
  endloop
endfacet
facet normal 0.0 0.0 -1.0
  outer loop
    vertex 352.21832300907744 163.0404863517078 -1.54
    vertex 352.43705642866223 163.7024436048563 -1.54
    vertex 353.46480569759 162.43830676373975 -1.54
  endloop
endfacet
facet normal 0.0 0.0 -1.0
  outer loop
    vertex 353.46480569759 162.43830676373975 -1.54
    vertex 352.43705642866223 163.7024436048563 -1.54
    vertex 353.8474131007981 163.02109599566634 -1.54
  endloop
endfacet
facet normal 0.0 0.0 -1.0
  outer loop
    vertex 353.46480569759 162.43830676373975 -1.54
    vertex 353.8474131007981 163.02109599566634 -1.54
    vertex 354.51295997250844 161.53403248847962 -1.54
  endloop
endfacet
facet normal 0.0 0.0 -1.0
  outer loop
    vertex 354.51295997250844 161.53403248847962 -1.54
    vertex 353.8474131007981 163.02109599566634 -1.54
    vertex 355.03336729709974 161.99793757613324 -1.54
  endloop
endfacet
facet normal 0.0 0.0 -1.0
  outer loop
    vertex 354.51295997250844 161.53403248847962 -1.54
    vertex 355.03336729709974 161.99793757613324 -1.54
    vertex 355.29135585215386 160.38928832340252 -1.54
  endloop
endfacet
facet normal 0.0 0.0 -1.0
  outer loop
    vertex 355.29135585215386 160.38928832340252 -1.54
    vertex 355.03336729709974 161.99793757613324 -1.54
    vertex 355.9140981989713 160.70269490169898 -1.54
  endloop
endfacet
facet normal 0.0 0.0 -1.0
  outer loop
    vertex 355.29135585215386 160.38928832340252 -1.54
    vertex 355.9140981989713 160.70269490169898 -1.54
    vertex 355.74694694368844 159.08208669157932 -1.54
  endloop
endfacet
facet normal 0.0 0.0 -1.0
  outer loop
    vertex 355.74694694368844 159.08208669157932 -1.54
    vertex 355.9140981989713 160.70269490169898 -1.54
    vertex 355.8486854671239 157.70151122396587 -1.54
  endloop
endfacet
facet normal 0.0 0.0 -1.0
  outer loop
    vertex 345.1950224257886 155.30812220603835 -1.54
    vertex 345.3621736810715 156.92873041615798 -1.54
    vertex 346.07575332766015 154.01287953160409 -1.54
  endloop
endfacet
facet normal 0.0 0.0 -1.0
  outer loop
    vertex 345.3621736810715 156.92873041615798 -1.54
    vertex 345.1950224257886 155.30812220603835 -1.54
    vertex 345.260435157636 158.30930588377146 -1.54
  endloop
endfacet
facet normal 0.0 0.0 -1.0
  outer loop
    vertex 346.07575332766015 154.01287953160409 -1.54
    vertex 345.3621736810715 156.92873041615798 -1.54
    vertex 345.81776477260604 155.62152878433477 -1.54
  endloop
endfacet
facet normal 0.0 0.0 -1.0
  outer loop
    vertex 346.07575332766015 154.01287953160409 -1.54
    vertex 345.81776477260604 155.62152878433477 -1.54
    vertex 346.59616065225146 154.4767846192577 -1.54
  endloop
endfacet
facet normal 0.0 0.0 -1.0
  outer loop
    vertex 346.07575332766015 154.01287953160409 -1.54
    vertex 346.59616065225146 154.4767846192577 -1.54
    vertex 347.26170752396183 152.98972111207098 -1.54
  endloop
endfacet
facet normal 0.0 0.0 -1.0
  outer loop
    vertex 347.26170752396183 152.98972111207098 -1.54
    vertex 346.59616065225146 154.4767846192577 -1.54
    vertex 347.6443149271699 153.57251034399755 -1.54
  endloop
endfacet
facet normal 0.0 0.0 -1.0
  outer loop
    vertex 347.26170752396183 152.98972111207098 -1.54
    vertex 347.6443149271699 153.57251034399755 -1.54
    vertex 348.6720641960977 152.30837350288098 -1.54
  endloop
endfacet
facet normal 0.0 0.0 -1.0
  outer loop
    vertex 348.6720641960977 152.30837350288098 -1.54
    vertex 347.6443149271699 153.57251034399755 -1.54
    vertex 348.8907976156825 152.97033075602948 -1.54
  endloop
endfacet
facet normal 0.0 0.0 -1.0
  outer loop
    vertex 348.6720641960977 152.30837350288098 -1.54
    vertex 348.8907976156825 152.97033075602948 -1.54
    vertex 350.2107098675863 152.01526941762023 -1.54
  endloop
endfacet
facet normal 0.0 0.0 -1.0
  outer loop
    vertex 350.2107098675863 152.01526941762023 -1.54
    vertex 348.8907976156825 152.97033075602948 -1.54
    vertex 350.25066298247714 152.71128339912468 -1.54
  endloop
endfacet
facet normal 0.0 0.0 -1.0
  outer loop
    vertex 350.2107098675863 152.01526941762023 -1.54
    vertex 350.25066298247714 152.71128339912468 -1.54
    vertex 351.7727883786478 152.13038341532183 -1.54
  endloop
endfacet
facet normal 0.0 0.0 -1.0
  outer loop
    vertex 351.7727883786478 152.13038341532183 -1.54
    vertex 350.25066298247714 152.71128339912468 -1.54
    vertex 351.6312384500906 152.8130219225602 -1.54
  endloop
endfacet
facet normal 0.0 0.0 -1.0
  outer loop
    vertex 351.7727883786478 152.13038341532183 -1.54
    vertex 351.6312384500906 152.8130219225602 -1.54
    vertex 352.9384400819139 153.26861301409477 -1.54
  endloop
endfacet
facet normal 0.0 0.0 -1.0
  outer loop
    vertex 351.7727883786478 152.13038341532183 -1.54
    vertex 352.9384400819139 153.26861301409477 -1.54
    vertex 353.2518466602103 152.6458706672773 -1.54
  endloop
endfacet
facet normal 0.0 0.0 -1.0
  outer loop
    vertex 353.2518466602103 152.6458706672773 -1.54
    vertex 352.9384400819139 153.26861301409477 -1.54
    vertex 354.083184246991 154.04700889374016 -1.54
  endloop
endfacet
facet normal 0.0 0.0 -1.0
  outer loop
    vertex 353.2518466602103 152.6458706672773 -1.54
    vertex 354.083184246991 154.04700889374016 -1.54
    vertex 354.5470893346445 153.52660156914882 -1.54
  endloop
endfacet
facet normal 0.0 0.0 -1.0
  outer loop
    vertex 354.5470893346445 153.52660156914882 -1.54
    vertex 354.083184246991 154.04700889374016 -1.54
    vertex 354.9874585222511 155.09516316865856 -1.54
  endloop
endfacet
facet normal 0.0 0.0 -1.0
  outer loop
    vertex 354.5470893346445 153.52660156914882 -1.54
    vertex 354.9874585222511 155.09516316865856 -1.54
    vertex 355.5702477541776 154.71255576545053 -1.54
  endloop
endfacet
facet normal 0.0 0.0 -1.0
  outer loop
    vertex 355.5702477541776 154.71255576545053 -1.54
    vertex 354.9874585222511 155.09516316865856 -1.54
    vertex 355.58963811021914 156.34164585717116 -1.54
  endloop
endfacet
facet normal 0.0 0.0 -1.0
  outer loop
    vertex 355.5702477541776 154.71255576545053 -1.54
    vertex 355.58963811021914 156.34164585717116 -1.54
    vertex 356.25159536336764 156.1229124375864 -1.54
  endloop
endfacet
facet normal 0.0 0.0 -1.0
  outer loop
    vertex 356.25159536336764 156.1229124375864 -1.54
    vertex 355.58963811021914 156.34164585717116 -1.54
    vertex 355.8486854671239 157.70151122396587 -1.54
  endloop
endfacet
facet normal 0.0 0.0 -1.0
  outer loop
    vertex 356.25159536336764 156.1229124375864 -1.54
    vertex 355.8486854671239 157.70151122396587 -1.54
    vertex 355.9140981989713 160.70269490169898 -1.54
  endloop
endfacet
facet normal 0.0 0.0 -1.0
  outer loop
    vertex 356.25159536336764 156.1229124375864 -1.54
    vertex 355.9140981989713 160.70269490169898 -1.54
    vertex 356.42958545092677 159.22363662013652 -1.54
  endloop
endfacet
facet normal 0.0 0.0 -1.0
  outer loop
    vertex 356.25159536336764 156.1229124375864 -1.54
    vertex 356.42958545092677 159.22363662013652 -1.54
    vertex 356.5446994486284 157.66155810907497 -1.54
  endloop
endfacet
facet normal 0.32910843613571034 -0.9442921355514442 0.0
  outer loop
    vertex 353.2518466602103 152.6458706672773 0.0
    vertex 351.7727883786478 152.13038341532183 -1.54
    vertex 353.2518466602103 152.6458706672773 -1.54
  endloop
endfacet
facet normal 0.32910843613571034 -0.9442921355514442 0.0
  outer loop
    vertex 351.7727883786478 152.13038341532183 -1.54
    vertex 353.2518466602103 152.6458706672773 0.0
    vertex 351.7727883786478 152.13038341532183 0.0
  endloop
endfacet
facet normal 0.07349354929183997 -0.9972956924666264 0.0
  outer loop
    vertex 351.7727883786478 152.13038341532183 0.0
    vertex 350.2107098675863 152.01526941762023 -1.54
    vertex 351.7727883786478 152.13038341532183 -1.54
  endloop
endfacet
facet normal 0.07349354929183997 -0.9972956924666264 0.0
  outer loop
    vertex 350.2107098675863 152.01526941762023 -1.54
    vertex 351.7727883786478 152.13038341532183 0.0
    vertex 350.2107098675863 152.01526941762023 0.0
  endloop
endfacet
facet normal -0.18712980148243674 -0.982335196049263 -0.0
  outer loop
    vertex 350.2107098675863 152.01526941762023 0.0
    vertex 348.6720641960977 152.30837350288098 -1.54
    vertex 350.2107098675863 152.01526941762023 -1.54
  endloop
endfacet
facet normal -0.18712980148243674 -0.982335196049263 -0.0
  outer loop
    vertex 348.6720641960977 152.30837350288098 -1.54
    vertex 350.2107098675863 152.01526941762023 0.0
    vertex 348.6720641960977 152.30837350288098 0.0
  endloop
endfacet
facet normal -0.4350005655322899 -0.9004301794068146 -0.0
  outer loop
    vertex 348.6720641960977 152.30837350288098 0.0
    vertex 347.26170752396183 152.98972111207098 -1.54
    vertex 348.6720641960977 152.30837350288098 -1.54
  endloop
endfacet
facet normal -0.4350005655322899 -0.9004301794068146 -0.0
  outer loop
    vertex 347.26170752396183 152.98972111207098 -1.54
    vertex 348.6720641960977 152.30837350288098 0.0
    vertex 347.26170752396183 152.98972111207098 0.0
  endloop
endfacet
facet normal -0.653226759913571 -0.7571623340690012 -0.0
  outer loop
    vertex 347.26170752396183 152.98972111207098 0.0
    vertex 346.07575332766015 154.01287953160409 -1.54
    vertex 347.26170752396183 152.98972111207098 -1.54
  endloop
endfacet
facet normal -0.653226759913571 -0.7571623340690012 -0.0
  outer loop
    vertex 346.07575332766015 154.01287953160409 -1.54
    vertex 347.26170752396183 152.98972111207098 0.0
    vertex 346.07575332766015 154.01287953160409 0.0
  endloop
endfacet
facet normal -0.8269366301149639 -0.5622951269343418 -0.0
  outer loop
    vertex 345.1950224257886 155.30812220603835 0.0
    vertex 346.07575332766015 154.01287953160409 -1.54
    vertex 346.07575332766015 154.01287953160409 0.0
  endloop
endfacet
facet normal -0.8269366301149639 -0.5622951269343418 -0.0
  outer loop
    vertex 346.07575332766015 154.01287953160409 -1.54
    vertex 345.1950224257886 155.30812220603835 0.0
    vertex 345.1950224257886 155.30812220603835 -1.54
  endloop
endfacet
facet normal -0.9442921355514502 -0.329108436135693 -0.0
  outer loop
    vertex 344.67953517383313 156.78718048760078 0.0
    vertex 345.1950224257886 155.30812220603835 -1.54
    vertex 345.1950224257886 155.30812220603835 0.0
  endloop
endfacet
facet normal -0.9442921355514502 -0.329108436135693 -0.0
  outer loop
    vertex 345.1950224257886 155.30812220603835 -1.54
    vertex 344.67953517383313 156.78718048760078 0.0
    vertex 344.67953517383313 156.78718048760078 -1.54
  endloop
endfacet
facet normal -0.9972956924666264 -0.07349354929183997 -0.0
  outer loop
    vertex 344.56442117613153 158.34925899866232 0.0
    vertex 344.67953517383313 156.78718048760078 -1.54
    vertex 344.67953517383313 156.78718048760078 0.0
  endloop
endfacet
facet normal -0.9972956924666264 -0.07349354929183997 -0.0
  outer loop
    vertex 344.67953517383313 156.78718048760078 -1.54
    vertex 344.56442117613153 158.34925899866232 0.0
    vertex 344.56442117613153 158.34925899866232 -1.54
  endloop
endfacet
facet normal -0.982335196049263 0.18712980148243674 0.0
  outer loop
    vertex 344.8575252613923 159.8879046701509 0.0
    vertex 344.56442117613153 158.34925899866232 -1.54
    vertex 344.56442117613153 158.34925899866232 0.0
  endloop
endfacet
facet normal -0.982335196049263 0.18712980148243674 0.0
  outer loop
    vertex 344.56442117613153 158.34925899866232 -1.54
    vertex 344.8575252613923 159.8879046701509 0.0
    vertex 344.8575252613923 159.8879046701509 -1.54
  endloop
endfacet
facet normal -0.9004301794068175 0.4350005655322839 0.0
  outer loop
    vertex 345.5388728705823 161.29826134228676 0.0
    vertex 344.8575252613923 159.8879046701509 -1.54
    vertex 344.8575252613923 159.8879046701509 0.0
  endloop
endfacet
facet normal -0.9004301794068175 0.4350005655322839 0.0
  outer loop
    vertex 344.8575252613923 159.8879046701509 -1.54
    vertex 345.5388728705823 161.29826134228676 0.0
    vertex 345.5388728705823 161.29826134228676 -1.54
  endloop
endfacet
facet normal -0.7571623340690066 0.6532267599135652 0.0
  outer loop
    vertex 346.5620312901154 162.48421553858847 0.0
    vertex 345.5388728705823 161.29826134228676 -1.54
    vertex 345.5388728705823 161.29826134228676 0.0
  endloop
endfacet
facet normal -0.7571623340690066 0.6532267599135652 0.0
  outer loop
    vertex 345.5388728705823 161.29826134228676 -1.54
    vertex 346.5620312901154 162.48421553858847 0.0
    vertex 346.5620312901154 162.48421553858847 -1.54
  endloop
endfacet
facet normal -0.5622951269343287 0.8269366301149726 0.0
  outer loop
    vertex 346.5620312901154 162.48421553858847 0.0
    vertex 347.8572739645496 163.36494644046002 -1.54
    vertex 346.5620312901154 162.48421553858847 -1.54
  endloop
endfacet
facet normal -0.5622951269343287 0.8269366301149726 0.0
  outer loop
    vertex 347.8572739645496 163.36494644046002 -1.54
    vertex 346.5620312901154 162.48421553858847 0.0
    vertex 347.8572739645496 163.36494644046002 0.0
  endloop
endfacet
facet normal -0.3291084361357014 0.9442921355514474 0.0
  outer loop
    vertex 347.8572739645496 163.36494644046002 0.0
    vertex 349.3363322461121 163.8804336924155 -1.54
    vertex 347.8572739645496 163.36494644046002 -1.54
  endloop
endfacet
facet normal -0.3291084361357014 0.9442921355514474 0.0
  outer loop
    vertex 349.3363322461121 163.8804336924155 -1.54
    vertex 347.8572739645496 163.36494644046002 0.0
    vertex 349.3363322461121 163.8804336924155 0.0
  endloop
endfacet
facet normal -0.07349354929183997 0.9972956924666264 0.0
  outer loop
    vertex 349.3363322461121 163.8804336924155 0.0
    vertex 350.8984107571736 163.9955476901171 -1.54
    vertex 349.3363322461121 163.8804336924155 -1.54
  endloop
endfacet
facet normal -0.07349354929183997 0.9972956924666264 0.0
  outer loop
    vertex 350.8984107571736 163.9955476901171 -1.54
    vertex 349.3363322461121 163.8804336924155 0.0
    vertex 350.8984107571736 163.9955476901171 0.0
  endloop
endfacet
facet normal 0.18712980148243674 0.982335196049263 0.0
  outer loop
    vertex 350.8984107571736 163.9955476901171 0.0
    vertex 352.43705642866223 163.7024436048563 -1.54
    vertex 350.8984107571736 163.9955476901171 -1.54
  endloop
endfacet
facet normal 0.18712980148243674 0.982335196049263 0.0
  outer loop
    vertex 352.43705642866223 163.7024436048563 -1.54
    vertex 350.8984107571736 163.9955476901171 0.0
    vertex 352.43705642866223 163.7024436048563 0.0
  endloop
endfacet
facet normal 0.4350005655322899 0.9004301794068146 0.0
  outer loop
    vertex 352.43705642866223 163.7024436048563 0.0
    vertex 353.8474131007981 163.02109599566634 -1.54
    vertex 352.43705642866223 163.7024436048563 -1.54
  endloop
endfacet
facet normal 0.4350005655322899 0.9004301794068146 0.0
  outer loop
    vertex 353.8474131007981 163.02109599566634 -1.54
    vertex 352.43705642866223 163.7024436048563 0.0
    vertex 353.8474131007981 163.02109599566634 0.0
  endloop
endfacet
facet normal 0.653226759913571 0.7571623340690012 0.0
  outer loop
    vertex 353.8474131007981 163.02109599566634 0.0
    vertex 355.03336729709974 161.99793757613324 -1.54
    vertex 353.8474131007981 163.02109599566634 -1.54
  endloop
endfacet
facet normal 0.653226759913571 0.7571623340690012 0.0
  outer loop
    vertex 355.03336729709974 161.99793757613324 -1.54
    vertex 353.8474131007981 163.02109599566634 0.0
    vertex 355.03336729709974 161.99793757613324 0.0
  endloop
endfacet
facet normal 0.8269366301149639 0.5622951269343418 0.0
  outer loop
    vertex 355.03336729709974 161.99793757613324 -1.54
    vertex 355.9140981989713 160.70269490169898 0.0
    vertex 355.9140981989713 160.70269490169898 -1.54
  endloop
endfacet
facet normal 0.8269366301149639 0.5622951269343418 0.0
  outer loop
    vertex 355.9140981989713 160.70269490169898 0.0
    vertex 355.03336729709974 161.99793757613324 -1.54
    vertex 355.03336729709974 161.99793757613324 0.0
  endloop
endfacet
facet normal 0.9442921355514502 0.329108436135693 0.0
  outer loop
    vertex 355.9140981989713 160.70269490169898 -1.54
    vertex 356.42958545092677 159.22363662013652 0.0
    vertex 356.42958545092677 159.22363662013652 -1.54
  endloop
endfacet
facet normal 0.9442921355514502 0.329108436135693 0.0
  outer loop
    vertex 356.42958545092677 159.22363662013652 0.0
    vertex 355.9140981989713 160.70269490169898 -1.54
    vertex 355.9140981989713 160.70269490169898 0.0
  endloop
endfacet
facet normal 0.9972956924666264 0.07349354929183997 0.0
  outer loop
    vertex 356.42958545092677 159.22363662013652 -1.54
    vertex 356.5446994486284 157.66155810907497 0.0
    vertex 356.5446994486284 157.66155810907497 -1.54
  endloop
endfacet
facet normal 0.9972956924666264 0.07349354929183997 0.0
  outer loop
    vertex 356.5446994486284 157.66155810907497 0.0
    vertex 356.42958545092677 159.22363662013652 -1.54
    vertex 356.42958545092677 159.22363662013652 0.0
  endloop
endfacet
facet normal 0.982335196049263 -0.18712980148243674 0.0
  outer loop
    vertex 356.5446994486284 157.66155810907497 -1.54
    vertex 356.25159536336764 156.1229124375864 0.0
    vertex 356.25159536336764 156.1229124375864 -1.54
  endloop
endfacet
facet normal 0.982335196049263 -0.18712980148243674 0.0
  outer loop
    vertex 356.25159536336764 156.1229124375864 0.0
    vertex 356.5446994486284 157.66155810907497 -1.54
    vertex 356.5446994486284 157.66155810907497 0.0
  endloop
endfacet
facet normal 0.900430179406806 -0.43500056553230715 0.0
  outer loop
    vertex 356.25159536336764 156.1229124375864 -1.54
    vertex 355.5702477541776 154.71255576545053 0.0
    vertex 355.5702477541776 154.71255576545053 -1.54
  endloop
endfacet
facet normal 0.900430179406806 -0.43500056553230715 0.0
  outer loop
    vertex 355.5702477541776 154.71255576545053 0.0
    vertex 356.25159536336764 156.1229124375864 -1.54
    vertex 356.25159536336764 156.1229124375864 0.0
  endloop
endfacet
facet normal 0.7571623340690207 -0.6532267599135485 0.0
  outer loop
    vertex 355.5702477541776 154.71255576545053 -1.54
    vertex 354.5470893346445 153.52660156914882 0.0
    vertex 354.5470893346445 153.52660156914882 -1.54
  endloop
endfacet
facet normal 0.7571623340690207 -0.6532267599135485 0.0
  outer loop
    vertex 354.5470893346445 153.52660156914882 0.0
    vertex 355.5702477541776 154.71255576545053 -1.54
    vertex 355.5702477541776 154.71255576545053 0.0
  endloop
endfacet
facet normal 0.5622951269343154 -0.826936630114982 0.0
  outer loop
    vertex 354.5470893346445 153.52660156914882 0.0
    vertex 353.2518466602103 152.6458706672773 -1.54
    vertex 354.5470893346445 153.52660156914882 -1.54
  endloop
endfacet
facet normal 0.5622951269343154 -0.826936630114982 0.0
  outer loop
    vertex 353.2518466602103 152.6458706672773 -1.54
    vertex 354.5470893346445 153.52660156914882 0.0
    vertex 353.2518466602103 152.6458706672773 0.0
  endloop
endfacet
facet normal 0.0 0.0 -1.0
  outer loop
    vertex 345.5194825145408 159.6691712505661 -3.5400000000000005
    vertex 345.3621736810715 156.92873041615798 -3.5400000000000005
    vertex 345.260435157636 158.30930588377146 -3.5400000000000005
  endloop
endfacet
facet normal 0.0 0.0 -1.0
  outer loop
    vertex 345.3621736810715 156.92873041615798 -3.5400000000000005
    vertex 345.5194825145408 159.6691712505661 -3.5400000000000005
    vertex 345.81776477260604 155.62152878433477 -3.5400000000000005
  endloop
endfacet
facet normal 0.0 0.0 -1.0
  outer loop
    vertex 345.81776477260604 155.62152878433477 -3.5400000000000005
    vertex 345.5194825145408 159.6691712505661 -3.5400000000000005
    vertex 346.1216621025088 160.91565393907874 -3.5400000000000005
  endloop
endfacet
facet normal 0.0 0.0 -1.0
  outer loop
    vertex 345.81776477260604 155.62152878433477 -3.5400000000000005
    vertex 346.1216621025088 160.91565393907874 -3.5400000000000005
    vertex 346.59616065225146 154.4767846192577 -3.5400000000000005
  endloop
endfacet
facet normal 0.0 0.0 -1.0
  outer loop
    vertex 346.59616065225146 154.4767846192577 -3.5400000000000005
    vertex 346.1216621025088 160.91565393907874 -3.5400000000000005
    vertex 347.02593637776897 161.96380821399714 -3.5400000000000005
  endloop
endfacet
facet normal 0.0 0.0 -1.0
  outer loop
    vertex 346.59616065225146 154.4767846192577 -3.5400000000000005
    vertex 347.02593637776897 161.96380821399714 -3.5400000000000005
    vertex 347.6443149271699 153.57251034399755 -3.5400000000000005
  endloop
endfacet
facet normal 0.0 0.0 -1.0
  outer loop
    vertex 347.6443149271699 153.57251034399755 -3.5400000000000005
    vertex 347.02593637776897 161.96380821399714 -3.5400000000000005
    vertex 348.17068054284607 162.74220409364256 -3.5400000000000005
  endloop
endfacet
facet normal 0.0 0.0 -1.0
  outer loop
    vertex 347.6443149271699 153.57251034399755 -3.5400000000000005
    vertex 348.17068054284607 162.74220409364256 -3.5400000000000005
    vertex 348.8907976156825 152.97033075602948 -3.5400000000000005
  endloop
endfacet
facet normal 0.0 0.0 -1.0
  outer loop
    vertex 348.8907976156825 152.97033075602948 -3.5400000000000005
    vertex 348.17068054284607 162.74220409364256 -3.5400000000000005
    vertex 349.4778821746693 163.1977951851771 -3.5400000000000005
  endloop
endfacet
facet normal 0.0 0.0 -1.0
  outer loop
    vertex 348.8907976156825 152.97033075602948 -3.5400000000000005
    vertex 349.4778821746693 163.1977951851771 -3.5400000000000005
    vertex 350.25066298247714 152.71128339912468 -3.5400000000000005
  endloop
endfacet
facet normal 0.0 0.0 -1.0
  outer loop
    vertex 350.25066298247714 152.71128339912468 -3.5400000000000005
    vertex 349.4778821746693 163.1977951851771 -3.5400000000000005
    vertex 350.85845764228276 163.2995337086126 -3.5400000000000005
  endloop
endfacet
facet normal 0.0 0.0 -1.0
  outer loop
    vertex 350.25066298247714 152.71128339912468 -3.5400000000000005
    vertex 350.85845764228276 163.2995337086126 -3.5400000000000005
    vertex 351.6312384500906 152.8130219225602 -3.5400000000000005
  endloop
endfacet
facet normal 0.0 0.0 -1.0
  outer loop
    vertex 351.6312384500906 152.8130219225602 -3.5400000000000005
    vertex 350.85845764228276 163.2995337086126 -3.5400000000000005
    vertex 352.21832300907744 163.0404863517078 -3.5400000000000005
  endloop
endfacet
facet normal 0.0 0.0 -1.0
  outer loop
    vertex 351.6312384500906 152.8130219225602 -3.5400000000000005
    vertex 352.21832300907744 163.0404863517078 -3.5400000000000005
    vertex 352.9384400819139 153.26861301409477 -3.5400000000000005
  endloop
endfacet
facet normal 0.0 0.0 -1.0
  outer loop
    vertex 352.9384400819139 153.26861301409477 -3.5400000000000005
    vertex 352.21832300907744 163.0404863517078 -3.5400000000000005
    vertex 353.46480569759 162.43830676373975 -3.5400000000000005
  endloop
endfacet
facet normal 0.0 0.0 -1.0
  outer loop
    vertex 352.9384400819139 153.26861301409477 -3.5400000000000005
    vertex 353.46480569759 162.43830676373975 -3.5400000000000005
    vertex 354.083184246991 154.04700889374016 -3.5400000000000005
  endloop
endfacet
facet normal 0.0 0.0 -1.0
  outer loop
    vertex 354.083184246991 154.04700889374016 -3.5400000000000005
    vertex 353.46480569759 162.43830676373975 -3.5400000000000005
    vertex 354.51295997250844 161.53403248847962 -3.5400000000000005
  endloop
endfacet
facet normal 0.0 0.0 -1.0
  outer loop
    vertex 354.083184246991 154.04700889374016 -3.5400000000000005
    vertex 354.51295997250844 161.53403248847962 -3.5400000000000005
    vertex 354.9874585222511 155.09516316865856 -3.5400000000000005
  endloop
endfacet
facet normal 0.0 0.0 -1.0
  outer loop
    vertex 354.9874585222511 155.09516316865856 -3.5400000000000005
    vertex 354.51295997250844 161.53403248847962 -3.5400000000000005
    vertex 355.29135585215386 160.38928832340252 -3.5400000000000005
  endloop
endfacet
facet normal 0.0 0.0 -1.0
  outer loop
    vertex 354.9874585222511 155.09516316865856 -3.5400000000000005
    vertex 355.29135585215386 160.38928832340252 -3.5400000000000005
    vertex 355.58963811021914 156.34164585717116 -3.5400000000000005
  endloop
endfacet
facet normal 0.0 0.0 -1.0
  outer loop
    vertex 355.58963811021914 156.34164585717116 -3.5400000000000005
    vertex 355.29135585215386 160.38928832340252 -3.5400000000000005
    vertex 355.74694694368844 159.08208669157932 -3.5400000000000005
  endloop
endfacet
facet normal 0.0 0.0 -1.0
  outer loop
    vertex 355.58963811021914 156.34164585717116 -3.5400000000000005
    vertex 355.74694694368844 159.08208669157932 -3.5400000000000005
    vertex 355.8486854671239 157.70151122396587 -3.5400000000000005
  endloop
endfacet
facet normal 0.997295692466628 0.07349354929181993 0.0
  outer loop
    vertex 355.74694694368844 159.08208669157932 -3.5400000000000005
    vertex 355.8486854671239 157.70151122396587 -1.54
    vertex 355.8486854671239 157.70151122396587 -3.5400000000000005
  endloop
endfacet
facet normal 0.997295692466628 0.07349354929181993 0.0
  outer loop
    vertex 355.8486854671239 157.70151122396587 -1.54
    vertex 355.74694694368844 159.08208669157932 -3.5400000000000005
    vertex 355.74694694368844 159.08208669157932 -1.54
  endloop
endfacet
facet normal 0.9823351960492631 -0.18712980148243655 0.0
  outer loop
    vertex 355.8486854671239 157.70151122396587 -3.5400000000000005
    vertex 355.58963811021914 156.34164585717116 -1.54
    vertex 355.58963811021914 156.34164585717116 -3.5400000000000005
  endloop
endfacet
facet normal 0.9823351960492631 -0.18712980148243655 0.0
  outer loop
    vertex 355.58963811021914 156.34164585717116 -1.54
    vertex 355.8486854671239 157.70151122396587 -3.5400000000000005
    vertex 355.8486854671239 157.70151122396587 -1.54
  endloop
endfacet
facet normal 0.900430179406817 -0.43500056553228444 0.0
  outer loop
    vertex 355.58963811021914 156.34164585717116 -3.5400000000000005
    vertex 354.9874585222511 155.09516316865856 -1.54
    vertex 354.9874585222511 155.09516316865856 -3.5400000000000005
  endloop
endfacet
facet normal 0.900430179406817 -0.43500056553228444 0.0
  outer loop
    vertex 354.9874585222511 155.09516316865856 -1.54
    vertex 355.58963811021914 156.34164585717116 -3.5400000000000005
    vertex 355.58963811021914 156.34164585717116 -1.54
  endloop
endfacet
facet normal 0.7571623340690058 -0.6532267599135659 0.0
  outer loop
    vertex 354.9874585222511 155.09516316865856 -3.5400000000000005
    vertex 354.083184246991 154.04700889374016 -1.54
    vertex 354.083184246991 154.04700889374016 -3.5400000000000005
  endloop
endfacet
facet normal 0.7571623340690058 -0.6532267599135659 0.0
  outer loop
    vertex 354.083184246991 154.04700889374016 -1.54
    vertex 354.9874585222511 155.09516316865856 -3.5400000000000005
    vertex 354.9874585222511 155.09516316865856 -1.54
  endloop
endfacet
facet normal 0.5622951269343243 -0.8269366301149759 0.0
  outer loop
    vertex 354.083184246991 154.04700889374016 -1.54
    vertex 352.9384400819139 153.26861301409477 -3.5400000000000005
    vertex 354.083184246991 154.04700889374016 -3.5400000000000005
  endloop
endfacet
facet normal 0.5622951269343243 -0.8269366301149759 0.0
  outer loop
    vertex 352.9384400819139 153.26861301409477 -3.5400000000000005
    vertex 354.083184246991 154.04700889374016 -1.54
    vertex 352.9384400819139 153.26861301409477 -1.54
  endloop
endfacet
facet normal 0.32910843613570084 -0.9442921355514475 0.0
  outer loop
    vertex 352.9384400819139 153.26861301409477 -1.54
    vertex 351.6312384500906 152.8130219225602 -3.5400000000000005
    vertex 352.9384400819139 153.26861301409477 -3.5400000000000005
  endloop
endfacet
facet normal 0.32910843613570084 -0.9442921355514475 0.0
  outer loop
    vertex 351.6312384500906 152.8130219225602 -3.5400000000000005
    vertex 352.9384400819139 153.26861301409477 -1.54
    vertex 351.6312384500906 152.8130219225602 -1.54
  endloop
endfacet
facet normal 0.07349354929183495 -0.9972956924666269 0.0
  outer loop
    vertex 351.6312384500906 152.8130219225602 -1.54
    vertex 350.25066298247714 152.71128339912468 -3.5400000000000005
    vertex 351.6312384500906 152.8130219225602 -3.5400000000000005
  endloop
endfacet
facet normal 0.07349354929183495 -0.9972956924666269 0.0
  outer loop
    vertex 350.25066298247714 152.71128339912468 -3.5400000000000005
    vertex 351.6312384500906 152.8130219225602 -1.54
    vertex 350.25066298247714 152.71128339912468 -1.54
  endloop
endfacet
facet normal -0.18712980148244251 -0.9823351960492619 -0.0
  outer loop
    vertex 350.25066298247714 152.71128339912468 -1.54
    vertex 348.8907976156825 152.97033075602948 -3.5400000000000005
    vertex 350.25066298247714 152.71128339912468 -3.5400000000000005
  endloop
endfacet
facet normal -0.18712980148244251 -0.9823351960492619 -0.0
  outer loop
    vertex 348.8907976156825 152.97033075602948 -3.5400000000000005
    vertex 350.25066298247714 152.71128339912468 -1.54
    vertex 348.8907976156825 152.97033075602948 -1.54
  endloop
endfacet
facet normal -0.43500056553229777 -0.9004301794068108 -0.0
  outer loop
    vertex 348.8907976156825 152.97033075602948 -1.54
    vertex 347.6443149271699 153.57251034399755 -3.5400000000000005
    vertex 348.8907976156825 152.97033075602948 -3.5400000000000005
  endloop
endfacet
facet normal -0.43500056553229777 -0.9004301794068108 -0.0
  outer loop
    vertex 347.6443149271699 153.57251034399755 -3.5400000000000005
    vertex 348.8907976156825 152.97033075602948 -1.54
    vertex 347.6443149271699 153.57251034399755 -1.54
  endloop
endfacet
facet normal -0.6532267599135672 -0.7571623340690046 -0.0
  outer loop
    vertex 347.6443149271699 153.57251034399755 -1.54
    vertex 346.59616065225146 154.4767846192577 -3.5400000000000005
    vertex 347.6443149271699 153.57251034399755 -3.5400000000000005
  endloop
endfacet
facet normal -0.6532267599135672 -0.7571623340690046 -0.0
  outer loop
    vertex 346.59616065225146 154.4767846192577 -3.5400000000000005
    vertex 347.6443149271699 153.57251034399755 -1.54
    vertex 346.59616065225146 154.4767846192577 -1.54
  endloop
endfacet
facet normal -0.8269366301149708 -0.5622951269343319 -0.0
  outer loop
    vertex 345.81776477260604 155.62152878433477 -1.54
    vertex 346.59616065225146 154.4767846192577 -3.5400000000000005
    vertex 346.59616065225146 154.4767846192577 -1.54
  endloop
endfacet
facet normal -0.8269366301149708 -0.5622951269343319 -0.0
  outer loop
    vertex 346.59616065225146 154.4767846192577 -3.5400000000000005
    vertex 345.81776477260604 155.62152878433477 -1.54
    vertex 345.81776477260604 155.62152878433477 -3.5400000000000005
  endloop
endfacet
facet normal -0.9442921355514408 -0.3291084361357205 -0.0
  outer loop
    vertex 345.3621736810715 156.92873041615798 -1.54
    vertex 345.81776477260604 155.62152878433477 -3.5400000000000005
    vertex 345.81776477260604 155.62152878433477 -1.54
  endloop
endfacet
facet normal -0.9442921355514408 -0.3291084361357205 -0.0
  outer loop
    vertex 345.81776477260604 155.62152878433477 -3.5400000000000005
    vertex 345.3621736810715 156.92873041615798 -1.54
    vertex 345.3621736810715 156.92873041615798 -3.5400000000000005
  endloop
endfacet
facet normal -0.997295692466628 -0.07349354929181993 -0.0
  outer loop
    vertex 345.260435157636 158.30930588377146 -1.54
    vertex 345.3621736810715 156.92873041615798 -3.5400000000000005
    vertex 345.3621736810715 156.92873041615798 -1.54
  endloop
endfacet
facet normal -0.997295692466628 -0.07349354929181993 -0.0
  outer loop
    vertex 345.3621736810715 156.92873041615798 -3.5400000000000005
    vertex 345.260435157636 158.30930588377146 -1.54
    vertex 345.260435157636 158.30930588377146 -3.5400000000000005
  endloop
endfacet
facet normal -0.9823351960492624 0.18712980148243952 0.0
  outer loop
    vertex 345.5194825145408 159.6691712505661 -1.54
    vertex 345.260435157636 158.30930588377146 -3.5400000000000005
    vertex 345.260435157636 158.30930588377146 -1.54
  endloop
endfacet
facet normal -0.9823351960492624 0.18712980148243952 0.0
  outer loop
    vertex 345.260435157636 158.30930588377146 -3.5400000000000005
    vertex 345.5194825145408 159.6691712505661 -1.54
    vertex 345.5194825145408 159.6691712505661 -3.5400000000000005
  endloop
endfacet
facet normal -0.9004301794068201 0.43500056553227806 0.0
  outer loop
    vertex 346.1216621025088 160.91565393907874 -1.54
    vertex 345.5194825145408 159.6691712505661 -3.5400000000000005
    vertex 345.5194825145408 159.6691712505661 -1.54
  endloop
endfacet
facet normal -0.9004301794068201 0.43500056553227806 0.0
  outer loop
    vertex 345.5194825145408 159.6691712505661 -3.5400000000000005
    vertex 346.1216621025088 160.91565393907874 -1.54
    vertex 346.1216621025088 160.91565393907874 -3.5400000000000005
  endloop
endfacet
facet normal -0.7571623340690058 0.6532267599135659 0.0
  outer loop
    vertex 347.02593637776897 161.96380821399714 -1.54
    vertex 346.1216621025088 160.91565393907874 -3.5400000000000005
    vertex 346.1216621025088 160.91565393907874 -1.54
  endloop
endfacet
facet normal -0.7571623340690058 0.6532267599135659 0.0
  outer loop
    vertex 346.1216621025088 160.91565393907874 -3.5400000000000005
    vertex 347.02593637776897 161.96380821399714 -1.54
    vertex 347.02593637776897 161.96380821399714 -3.5400000000000005
  endloop
endfacet
facet normal -0.5622951269343243 0.8269366301149759 0.0
  outer loop
    vertex 347.02593637776897 161.96380821399714 -1.54
    vertex 348.17068054284607 162.74220409364256 -3.5400000000000005
    vertex 347.02593637776897 161.96380821399714 -3.5400000000000005
  endloop
endfacet
facet normal -0.5622951269343243 0.8269366301149759 0.0
  outer loop
    vertex 348.17068054284607 162.74220409364256 -3.5400000000000005
    vertex 347.02593637776897 161.96380821399714 -1.54
    vertex 348.17068054284607 162.74220409364256 -1.54
  endloop
endfacet
facet normal -0.32910843613570084 0.9442921355514475 0.0
  outer loop
    vertex 348.17068054284607 162.74220409364256 -1.54
    vertex 349.4778821746693 163.1977951851771 -3.5400000000000005
    vertex 348.17068054284607 162.74220409364256 -3.5400000000000005
  endloop
endfacet
facet normal -0.32910843613570084 0.9442921355514475 0.0
  outer loop
    vertex 349.4778821746693 163.1977951851771 -3.5400000000000005
    vertex 348.17068054284607 162.74220409364256 -1.54
    vertex 349.4778821746693 163.1977951851771 -1.54
  endloop
endfacet
facet normal -0.07349354929183495 0.9972956924666269 0.0
  outer loop
    vertex 349.4778821746693 163.1977951851771 -1.54
    vertex 350.85845764228276 163.2995337086126 -3.5400000000000005
    vertex 349.4778821746693 163.1977951851771 -3.5400000000000005
  endloop
endfacet
facet normal -0.07349354929183495 0.9972956924666269 0.0
  outer loop
    vertex 350.85845764228276 163.2995337086126 -3.5400000000000005
    vertex 349.4778821746693 163.1977951851771 -1.54
    vertex 350.85845764228276 163.2995337086126 -1.54
  endloop
endfacet
facet normal 0.18712980148244251 0.9823351960492619 0.0
  outer loop
    vertex 350.85845764228276 163.2995337086126 -1.54
    vertex 352.21832300907744 163.0404863517078 -3.5400000000000005
    vertex 350.85845764228276 163.2995337086126 -3.5400000000000005
  endloop
endfacet
facet normal 0.18712980148244251 0.9823351960492619 0.0
  outer loop
    vertex 352.21832300907744 163.0404863517078 -3.5400000000000005
    vertex 350.85845764228276 163.2995337086126 -1.54
    vertex 352.21832300907744 163.0404863517078 -1.54
  endloop
endfacet
facet normal 0.43500056553229777 0.9004301794068108 0.0
  outer loop
    vertex 352.21832300907744 163.0404863517078 -1.54
    vertex 353.46480569759 162.43830676373975 -3.5400000000000005
    vertex 352.21832300907744 163.0404863517078 -3.5400000000000005
  endloop
endfacet
facet normal 0.43500056553229777 0.9004301794068108 0.0
  outer loop
    vertex 353.46480569759 162.43830676373975 -3.5400000000000005
    vertex 352.21832300907744 163.0404863517078 -1.54
    vertex 353.46480569759 162.43830676373975 -1.54
  endloop
endfacet
facet normal 0.6532267599135672 0.7571623340690046 0.0
  outer loop
    vertex 353.46480569759 162.43830676373975 -1.54
    vertex 354.51295997250844 161.53403248847962 -3.5400000000000005
    vertex 353.46480569759 162.43830676373975 -3.5400000000000005
  endloop
endfacet
facet normal 0.6532267599135672 0.7571623340690046 0.0
  outer loop
    vertex 354.51295997250844 161.53403248847962 -3.5400000000000005
    vertex 353.46480569759 162.43830676373975 -1.54
    vertex 354.51295997250844 161.53403248847962 -1.54
  endloop
endfacet
facet normal 0.8269366301149708 0.5622951269343319 0.0
  outer loop
    vertex 354.51295997250844 161.53403248847962 -3.5400000000000005
    vertex 355.29135585215386 160.38928832340252 -1.54
    vertex 355.29135585215386 160.38928832340252 -3.5400000000000005
  endloop
endfacet
facet normal 0.8269366301149708 0.5622951269343319 0.0
  outer loop
    vertex 355.29135585215386 160.38928832340252 -1.54
    vertex 354.51295997250844 161.53403248847962 -3.5400000000000005
    vertex 354.51295997250844 161.53403248847962 -1.54
  endloop
endfacet
facet normal 0.9442921355514408 0.3291084361357205 0.0
  outer loop
    vertex 355.29135585215386 160.38928832340252 -3.5400000000000005
    vertex 355.74694694368844 159.08208669157932 -1.54
    vertex 355.74694694368844 159.08208669157932 -3.5400000000000005
  endloop
endfacet
facet normal 0.9442921355514408 0.3291084361357205 0.0
  outer loop
    vertex 355.74694694368844 159.08208669157932 -1.54
    vertex 355.29135585215386 160.38928832340252 -3.5400000000000005
    vertex 355.29135585215386 160.38928832340252 -1.54
  endloop
endfacet
endsolid kutu_katmanı3
